<?xml version="1.0" encoding="UTF-8"?>
<svg width="546px" height="547px" viewBox="0 0 546 547" version="1.1" xmlns="http://www.w3.org/2000/svg" xmlns:xlink="http://www.w3.org/1999/xlink">
    <title>100</title>
    <defs>
        <path d="M176.908079,-4.76486542e-15 L329.091921,7.14729812e-15 C390.606714,-4.15278604e-15 412.913465,6.40496717 435.402354,18.4321566 C457.891242,30.459346 475.540654,48.1087576 487.567843,70.5976465 C499.595033,93.0865353 506,115.393286 506,176.908079 L506,329.091921 C506,390.606714 499.595033,412.913465 487.567843,435.402354 C475.540654,457.891242 457.891242,475.540654 435.402354,487.567843 C412.913465,499.595033 390.606714,506 329.091921,506 L176.908079,506 C115.393286,506 93.0865353,499.595033 70.5976465,487.567843 C48.1087576,475.540654 30.459346,457.891242 18.4321566,435.402354 C6.40496717,412.913465 1.38426201e-15,390.606714 -2.38243271e-15,329.091921 L4.76486542e-15,176.908079 C-2.76852402e-15,115.393286 6.40496717,93.0865353 18.4321566,70.5976465 C30.459346,48.1087576 48.1087576,30.459346 70.5976465,18.4321566 C93.0865353,6.40496717 115.393286,2.76852402e-15 176.908079,-4.76486542e-15 Z" id="path-1"></path>
        <filter x="-6.3%" y="-5.5%" width="112.6%" height="112.6%" filterUnits="objectBoundingBox" id="filter-2">
            <feOffset dx="0" dy="4" in="SourceAlpha" result="shadowOffsetOuter1"></feOffset>
            <feGaussianBlur stdDeviation="10" in="shadowOffsetOuter1" result="shadowBlurOuter1"></feGaussianBlur>
            <feColorMatrix values="0 0 0 0 0   0 0 0 0 0   0 0 0 0 0  0 0 0 0.453644012 0" type="matrix" in="shadowBlurOuter1"></feColorMatrix>
        </filter>
    </defs>
    <g id="Page-1" stroke="none" stroke-width="1" fill="none" fill-rule="evenodd">
        <g id="100" transform="translate(20, 16.8481)">
            <g id="Rectangle">
                <use fill="black" fill-opacity="1" filter="url(#filter-2)" xlink:href="#path-1"></use>
                <use fill="#007575" fill-rule="evenodd" xlink:href="#path-1"></use>
            </g>
            <path d="M176.908079,4 L329.091921,4 C389.473925,4 411.426117,10.145633 433.515958,21.9594094 C455.297463,33.6082854 472.391715,50.7025375 484.040591,72.4840419 C495.854367,94.573883 502,116.526075 502,176.908079 L502,311.091921 C502,371.473925 495.854367,393.426117 484.040591,415.515958 C472.391715,437.297463 455.297463,454.391715 433.515958,466.040591 C411.426117,477.854367 389.473925,484 329.091921,484 L176.908079,484 C116.526075,484 94.573883,477.854367 72.4840419,466.040591 C50.7025375,454.391715 33.6082854,437.297463 21.9594094,415.515958 C10.145633,393.426117 4,371.473925 4,311.091921 L4,176.908079 C4,116.526075 10.145633,94.573883 21.9594094,72.4840419 C33.6082854,50.7025375 50.7025375,33.6082854 72.4840419,21.9594094 C94.573883,10.145633 116.526075,4 176.908079,4 Z" id="Rectangle" stroke-opacity="0.08" stroke="#FFFFFF" stroke-width="8" fill="#00A18E"></path>
            <g id="u1F4AF-hundredpointssymbol" transform="translate(93.7717, 81.9785)">
                <g id="Layer_2" fill="#FFFFFF" fill-rule="nonzero">
                    <path d="M273.572781,274.559808 L282.782858,274.706591 L290.851329,274.849771 C291.5455,274.856266 292.220992,274.885104 293.154321,274.940945 L300.553338,275.387786 C301.622284,275.455789 302.664623,275.525613 303.860233,275.608459 L310.940054,276.117045 C318.138177,276.652965 323.538302,282.922186 323.002373,290.120436 C322.512094,296.704424 317.192374,301.8661 310.65506,302.202399 L306.885155,302.398786 L301.356883,302.656823 C300.295554,302.703298 299.268406,302.744783 298.235079,302.782289 L293.223028,302.970593 C292.406014,303.001863 291.821099,303.034782 291.186865,303.091555 L283.437061,303.615246 L274.64295,304.192978 C274.345858,304.213142 274.079701,304.231527 273.821708,304.250001 L273.565593,304.268574 C272.375222,304.356034 271.19737,304.459016 267.717958,304.767505 C267.12447,304.820125 266.64251,304.862442 266.176017,304.902748 L254.316051,305.928318 L238.995917,307.496341 C238.581302,307.539002 238.339444,307.563888 238.125645,307.585881 L237.873295,307.611836 C237.658794,307.633896 237.414474,307.659016 236.99564,307.702079 C234.631852,307.940004 233.259782,308.086065 231.911931,308.254582 L231.43565,308.315177 C231.276174,308.335811 231.115458,308.356941 230.951927,308.378754 L218.395753,309.867171 L211.983784,310.616716 L205.442307,311.483217 L192.170495,313.195614 L178.66451,315.110785 L171.886496,316.059157 L165.081437,317.084028 L151.483731,319.138749 C151.284573,319.169119 151.08717,319.199333 150.890263,319.229586 L150.29977,319.320662 C148.42662,319.610696 146.484659,319.922098 143.395031,320.423756 C140.966695,320.81804 139.991499,320.976211 139.085448,321.121518 L138.827262,321.162878 C138.568567,321.204273 138.304756,321.246353 138.00355,321.294327 L137.12414,321.429289 C133.46345,321.994322 129.799121,322.600517 124.344379,323.530072 C123.876007,323.609889 123.553908,323.664847 122.764802,323.799561 C121.976384,323.934196 121.976384,323.934196 121.189354,324.068567 C119.908796,324.287148 118.971917,324.446662 118.051126,324.602683 C115.678578,325.004693 113.706835,325.33325 111.855113,325.633458 L99.3612509,327.834954 L94.165002,328.73934 C91.5149804,329.20523 89.4294004,329.586811 87.440437,329.975053 L80.9024875,331.209663 C79.0626032,331.5548 77.5530795,331.831006 76.1281351,332.081189 C74.8030723,332.320741 73.4590295,332.57531 71.8145731,332.895982 L71.2549086,333.005391 C70.6569739,333.122556 67.8499021,333.676693 67.0807038,333.827032 L63.2688704,334.565445 C61.1137827,334.986229 58.919736,335.423655 56.5223282,335.90906 L44.8831779,338.287897 C44.6051134,338.34517 44.3575103,338.397095 44.1346115,338.444952 L39.7836005,339.402612 L33.4394076,340.775918 C33.1024342,340.847995 32.9478466,340.881125 32.7741979,340.918626 C31.9230059,341.102452 31.3434766,341.236336 30.740394,341.393584 L24.356728,342.924934 L21.069266,343.695114 C14.033716,345.344071 6.99379423,340.977981 5.34379583,333.941681 C3.85858357,327.596692 7.26768145,321.153203 13.3188995,318.767284 L16.7426605,317.512894 L22.6819432,315.378766 C23.82288,314.972311 24.781382,314.650901 25.7765853,314.349053 L32.4279685,312.233708 L36.2150518,311.042325 C36.812746,310.856228 37.4119671,310.679781 38.2420289,310.442622 L51.4804916,306.647674 L55.1324515,305.694768 L58.9153474,304.712442 C60.1897678,304.386155 64.6632,303.217744 65.0964219,303.105568 C66.7933658,302.666168 68.2089094,302.307651 69.5794543,301.972675 C71.0120299,301.617718 72.5247019,301.253987 74.36095,300.820886 C75.3523887,300.587044 79.8130682,299.544325 81.0210515,299.259046 C83.3401488,298.700792 85.7134677,298.162026 89.057067,297.426118 L97.3186769,295.613159 C100.681539,294.878373 103.283396,294.325719 105.856956,293.806593 L118.977814,291.225802 C122.36749,290.552986 125.92516,289.89065 129.783157,289.209878 L132.507021,288.73471 C133.94593,288.485707 134.434291,288.399937 137.899694,287.789412 C141.736452,287.113463 143.871692,286.743827 146.262967,286.348462 L163.609905,283.646953 C164.99623,283.432231 166.075305,283.273358 167.125791,283.132702 L174.079067,282.192303 C179.81721,281.412537 183.033315,280.981983 186.262908,280.5704 L186.932124,280.485407 C187.26766,280.442938 187.605212,280.400428 187.947586,280.357512 L201.604443,278.830141 L208.32882,278.100703 C209.645889,277.966625 210.971783,277.845447 212.799365,277.688349 L227.934583,276.41098 C229.363588,276.287297 230.816732,276.189429 232.723061,276.081372 L240.430872,275.647804 L252.274419,274.996539 L263.338734,274.746614 C264.342566,274.729292 265.219536,274.709287 266.862954,274.668276 C269.852357,274.593677 271.27671,274.564221 272.736074,274.559808 L273.572781,274.559808 Z M76.0594571,30.7501762 C78.6123479,34.3015997 79.575572,38.6574027 78.8374939,42.8883472 L78.3584699,45.5797632 L78.309438,45.7908355 C77.106899,49.9670652 75.8814005,54.3361197 74.2416574,60.2629788 L70.2678373,74.872419 C67.6495788,84.6250313 65.0967142,94.3945535 62.6129123,104.166985 L58.9318531,118.853935 L55.3487199,133.56846 C54.24231,138.175087 53.1087788,142.987826 51.878838,148.289023 L50.1869835,155.664566 C49.554927,158.435426 49.0266345,160.78421 48.5300619,163.040218 C48.4735607,163.292071 48.4175299,163.54224 48.3617899,163.79154 L48.195263,164.537645 C47.3928649,168.139088 46.6138745,171.729018 45.3110056,177.791074 L43.7571786,185.184937 C43.374065,187.017646 43.0479641,188.59642 42.7427132,190.100839 L42.2462822,192.575653 C42.1553819,193.020441 42.0665702,193.456762 41.978692,193.890435 L41.782054,194.864185 C41.1285963,198.111492 40.4789173,201.45534 39.3457124,207.350624 L38.2434282,213.277988 C37.5721367,216.898311 37.0965068,219.539473 36.6511675,222.159371 L36.5952407,222.473182 C36.5026376,222.993622 36.4129311,223.502012 36.3239511,224.01108 L36.2173851,224.623099 C35.7381573,227.385978 35.2548053,230.317013 34.4256329,235.420019 C34.3006521,236.1892 34.2446671,236.533647 34.1789037,236.937157 L33.2779838,242.866207 C32.7485032,246.381382 32.3588294,249.093486 32.0107248,251.740752 C31.7144203,253.853477 31.4807358,255.596654 31.2744357,257.256831 L31.0531499,259.099002 L31.0353124,259.25224 L30.9999579,259.552801 C30.9346972,260.103551 30.863928,260.678284 30.7370686,261.69777 C30.7342584,261.720354 30.7342584,261.720354 30.7314487,261.742934 C30.5711863,263.030887 30.4810366,263.76934 30.4010764,264.468912 L30.361668,264.817823 L30.3420805,264.99428 L30.1901255,266.467321 C30.1154056,267.20578 30.0540241,267.793019 29.9134954,269.12337 C29.9102787,269.153822 29.9078662,269.176661 29.9058559,269.195692 L29.8954052,269.294639 L29.8877705,269.366932 C29.6656085,271.470869 29.5527422,272.581095 29.4399013,273.816999 L28.7978166,281.45504 C28.1425831,289.255561 21.2874484,295.047595 13.4870528,294.392301 C5.80124428,293.746707 0.0454018463,287.059088 0.528482521,279.368283 L1.0290949,271.496569 L1.23048459,268.878349 L1.66513773,263.699785 C1.67655093,263.548497 1.68798825,263.400439 1.69962302,263.253669 L1.73529295,262.815275 C1.82681513,261.71923 1.93919206,260.586292 2.14553953,258.596706 L2.14780765,258.574837 C2.20703015,258.003821 2.23330542,257.749578 2.26511715,257.438533 L2.41852685,255.894892 C2.64257941,253.551566 2.90917666,251.141295 3.2692121,248.130222 C3.30757598,247.785142 3.34583336,247.444894 3.38436497,247.106314 L3.46190668,246.430444 C3.80048301,243.503195 4.17872387,240.542976 4.84448415,235.491374 C4.8772284,235.242938 4.8772284,235.242938 4.90997206,234.994541 C5.05948509,233.860316 5.12824479,233.338034 5.21513284,232.676536 L6.08682778,226.547206 C6.59924749,222.978026 7.02645556,220.107703 7.4587707,217.364495 C7.50620704,217.047089 7.55322722,216.734509 7.6003111,216.423697 L7.69470599,215.803523 C8.1053508,213.118454 8.54480895,210.41292 9.32545095,205.695229 C9.35376844,205.524101 9.35376844,205.524101 9.38208445,205.35299 C9.64936902,203.737812 9.77038436,203.005176 9.92131065,202.086732 C10.7079632,197.492971 11.1672472,194.831478 11.6309074,192.206615 L11.7381346,191.600665 C11.7919381,191.297152 11.8461395,190.992186 11.9012486,190.682854 L12.5842409,186.90176 C12.6217961,186.689914 12.6591126,186.480028 12.6963571,186.271191 L12.8080404,185.646916 C13.2925063,182.947474 13.7929155,180.2714 14.675022,175.61721 C14.7207661,175.375862 14.7207661,175.375862 14.7665081,175.134542 C15.0836822,173.461224 15.2289378,172.693822 15.4083597,171.742135 C16.7382576,164.87712 17.5146916,160.925146 18.3835773,156.649642 C18.4719952,156.205493 18.5590737,155.769738 18.6462478,155.335324 L18.7772602,154.683826 C19.3468462,151.857387 19.9507916,148.938587 20.9832221,143.99035 C21.0263135,143.783825 21.0263135,143.783825 21.0694035,143.577311 C21.2253074,142.830122 21.3160134,142.395333 21.4008378,141.988517 L21.4571671,141.718329 L21.4858987,141.580491 C22.6134044,136.230671 23.671667,131.292291 24.7099117,126.546969 L28.0414296,111.551715 L31.4718583,96.5904358 C33.3233957,88.6360916 35.2226327,80.6712616 37.1707059,72.6902005 L37.4526361,71.5364875 L16.2064436,81.6838819 C10.5616522,84.3796488 3.80099972,81.9889453 1.10491345,76.3434849 C-1.26689911,71.3732591 0.290374244,65.4426034 4.71643266,62.2665645 L53.65554,27.085939 C60.8543007,21.9112287 70.8848863,23.5516096 76.0594571,30.7501762 Z M257.392879,223.479135 C260.235606,223.485989 263.285339,223.540089 267.857664,223.645616 C270.776497,223.712982 271.315683,223.725051 272.55035,223.748834 L272.570328,223.749315 C272.896537,223.758734 273.220468,223.768732 273.543737,223.779365 L274.513172,223.813231 C277.101651,223.908937 279.751159,224.049055 283.289078,224.263273 C283.873135,224.298638 285.870704,224.420997 285.856927,224.420157 C286.857274,224.481193 287.600203,224.525598 288.343731,224.568558 C289.007522,224.61683 289.056996,224.620094 290.806206,224.733328 C292.353982,224.833523 293.227058,224.897428 294.168499,224.986811 L302.00424,225.783034 C302.256656,225.80921 302.5019,225.834993 302.744739,225.86089 L303.470811,225.939435 C304.320603,226.032659 305.199339,226.133521 306.31142,226.263834 L308.266505,226.490715 C309.047548,226.587868 309.501316,226.644338 310.304782,226.744362 C310.74003,226.798563 310.848842,226.812114 310.926175,226.821748 L310.976303,226.827994 L311.003938,226.831438 C317.57183,227.648901 322.233541,233.636225 321.416046,240.204373 C320.712583,245.852076 316.145038,250.193606 310.542464,250.667113 L307.56231,250.91825 L303.013983,251.262064 C302.521756,251.29687 302.037482,251.329712 301.547871,251.361316 L293.556928,251.856526 C291.660447,251.978721 289.985364,252.099291 288.285326,252.23981 L281.075667,252.738051 L276.618458,253.012541 C275.320659,253.096293 274.22898,253.178496 273.139322,253.278278 L264.469434,253.94183 L261.447375,254.15162 C258.838981,254.333346 257.081051,254.47093 255.244821,254.64723 L245.444525,255.465111 C245.141009,255.485526 244.848669,255.505799 244.560201,255.526549 L244.12949,255.558108 C244.057884,255.563454 243.986293,255.568848 243.9146,255.574302 L243.482328,255.607806 C241.741114,255.74527 239.810567,255.927798 236.112854,256.289283 C236.055939,256.294845 236.007154,256.299612 235.964129,256.303816 L235.756112,256.324128 C235.638209,256.335629 235.536556,256.345514 235.299366,256.368581 L224.792203,257.310275 L214.001425,258.415705 L208.572032,258.943692 L203.078568,259.566213 L192.081067,260.773151 L186.571827,261.463603 C184.31411,261.747049 182.671123,261.947022 181.037184,262.133919 C180.750833,262.165288 180.469488,262.196683 180.18927,262.22858 L179.629187,262.293185 C177.666114,262.522626 175.631589,262.792165 172.195448,263.264632 C170.821792,263.453509 170.713508,263.46838 170.147499,263.545416 C169.753925,263.593539 169.362857,263.641941 168.971417,263.690995 L168.187186,263.790081 C165.172525,264.174085 162.023176,264.610957 157.442087,265.268446 C157.387592,265.276267 154.12359,265.745578 153.189518,265.879179 C151.576393,266.109906 150.246542,266.297744 149.005828,266.469262 L135.627796,268.515594 C133.167527,268.895317 131.162654,269.217835 129.259884,269.54397 L120.143201,271.032507 L111.623989,272.53906 L107.64277,273.230893 L103.824318,273.953993 L96.7936833,275.25389 L85.5777894,277.445132 L84.0950721,277.777282 C82.4664036,278.136297 78.3293261,279.000431 78.0277334,279.065918 L75.350868,279.607552 C68.8603953,280.920796 62.535119,276.72392 61.2218855,270.233498 C60.0999426,264.691884 63.0073028,259.154924 68.1667773,256.872747 L70.9638802,255.724023 L74.8199737,254.180998 C75.9726504,253.722065 77.0401314,253.304754 78.1836194,252.869434 L84.5838022,250.607003 C86.4915341,249.937695 88.1916121,249.355045 89.9247365,248.781253 L97.0746802,246.54081 L100.999344,245.329563 L105.086575,244.176208 L113.800543,241.769816 L114.491334,241.59223 C115.069122,241.444258 115.655254,241.295559 116.272393,241.14038 L117.029294,240.950688 C118.320435,240.628123 119.771864,240.27044 121.564885,239.83162 L128.0865,238.244188 L133.110699,237.147486 C133.685398,237.024487 134.286893,236.893942 135.018775,236.733715 L135.233469,236.686659 C135.791654,236.564234 136.875682,236.32607 136.950149,236.309733 C139.525078,235.744814 141.208813,235.38759 142.888832,235.060288 L143.520399,234.938605 L149.936862,233.70857 C150.717797,233.559492 151.427061,233.425162 152.113305,233.29656 L154.278649,232.896312 C155.459056,232.67082 156.6835,232.451764 157.986276,232.231926 L165.383358,231.012422 C166.430309,230.837674 167.442594,230.672875 168.461714,230.511821 L169.142595,230.404939 C173.467023,229.730671 178.077698,229.098607 186.098361,228.041881 L186.552433,227.982056 C187.095898,227.91045 187.414283,227.868478 187.780833,227.820114 C187.939046,227.799237 187.939046,227.799237 188.123681,227.775034 C190.858624,227.44952 193.695287,227.131212 196.712459,226.809539 L205.288118,225.908201 L210.958043,225.439988 L222.190748,224.570101 L233.113392,224.017944 C233.917592,223.974359 234.690684,223.935503 235.45862,223.900488 L236.116195,223.871395 C239.842156,223.711633 243.62145,223.636524 250.428118,223.544464 C252.06593,223.522312 252.936053,223.509998 253.917938,223.494498 C254.707082,223.48595 255.471593,223.480801 256.238157,223.479135 L257.392879,223.479135 Z M158.808885,14.1108018 L159.639796,14.236715 L160.392027,14.3600273 L161.090518,14.508897 L162.223248,14.7933802 L163.443088,15.0933013 C163.916239,15.2283931 164.420285,15.3874931 165.295437,15.6728176 L167.048214,16.2725389 C167.322415,16.3639394 167.570545,16.4610534 167.850426,16.5832426 L168.780534,16.9963198 L169.755972,17.4364384 C170.684171,17.8540819 171.26559,18.1407684 171.785354,18.4550601 C175.572158,20.4979899 179.00737,23.0450947 181.952604,25.9517012 C184.767907,28.7345835 187.225795,31.6417188 189.283227,34.6285271 C191.470922,37.8263005 193.225995,40.7195669 194.605365,43.4655292 C194.842138,43.9061127 195.065737,44.3320711 195.283731,44.7590387 L195.543119,45.2728847 C196.444951,47.0800451 197.301338,49.0153209 198.673131,52.2370188 C200.858755,57.6793494 202.644133,63.1989257 204.105511,68.8838365 C205.428135,73.9761183 206.427191,79.0581128 207.130968,84.1063211 C207.264738,84.954223 207.383018,85.8281764 207.502382,86.8266123 L207.604056,87.7037266 C207.637707,88.0102767 207.670121,88.2840877 207.732912,88.8001247 C207.839153,89.6732416 207.896666,90.1664467 207.939229,90.6141865 L207.963243,90.8800501 C207.970829,90.9686364 207.978088,91.0580797 207.98529,91.1510556 L208.163812,93.3479085 C208.308524,95.1613068 208.390283,96.4262736 208.430529,97.6325764 C208.619227,101.289586 208.623239,104.75097 208.497932,109.12228 C208.269829,114.919696 207.772189,119.769206 206.997229,125.092271 L206.062534,130.642086 L205.990564,131.00747 C205.759107,132.101616 205.408508,133.758615 204.935388,135.991654 L204.209016,139.081323 L203.763604,140.901747 L203.264662,142.723992 C202.52238,145.518327 201.642169,148.464684 200.614354,151.548736 L200.168219,152.864502 C197.626639,160.25964 194.613981,167.342021 190.776747,174.506502 C185.444594,184.444516 179.265938,193.30156 171.534063,201.443772 C166.779248,206.37315 161.743588,210.587627 156.137373,214.16072 C153.035507,216.127701 149.656956,217.825155 146.09229,219.193951 C142.438953,220.607335 138.674634,221.549063 134.877764,221.941291 L134.132,222.011 L133.964485,222.034063 C133.603899,222.07638 133.229321,222.104224 132.801797,222.123058 L132.470617,222.13558 L130.978941,222.169457 C130.15998,222.208428 129.354955,222.183653 128.243397,222.10518 L126.565457,221.97851 C126.361557,221.961467 126.176238,221.944043 125.996508,221.924606 L125.887429,221.909881 L124.3147,221.654893 L122.703692,221.37442 L122.11474,221.253572 L121.986984,221.223125 L119.82422,220.634879 L119.429722,220.521709 L118.149812,220.094963 L117.304092,219.803592 C116.168281,219.407667 115.393447,219.104696 114.712716,218.764611 L114.771436,218.793207 L114.186142,218.535061 C112.703439,217.864683 111.220329,217.076283 109.675762,216.150799 L109.009863,215.745714 C105.347866,213.454404 102.023637,210.724508 99.185425,207.68062 C96.5127773,204.866786 94.0843845,201.697209 91.7096919,198.020341 C87.6956012,191.730485 84.5010626,184.721118 81.7884334,176.625332 C79.3602895,169.257628 77.5968342,161.636161 76.5201854,153.89076 C75.9840822,150.278972 75.6035361,146.493492 75.3216495,142.208795 C75.0953202,137.718796 75.0206818,134.033673 75.1216671,130.493519 L75.197981,127.532681 L75.3633621,124.670555 C75.4226434,123.360439 75.5231437,122.061013 75.693716,120.24123 C75.7241475,119.916566 75.7478827,119.66786 75.8052395,119.070258 C75.818407,118.933062 75.818407,118.933062 75.8301645,118.811011 C75.9382774,117.58989 76.0735248,116.419885 76.3036954,114.622082 C76.329079,114.423817 76.3497977,114.262812 76.3959536,113.904723 C76.4208618,113.711469 76.440149,113.561702 76.4568891,113.431502 L76.4878839,113.190101 C76.4976906,113.113605 76.507276,113.038718 76.5175508,112.95835 L76.6559946,111.967157 L76.9560829,110.05723 L77.4527545,106.953007 L78.3500834,102.312918 C78.3755769,102.186561 78.4010255,102.063659 78.4300818,101.927518 L79.1551604,98.6344925 C79.3292463,97.8351182 79.4518056,97.2886716 79.5769386,96.7689017 L79.6721162,96.3805411 L80.581595,92.8689861 C80.7170244,92.3543545 80.8420186,91.889789 80.9709387,91.4247325 L82.1926139,87.1826084 L83.0855977,84.4228097 C85.546125,76.8368725 88.5368893,69.5752258 92.0435286,62.7266364 C93.6137034,59.5776595 95.4081203,56.4198753 97.8428456,52.4307501 C100.299306,48.5907653 102.389482,45.5569905 104.580349,42.7294847 C109.77264,35.9766346 115.30134,30.2734332 121.456713,25.520882 C124.941544,22.8374273 128.47531,20.5829703 132.161674,18.7469574 C136.223587,16.7243166 140.488844,15.2466381 144.843073,14.4083916 C149.509371,13.5239609 154.29384,13.4058645 158.808885,14.1108018 Z M150.655139,39.6098258 L150.166637,39.7268656 C146.715622,40.5233492 142.749719,42.8857936 138.715522,46.465179 C135.000851,49.8359111 131.415296,54.2272387 128.071541,59.4158663 C124.952526,64.279813 122.106799,69.7395216 119.532231,75.7373845 C119.459439,75.9020893 119.387962,76.0649272 119.31742,76.226829 L119.108221,76.7106569 C118.245085,78.7226606 117.468765,80.7338183 116.037878,84.561893 C115.960899,84.7853475 115.960899,84.7853475 115.88396,85.0086899 C114.698421,88.4503461 114.026983,90.4593442 113.431697,92.429117 L113.270905,92.9664022 C113.191125,93.2356054 113.11202,93.5064347 113.03248,93.7824235 L112.348879,96.1055902 L111.690526,98.5136911 C111.493037,99.2000041 111.301992,99.924752 111.078414,100.822584 L110.48521,103.241231 C110.289394,104.016164 110.111145,104.770916 109.93935,105.551078 L109.401933,107.900416 C109.366106,108.046639 109.327441,108.219959 109.288391,108.406899 L108.376528,112.982972 L107.969095,115.235531 L107.931731,115.447398 C107.900035,115.624518 107.86432,115.817616 107.804911,116.135922 C107.803579,116.143058 107.803579,116.143058 107.802248,116.15019 C107.691436,116.743912 107.631409,117.0775 107.58297,117.384846 L107.5482,117.61409 C107.459453,118.250017 107.378734,118.750765 107.191234,119.863886 C107.183069,119.912356 107.183069,119.912356 107.174919,119.96075 C106.969083,121.183131 106.873756,121.791888 106.783234,122.518194 C106.334012,125.750432 106.069133,127.767172 105.849693,129.737392 L105.785085,130.328231 L105.753543,130.624796 L105.591349,132.267015 C104.912013,139.00645 104.5906,145.439015 104.651051,151.611353 C104.662475,154.434904 104.803321,157.312855 105.079717,161.032598 C105.437542,164.742681 105.798569,167.549229 106.295726,170.196336 C106.918648,173.5569 107.579689,176.323316 108.398376,178.829678 C109.447377,182.112119 110.378587,184.534102 111.477818,186.673935 C114.05657,191.821773 117.10696,195.710117 120.406471,197.876599 C121.336716,198.477991 122.197401,198.93175 123.019071,199.245044 L123.185537,199.316976 C123.338097,199.39095 123.410309,199.414582 123.724121,199.497909 C123.808841,199.520471 123.808841,199.520471 123.90862,199.548282 C123.971799,199.566414 123.971799,199.566414 124.096976,199.605414 L124.551729,199.759489 L124.685662,199.787723 L126.223916,200.084647 L126.317009,200.09318 C126.347036,200.097757 126.372059,200.101572 126.393312,200.104833 L126.417356,200.108567 L127.126999,200.147472 L127.811996,200.199047 L127.851885,200.199047 C127.900141,200.199047 127.944904,200.195821 128.02149,200.192125 L128.109991,200.187745 C128.291759,200.178602 128.374637,200.174947 128.48913,200.172069 L129.093475,200.157296 C129.370709,200.147845 129.559806,200.130991 129.779662,200.09087 C129.975163,200.060289 130.116347,200.043547 130.42084,200.011261 C130.550756,199.997467 130.600018,199.992079 130.663064,199.984568 C130.859097,199.961211 130.982587,199.939035 131.078819,199.911309 L131.268417,199.866186 C134.721652,199.213577 138.39541,197.257701 142.092395,194.25369 C144.054758,192.605655 145.596206,191.136125 146.976004,189.542918 C148.291538,188.110687 149.502434,186.589486 151.24355,184.250236 C153.735356,180.77832 156.00415,176.993531 158.122918,172.869603 C158.246372,172.619752 158.373051,172.367822 158.539802,172.039404 C158.666341,171.790478 158.666341,171.790478 158.791026,171.545401 C158.889172,171.352333 158.963849,171.204863 159.035631,171.062126 C159.241715,170.652337 159.406474,170.315657 159.554047,170.000534 L160.867127,167.173403 L162.086006,164.316246 C162.182896,164.089286 162.282271,163.849091 162.391805,163.578057 C162.458211,163.413739 162.526862,163.241853 162.61117,163.029214 C162.65317,162.923285 162.72116,162.751338 162.832246,162.470545 C162.984073,162.087318 163.094175,161.813074 163.192776,161.574562 C164.673748,157.792753 165.894677,154.360708 166.880743,151.179776 C167.042156,150.688224 167.189603,150.232019 167.331242,149.783872 L167.471249,149.3374 C168.025949,147.554171 168.531255,145.754325 169.509378,142.191366 L170.071912,139.982448 C170.610608,137.847218 170.999383,136.227145 171.31451,134.779121 L171.660537,133.258728 L171.94356,131.841195 L172.440948,129.476575 L173.323436,124.681527 L173.331096,124.625534 C173.390597,124.26526 173.394564,124.241241 173.530777,123.416271 L173.562058,123.226817 C173.779456,121.909973 173.893923,121.216516 174.087997,120.042935 L174.598936,116.526015 C175.024571,113.550017 175.36121,110.947182 175.668089,108.127366 L175.799763,106.883821 C176.573252,99.3674583 176.97414,93.2140737 176.991162,86.4725109 C176.996916,82.2635054 176.795021,78.1697608 176.352645,74.1346622 C175.834266,69.4676946 175.014708,65.1495099 173.817911,61.0951028 C172.460188,56.5326793 170.619436,52.3669144 168.34919,48.8734101 C167.181691,47.085088 165.85359,45.4635039 164.394781,44.0389832 C162.965729,42.6295169 161.486835,41.5379481 159.994638,40.7971544 L159.800289,40.6872946 C159.721642,40.6370857 159.613225,40.58705 159.332552,40.4747105 L159.299235,40.4613821 C159.195134,40.4197493 159.142694,40.3986023 159.031311,40.3519642 L158.405676,40.0744075 L158.312241,40.0499754 C158.205681,40.0198661 158.104435,39.988704 158.016167,39.9590756 L157.894457,39.9161066 C157.776831,39.8772434 157.67876,39.8389127 157.567915,39.7912872 C157.542754,39.7804768 157.522687,39.7718378 157.506567,39.7648978 L157.481116,39.7530475 L156.48234,39.5341259 L155.841036,39.3952875 L155.682546,39.384306 L155.288457,39.3480551 C153.755847,39.1774999 152.22196,39.2594935 150.655139,39.6098258 Z M291.769507,0.434846476 L293.226244,0.662629405 C293.322464,0.68136811 293.548351,0.728570847 293.766048,0.774988895 C293.816412,0.785758596 293.84663,0.792220417 293.870234,0.797306345 L293.934733,0.811368437 L293.977471,0.820801201 C293.982908,0.820973349 293.984461,0.821022534 294.066936,0.844962349 L294.121516,0.862247486 L294.982606,1.07907987 L296.100287,1.3550942 C296.557112,1.4854218 297.108247,1.65847915 297.843901,1.89852303 L298.708362,2.18842261 L299.515117,2.47063989 C299.776063,2.55805345 300.011154,2.65017527 300.277397,2.76622921 L301.151808,3.15394996 L302.255463,3.65278106 C302.997412,3.99052961 303.530116,4.25752773 303.973831,4.52540042 C307.527489,6.44543205 310.746894,8.83296093 313.502645,11.5522975 C316.129351,14.1503048 318.421126,16.8585758 320.338723,19.6364565 C322.374239,22.6050196 324.007008,25.2867063 325.289201,27.8251743 C325.302641,27.8500802 325.31272,27.8687597 325.321114,27.8843252 L325.364639,27.9652512 L325.396341,28.0243767 C325.608497,28.420765 325.808149,28.8019682 326.002664,29.1832323 L326.234086,29.6417543 C327.038732,31.2535136 327.80472,32.9739227 329.07777,35.9325217 C331.116131,40.957155 332.78791,46.0447467 334.162655,51.2760539 C335.409563,55.9683838 336.357421,60.6502106 337.031279,65.2950839 C337.158843,66.0755686 337.272058,66.879404 337.387781,67.8040176 L337.486024,68.6118227 C337.518377,68.8927277 337.5496,69.1448638 337.609612,69.616756 C337.753372,70.7471833 337.804669,71.1859616 337.854539,71.7884166 L338.028781,73.809198 C338.132056,75.027013 338.199518,75.9290446 338.249375,76.8219516 L338.293579,77.7561356 C338.482575,81.1250576 338.497632,84.31196 338.394441,88.3443432 C338.197409,93.6915566 337.742787,98.1796033 337.032565,103.057305 L336.165947,108.19402 L335.130521,113.078044 L334.457697,115.929458 L334.04345,117.611753 L333.579462,119.296325 L333.249324,120.505171 C332.630566,122.727121 331.925474,125.026253 331.124102,127.407496 L330.695906,128.659746 C328.344896,135.438364 325.547456,141.945927 321.985325,148.525586 C317.026275,157.663892 311.284234,165.806517 304.096511,173.298588 C299.680074,177.832579 294.993515,181.716534 289.768366,185.019082 C286.869731,186.840506 283.716939,188.410036 280.393436,189.671817 C276.971627,190.981776 273.448358,191.852215 269.894451,192.209465 L269.219,192.271 L269.0467,192.293211 C268.628423,192.341394 268.199934,192.368234 267.674559,192.384415 L267.347014,192.39293 L266.24432,192.414244 C265.474261,192.448209 264.717417,192.423259 263.677982,192.348196 L263.084947,192.303173 C262.979251,192.294603 262.895067,192.288089 262.698338,192.27311 C262.654158,192.269746 262.654158,192.269746 262.609643,192.26635 C262.144918,192.230859 261.873586,192.20741 261.568461,192.173456 L261.461234,192.158691 L259.988933,191.91662 L258.473912,191.649209 C258.36888,191.628264 258.217451,191.597543 258.101246,191.573539 C258.009372,191.554488 258.009372,191.554488 257.932021,191.537955 C257.89566,191.530058 257.89566,191.530058 257.839191,191.516762 C257.82502,191.514093 257.816923,191.512569 257.79453,191.50584 L257.773091,191.498749 L255.540315,190.881405 L255.437229,190.850006 L254.229288,190.447478 L253.43203,190.172256 C252.476078,189.837842 251.781032,189.569224 251.184635,189.285578 L251.017,189.204 L250.50259,188.977974 C249.116169,188.350213 247.729749,187.612955 246.283159,186.746954 L245.659333,186.367873 C242.232119,184.226055 239.126785,181.687147 236.48179,178.865071 C233.992703,176.260179 231.733231,173.330298 229.509107,169.916792 C225.772996,164.111717 222.795523,157.657429 220.243692,150.181036 C217.963897,143.385254 216.29946,136.367811 215.273109,129.246601 C214.20141,122.21728 213.744424,115.007412 213.892151,107.705291 L213.954478,104.97661 L214.099542,102.348168 C214.154029,101.070861 214.249209,99.8276611 214.419014,97.9996663 C214.442283,97.7491691 214.461307,97.5469498 214.50387,97.0963603 C214.511392,97.0167169 214.511392,97.0167169 214.517577,96.951756 C214.619213,95.7872547 214.747281,94.6673724 214.963584,92.9631888 L214.988199,92.7695815 C215.005054,92.6372548 215.024263,92.4868983 215.054631,92.2493948 C215.097102,91.9172095 215.097102,91.9172095 215.138269,91.5938441 C215.144544,91.5428901 215.150785,91.4930726 215.157077,91.4437967 L215.196098,91.1498832 C215.243887,90.8034648 215.302323,90.4252999 215.40004,89.8113807 C215.472018,89.359169 215.503251,89.159647 215.542978,88.8931222 L216.000444,86.0188159 L216.696652,82.4099235 C216.72382,82.2666979 216.747296,82.1439622 216.768984,82.0324478 L216.830591,81.7223003 C216.85061,81.6239601 216.870745,81.5275728 216.892902,81.4238699 L217.561019,78.3882923 C217.764469,77.4536255 217.888728,76.9056479 218.038762,76.3045107 L218.876505,73.0765353 C219.001343,72.6032346 219.116706,72.1754414 219.236152,71.7455341 L220.363314,67.83977 L221.187096,65.3028741 C223.45761,58.325929 226.224645,51.642153 229.473214,45.3353858 C230.927413,42.4362931 232.589105,39.5309391 234.848623,35.8531711 C237.122715,32.3222551 239.061992,29.5262203 241.095258,26.9179776 C245.917877,20.6864959 251.048824,15.4246743 256.772379,11.0286084 C260.020739,8.53902397 263.315336,6.44721972 266.756262,4.74255387 C270.558816,2.85957376 274.55382,1.48270052 278.637091,0.701058953 C283.024682,-0.12408661 287.525325,-0.231216749 291.769507,0.434846476 Z M284.017269,26.0065264 L283.966951,26.0190061 C281.035408,26.7074143 277.573242,28.8006451 274.038409,31.9684922 C270.751966,34.9851475 267.562007,38.9367316 264.590465,43.6011302 C261.813281,47.9820196 259.27312,52.9116288 256.964175,58.343703 C256.865753,58.5685866 256.769876,58.7900197 256.675355,59.0109372 L256.487772,59.4529545 L256.301697,59.8988148 C255.650611,61.4721386 254.988469,63.2119562 253.908142,66.1249866 C253.86275,66.2473864 253.86275,66.2473864 253.835912,66.3176336 C253.721642,66.6528061 253.721642,66.6528061 253.607455,66.9876284 C252.347294,70.6831347 251.757426,72.489808 251.134946,74.6614638 L250.520031,76.7626523 L249.924817,78.9458283 C249.747511,79.5627917 249.576205,80.2146258 249.374312,81.0282793 L248.838782,83.2172783 C248.654738,83.9505561 248.49436,84.6283692 248.345706,85.3036903 L247.858754,87.4263682 C247.827617,87.5525991 247.793392,87.7056578 247.758291,87.8732745 L246.924691,92.0480527 L246.556507,94.0702937 L246.522354,94.2623688 C246.493396,94.4228465 246.460804,94.5975374 246.406632,94.8852559 C246.405132,94.8932241 246.405132,94.8932241 246.403633,94.9011853 C246.333884,95.2716464 246.286272,95.5298682 246.249062,95.7453863 L246.208651,95.9879605 C246.196345,96.0649529 246.184952,96.1395629 246.173721,96.2162409 L246.153264,96.360345 L246.111761,96.6424303 C246.047808,97.0665788 245.97289,97.5167487 245.842139,98.2822381 C245.83135,98.3454068 245.83135,98.3454068 245.820592,98.4084141 C245.640277,99.4648142 245.553047,100.015417 245.47169,100.658738 C244.87115,104.910557 244.599618,107.011005 244.362529,109.479243 C243.719931,115.592932 243.393118,121.405134 243.403025,126.972179 C243.395883,129.52106 243.502666,132.116101 243.724509,135.48286 C244.020139,138.833901 244.325018,141.369169 244.752888,143.757834 C245.286191,146.780952 245.861446,149.277556 246.579735,151.533901 C247.503936,154.503823 248.316216,156.667933 249.28086,158.575982 C251.538984,163.16367 254.210166,166.618129 257.058878,168.498755 C257.857123,169.016866 258.592381,169.404045 259.288707,169.666437 L259.462096,169.740922 C259.569618,169.79301 259.604886,169.804262 259.839237,169.863137 C259.914255,169.882048 259.914255,169.882048 260.007484,169.906941 C260.068605,169.923872 260.068605,169.923872 260.206089,169.966277 L260.546156,170.081687 L261.997996,170.359367 L262.032401,170.361959 C262.073748,170.364761 262.090671,170.366424 262.111368,170.369247 L262.134366,170.372542 C262.151948,170.375147 262.165135,170.377101 262.175543,170.378659 L262.186236,170.380167 L262.788637,170.40677 L263.349996,170.443607 L263.942939,170.415648 L264.466862,170.397871 C264.694418,170.388066 264.843449,170.373265 265.025838,170.337807 C265.206837,170.307302 265.33591,170.290798 265.61057,170.259397 C265.684674,170.250921 265.684674,170.250921 265.750994,170.243077 C265.947469,170.219467 266.051073,170.200879 266.125003,170.178641 L266.318289,170.130461 C269.284071,169.540423 272.488083,167.792047 275.714868,165.119605 C277.450332,163.635242 278.805782,162.319211 280.02465,160.884206 C281.185304,159.596783 282.254434,158.22841 283.800985,156.112708 C286.010935,152.975428 288.023766,149.552068 289.908335,145.80921 L290.778204,144.051991 C290.930147,143.742209 291.057804,143.475032 291.171262,143.228229 L292.335515,140.670759 L293.417415,138.079588 C293.502604,137.875623 293.590102,137.659611 293.686769,137.415448 C293.784615,137.168305 293.878124,136.927741 294.071984,136.4273 C294.210742,136.070064 294.310697,135.816172 294.399415,135.597568 C295.723116,132.147697 296.804904,129.049922 297.676667,126.183244 C297.819439,125.741282 297.948116,125.33726 298.070993,124.942852 L298.192245,124.550599 C298.671979,122.986013 299.103164,121.424178 300.016667,118.052248 L300.566374,115.857723 C301.031526,113.984094 301.360393,112.594688 301.629838,111.341397 L301.93859,109.970903 L302.1908,108.688297 L302.634229,106.563411 L303.463615,102.008034 C303.583957,101.277222 303.829992,99.7843987 304.122798,98.0110361 L304.629362,94.5380325 C305.026569,91.7717388 305.341957,89.3454067 305.629538,86.7237149 L305.833741,84.8004178 C306.472835,78.6143406 306.82928,73.3153344 306.892266,67.6593916 C306.928473,63.8545784 306.777579,60.1610471 306.410182,56.5245186 C305.978268,52.315491 305.271055,48.4279148 304.22065,44.7884646 C303.038788,40.7181792 301.409474,36.9875008 299.40319,33.8837086 C298.376326,32.304688 297.214687,30.8825974 295.94458,29.643708 C294.707476,28.4238873 293.44495,27.4922894 292.189353,26.8745332 C292.118156,26.8395042 292.049021,26.8004297 291.982289,26.7575016 C291.942953,26.7321977 291.868369,26.6976785 291.672239,26.6202291 C291.645361,26.609627 291.645361,26.609627 291.616864,26.5984091 C291.525303,26.5623638 291.525303,26.5623638 291.366332,26.4971529 L290.866316,26.2746475 L290.831372,26.2667142 C290.733416,26.2405124 290.640309,26.2126491 290.559969,26.1859612 L290.450026,26.1471654 C290.327975,26.1064816 290.227485,26.0655422 290.118982,26.0159196 L289.245872,25.8232567 L288.715596,25.7099275 L288.261171,25.6745528 C286.855882,25.5260887 285.462226,25.6289772 284.017269,26.0065264 Z" id="Combined-Shape"></path>
                </g>
                <g id="Layer_3" transform="translate(77.1581, 15.7335)"></g>
                <g id="Layer_4" transform="translate(215.945, 2.0801)"></g>
                <g id="Layer_5" transform="translate(63.0618, 225.5602)"></g>
                <g id="Layer_6" transform="translate(7.0767, 276.6402)"></g>
            </g>
        </g>
    </g>
</svg>