<svg xmlns="http://www.w3.org/2000/svg" xmlns:xlink="http://www.w3.org/1999/xlink" width="27" height="27" viewBox="0 0 27 27"><defs><filter id="b" width="116.7%" height="116.7%" x="-8.3%" y="-6.7%" filterUnits="objectBoundingBox"><feMorphology in="SourceAlpha" operator="dilate" radius=".6" result="shadowSpreadOuter1"/><feOffset dy=".4" in="shadowSpreadOuter1" result="shadowOffsetOuter1"/><feGaussianBlur in="shadowOffsetOuter1" result="shadowBlurOuter1" stdDeviation=".4"/><feComposite in="shadowBlurOuter1" in2="SourceAlpha" operator="out" result="shadowBlurOuter1"/><feColorMatrix in="shadowBlurOuter1" values="0 0 0 0 0 0 0 0 0 0 0 0 0 0 0 0 0 0 0.06 0"/></filter><path id="a" d="M7.6916556,-2.07168062e-16 L16.3083444,3.10752092e-16 C18.9829006,-1.80555915e-16 19.9527593,0.278476833 20.9305371,0.801398111 C21.9083149,1.32431939 22.6756806,2.09168511 23.1986019,3.06946289 C23.7215232,4.04724067 24,5.01709938 24,7.6916556 L24,16.3083444 C24,18.9829006 23.7215232,19.9527593 23.1986019,20.9305371 C22.6756806,21.9083149 21.9083149,22.6756806 20.9305371,23.1986019 C19.9527593,23.7215232 18.9829006,24 16.3083444,24 L7.6916556,24 C5.01709938,24 4.04724067,23.7215232 3.06946289,23.1986019 C2.09168511,22.6756806 1.32431939,21.9083149 0.801398111,20.9305371 C0.278476833,19.9527593 6.01853049e-17,18.9829006 -1.03584031e-16,16.3083444 L2.07168062e-16,7.6916556 C-1.2037061e-16,5.01709938 0.278476833,4.04724067 0.801398111,3.06946289 C1.32431939,2.09168511 2.09168511,1.32431939 3.06946289,0.801398111 C4.04724067,0.278476833 5.01709938,1.2037061e-16 7.6916556,-2.07168062e-16 Z"/></defs><g fill="none" fill-rule="evenodd" transform="translate(1.5 1)"><use xlink:href="#a" fill="#000" filter="url(#b)"/><path fill="#3C3735" stroke="#4C4744" stroke-width=".6" d="M16.3083444,-0.3 C19.0678598,-0.3 20.0643104,-0.00207310579 21.0720168,0.536854152 C22.1028484,1.08814893 22.9118511,1.89715162 23.4631458,2.92798323 C24.0020731,3.93568959 24.3,4.93214021 24.3,7.6916556 L24.3,16.3083444 C24.3,19.0678598 24.0020731,20.0643104 23.4631458,21.0720168 C22.9118511,22.1028484 22.1028484,22.9118511 21.0720168,23.4631458 C20.0643104,24.0020731 19.0678598,24.3 16.3083444,24.3 L7.6916556,24.3 C4.93214021,24.3 3.93568959,24.0020731 2.92798323,23.4631458 C1.89715162,22.9118511 1.08814893,22.1028484 0.536854152,21.0720168 C-0.00207310579,20.0643104 -0.3,19.0678598 -0.3,16.3083444 L-0.3,7.6916556 C-0.3,4.93214021 -0.00207310579,3.93568959 0.536854152,2.92798323 C1.08814893,1.89715162 1.89715162,1.08814893 2.92798323,0.536854152 C3.93568959,-0.00207310579 4.93214021,-0.3 7.6916556,-0.3 L16.3083444,-0.3 Z"/><path fill="#DFD1D7" fill-rule="nonzero" d="M10.2221824,6.83209218 C10.8677635,6.18905998 11.9117565,6.18905998 12.5573376,6.83209218 L12.545,6.821 L12.5582391,6.83299278 L13.0021981,7.27567238 C13.312596,7.58492119 13.4870726,8.00504286 13.4870726,8.4432 C13.4870726,8.88135714 13.312596,9.30147881 13.0069468,9.60595002 L10.6742141,11.9758326 C10.3922546,12.2571349 10.0316515,12.4463657 9.66088502,12.5143757 L8.22151517,12.8259971 C7.88579515,12.9003469 7.53531247,12.7987876 7.29135481,12.5564645 C7.04739714,12.3141413 6.94348389,11.9643493 7.01562266,11.6279157 L7.31912318,10.2159631 C7.39207244,9.82460017 7.58225169,9.46463622 7.86411986,9.18375368 L10.2221824,6.83209218 Z M3.16416,-0.69 C4.19440781,-0.69 4.45232561,-0.672623527 4.84957429,-0.52384996 C5.65252831,-0.222828505 6.01845417,0.249007565 6.55040753,1.31690031 C6.55916501,1.33449038 6.56500333,1.3462171 6.56985461,1.35595848 L6.60732072,1.43111055 L6.61213217,1.4407375 L6.826,1.869 L9.44,1.87 C11.214229,1.87 11.6958667,1.91082523 12.2504499,2.25841853 L12.3303197,2.31019029 C12.615029,2.50049605 12.859504,2.74497102 13.0497401,3.02957624 C13.4098093,3.56805076 13.4835745,4.10123765 13.4893601,5.43701486 C13.4910022,5.81808777 13.1834181,6.1283449 12.8023451,6.12999354 C12.4212722,6.13164219 12.1110151,5.82405805 12.1093665,5.44298514 C12.1048043,4.38847648 12.0543234,4.02359252 11.9025103,3.79655971 C11.812826,3.66238637 11.6976136,3.54717403 11.5634376,3.45748794 C11.3070853,3.28613486 10.9521639,3.25 9.44,3.25 L3.2,3.25 C2.81892352,3.25 2.51,2.94107648 2.51,2.56 C2.51,2.17892352 2.81892352,1.87 3.2,1.87 L5.283,1.869 L5.22987591,1.76365191 C4.92788931,1.17761924 4.73807943,0.936532804 4.44732276,0.802492391 L4.36536255,0.76841121 C4.21592514,0.712445436 4.05152711,0.694812753 3.48356845,0.690917002 L2.94430104,0.690298346 C1.82473378,0.693560893 1.53751131,0.724848419 1.32052805,0.845748047 C1.12129881,0.956913411 0.956913411,1.12129881 0.845951167,1.32016376 C0.717292192,1.55107276 0.69,1.86091096 0.69,3.16416 L0.690310511,5.43439514 C0.697056181,8.70916307 0.817561289,9.48719393 1.42486368,10.0944963 C1.99410446,10.6637371 2.85828415,10.8176452 5.44,10.82872 L5.76,10.82872 C6.14107648,10.82872 6.45,11.1376435 6.45,11.51872 C6.45,11.8997965 6.14107648,12.20872 5.76,12.20872 L5.43704183,12.20872 C2.47184029,12.1960011 1.38036488,12.0016122 0.449056321,11.0703037 C-0.564343089,10.0569043 -0.69,9.12203058 -0.69,5.12 L-0.69,3.16416 C-0.69,1.56180904 -0.656492192,1.18140724 -0.359348047,0.648111953 C-0.123460568,0.225357231 0.225357231,-0.123460568 0.648476241,-0.359551167 C1.18140724,-0.656492192 1.56180904,-0.69 3.16416,-0.69 Z M11.5250164,7.76537654 C11.420471,7.70610305 11.2853602,7.7208778 11.1963601,7.80952632 L8.83840846,10.1610774 C8.75417198,10.2450194 8.69747172,10.3523394 8.67205734,10.4872843 L8.485,11.356 L9.38979589,11.1614324 C9.47777643,11.1452145 9.56052039,11.1092813 9.63015708,11.0586605 L9.69513317,11.00333 L12.0282019,8.63311238 C12.0786919,8.58280935 12.1070726,8.51447152 12.1070726,8.4432 C12.1070726,8.37192848 12.0786919,8.30359065 12.0280009,8.25308722 L11.5838409,7.81020722 L11.5250164,7.76537654 Z" transform="translate(5.6 5.92)"/></g></svg>