<svg xmlns="http://www.w3.org/2000/svg" xmlns:xlink="http://www.w3.org/1999/xlink" width="27" height="27" viewBox="0 0 27 27"><defs><filter id="b" width="116.7%" height="116.7%" x="-8.3%" y="-6.7%" filterUnits="objectBoundingBox"><feMorphology in="SourceAlpha" operator="dilate" radius=".6" result="shadowSpreadOuter1"/><feOffset dy=".4" in="shadowSpreadOuter1" result="shadowOffsetOuter1"/><feGaussianBlur in="shadowOffsetOuter1" result="shadowBlurOuter1" stdDeviation=".4"/><feComposite in="shadowBlurOuter1" in2="SourceAlpha" operator="out" result="shadowBlurOuter1"/><feColorMatrix in="shadowBlurOuter1" values="0 0 0 0 0 0 0 0 0 0 0 0 0 0 0 0 0 0 0.06 0"/></filter><path id="a" d="M7.6916556,-2.07168062e-16 L16.3083444,3.10752092e-16 C18.9829006,-1.80555915e-16 19.9527593,0.278476833 20.9305371,0.801398111 C21.9083149,1.32431939 22.6756806,2.09168511 23.1986019,3.06946289 C23.7215232,4.04724067 24,5.01709938 24,7.6916556 L24,16.3083444 C24,18.9829006 23.7215232,19.9527593 23.1986019,20.9305371 C22.6756806,21.9083149 21.9083149,22.6756806 20.9305371,23.1986019 C19.9527593,23.7215232 18.9829006,24 16.3083444,24 L7.6916556,24 C5.01709938,24 4.04724067,23.7215232 3.06946289,23.1986019 C2.09168511,22.6756806 1.32431939,21.9083149 0.801398111,20.9305371 C0.278476833,19.9527593 6.01853049e-17,18.9829006 -1.03584031e-16,16.3083444 L2.07168062e-16,7.6916556 C-1.2037061e-16,5.01709938 0.278476833,4.04724067 0.801398111,3.06946289 C1.32431939,2.09168511 2.09168511,1.32431939 3.06946289,0.801398111 C4.04724067,0.278476833 5.01709938,1.2037061e-16 7.6916556,-2.07168062e-16 Z"/></defs><g fill="none" fill-rule="evenodd" transform="translate(1.5 1)"><use xlink:href="#a" fill="#000" filter="url(#b)"/><path fill="#3C3735" stroke="#4C4744" stroke-width=".6" d="M16.3083444,-0.3 C19.0678598,-0.3 20.0643104,-0.00207310579 21.0720168,0.536854152 C22.1028484,1.08814893 22.9118511,1.89715162 23.4631458,2.92798323 C24.0020731,3.93568959 24.3,4.93214021 24.3,7.6916556 L24.3,16.3083444 C24.3,19.0678598 24.0020731,20.0643104 23.4631458,21.0720168 C22.9118511,22.1028484 22.1028484,22.9118511 21.0720168,23.4631458 C20.0643104,24.0020731 19.0678598,24.3 16.3083444,24.3 L7.6916556,24.3 C4.93214021,24.3 3.93568959,24.0020731 2.92798323,23.4631458 C1.89715162,22.9118511 1.08814893,22.1028484 0.536854152,21.0720168 C-0.00207310579,20.0643104 -0.3,19.0678598 -0.3,16.3083444 L-0.3,7.6916556 C-0.3,4.93214021 -0.00207310579,3.93568959 0.536854152,2.92798323 C1.08814893,1.89715162 1.89715162,1.08814893 2.92798323,0.536854152 C3.93568959,-0.00207310579 4.93214021,-0.3 7.6916556,-0.3 L16.3083444,-0.3 Z"/><path fill="#DFD1D7" fill-rule="nonzero" d="M13.2417818,5.97539055 C16.1750394,5.97539055 18.5615963,8.36194737 18.5615963,11.295205 L18.5615963,17.911648 C18.5615963,17.9740598 18.5110466,18.0246095 18.4486348,18.0246095 C17.6726541,18.0246095 17.0411519,17.3931073 17.0411519,16.6171266 L17.0411519,15.8715693 C17.0411329,15.785255 17.0125379,15.701412 16.9598336,15.6331016 C16.8440528,15.4891066 16.6581244,15.4459138 16.501669,15.5106055 L16.4923946,15.5022217 L16.427033,15.5515283 C16.4208626,15.5559095 16.4164924,15.5591398 16.41217,15.5624747 L16.3937767,15.5766538 L16.3677405,15.5963194 C16.3248371,15.6287059 16.2856039,15.6571677 16.2500376,15.6817302 L16.2380706,15.6899429 C15.3549807,16.2921879 14.3108724,16.6150194 13.2417818,16.6150194 C12.1700591,16.6150194 11.1234951,16.2905955 10.2387114,15.6853103 C10.187447,15.65024 10.1280487,15.6065522 10.0607697,15.5543827 C9.99580355,15.5040515 9.91669042,15.4755064 9.83462393,15.4727635 C9.61910162,15.4655599 9.43853943,15.6344342 9.43133307,15.8499501 L9.42919949,15.908136 C9.42646771,15.9752104 9.42344316,16.0202665 9.42063857,16.0403878 C9.26497366,17.1571962 8.30329595,17.9958423 7.17191451,17.9958423 C5.92006768,17.9958423 4.90141731,16.9771919 4.90141731,15.7253451 L4.90141731,10.8960573 L4.74892908,10.8885934 L4.73820496,10.887769 C4.36058896,10.8552923 4.05128837,10.5202296 4.03867431,10.1261531 L4.038403,10.1013685 C4.038403,9.67400177 4.38750691,9.31237921 4.79862516,9.31237921 L5.07191302,9.31237921 C6.32375985,9.31237921 7.34241023,10.3310296 7.34241023,11.5828764 L7.34241023,13.1363022 C7.34241023,13.6194756 7.19365941,14.080642 6.91456161,14.4652787 C6.86648438,14.5315361 6.78067088,14.6187744 6.6569751,14.7255211 C6.50770014,14.854324 6.42187172,15.0417304 6.42186163,15.2389024 L6.42186163,15.7253451 C6.42186163,16.1390008 6.75825879,16.4753906 7.17191451,16.4753906 C7.58557023,16.4753906 7.92196739,16.1390008 7.92196739,15.7253451 L7.92196739,11.295205 C7.92196739,8.36194737 10.3085242,5.97539055 13.2417818,5.97539055 Z M13.2417818,7.49583487 C11.1467153,7.49583487 9.44241171,9.20013848 9.44241171,11.295205 C9.44241171,13.3902715 11.1467153,15.0945751 13.2417818,15.0945751 C15.3368483,15.0945751 17.0411519,13.3902715 17.0411519,11.295205 C17.0411519,9.20013848 15.3368483,7.49583487 13.2417818,7.49583487 Z"/></g></svg>