<svg xmlns="http://www.w3.org/2000/svg" xmlns:xlink="http://www.w3.org/1999/xlink" width="192" height="192" viewBox="0 0 192 192"><defs><path id="a" d="M67.700851,1.97590809 C88.4923959,1.97590809 105.3471,18.8306121 105.3471,39.622157 L105.3471,87.4599319 C100.177916,87.4599319 95.9875353,83.2695508 95.9875353,78.1003673 L95.9866179,63.6339081 L89.7478255,70.1376656 C83.6983031,74.5159808 76.297228,77.1413805 68.2879689,77.2639175 L67.700851,77.268406 C56.4285909,77.268406 46.3134987,72.3142507 39.4141336,64.4644997 L39.4141667,71.6526672 C39.4141667,80.2678344 32.4300596,87.2519416 23.8148923,87.2519416 C15.199725,87.2519416 8.21561786,80.2678344 8.21561786,71.6526672 L8.21561786,33.7984279 L17.5751825,33.7984279 L17.5751825,71.6526672 C17.5751825,75.0988589 20.3687006,77.8923769 23.8148923,77.8923769 C27.261084,77.8923769 30.054602,75.0988589 30.054602,71.6526672 L30.054602,39.622157 L30.0596455,38.9996046 C30.3920898,18.4952035 47.1172215,1.97590809 67.700851,1.97590809 Z"/><path id="c" d="M67.2330773,67.9050517 C51.8264696,67.655259 39.4141667,55.0882948 39.4141667,39.622157 C39.4141667,23.9997957 52.0784896,11.3354727 67.700851,11.3354727 L68.1686247,11.3392623 C83.5752323,11.589055 95.9875353,24.1560193 95.9875353,39.622157 C95.9875353,55.2445184 83.3232123,67.9088413 67.700851,67.9088413 Z"/><path id="g" d="M17.5751825,45.2378958 L17.5751825,65.4131654 C21.3637263,62.5672338 23.8148923,58.0367885 23.8148923,52.9335379 L23.8148923,42.1180409 C23.8148923,33.5026657 16.8307851,26.5187665 8.21561786,26.5187665 L6.65569042,26.5187665 C4.07099464,26.5187665 1.97590809,28.6138531 1.97590809,31.1985488 C1.97590809,33.7830366 4.07099464,35.8783312 6.65569042,35.8783312 L8.21561786,35.8783312 C13.3848014,35.8783312 17.5751825,40.0687123 17.5751825,45.2378958 Z"/><path id="i" d="M67.700851,0 C89.5488972,0 107.323008,17.7741108 107.323008,39.622157 L107.323008,87.4599319 C107.323008,88.5513756 106.438544,89.43584 105.3471,89.43584 C99.0964562,89.43584 94.0116272,84.351011 94.0116272,78.1003673 L94.0116271,72.7098876 C94.0115461,72.3422183 93.8896913,71.9849292 93.665097,71.6938311 C93.1037421,70.9662553 92.0588574,70.8315067 91.3312816,71.3928616 L91.0019335,71.6469673 C90.6770473,71.8890181 90.3804155,72.1041722 90.10967,72.2911522 L90.0203801,72.3524355 C83.4526794,76.8314484 75.6786093,79.244314 67.700851,79.244314 C59.7034968,79.244314 51.9111491,76.8195759 45.3337442,72.3199381 C44.9423807,72.0522043 44.4947414,71.7229488 43.9913823,71.3326339 C43.7147688,71.1183337 43.3776359,70.9966915 43.0279175,70.9850026 C42.1094723,70.9543047 41.3400348,71.6739669 41.3093272,72.5923169 C41.2840835,73.3528165 41.2555698,73.8464428 41.2215533,74.0904924 C40.0196644,82.7133709 32.598108,89.2278497 23.8148923,89.2278497 C14.1236726,89.2278497 6.23970977,81.3438868 6.23970977,71.6526672 L6.23970977,37.8400959 L6.22239811,37.8392485 C2.81807818,37.6032181 0.0580347887,34.6114343 0,31.1015661 L0,30.9905585 C0,27.2847403 3.01892712,24.1268778 6.65569042,24.1268778 L8.63159851,24.1268778 C18.3228182,24.1268778 26.206781,32.0108406 26.206781,41.7020603 L26.206781,52.9335379 C26.206781,56.6777791 25.0503123,60.2490956 22.892408,63.2229972 C22.4811447,63.7897769 21.8013939,64.479616 20.849144,65.3013864 C20.0249829,66.0125191 19.5511463,67.0471472 19.5510906,68.1356805 L19.5510906,71.6526672 C19.5510906,74.0032554 21.4643041,75.9164688 23.8148923,75.9164688 C26.1654805,75.9164688 28.078694,74.0032554 28.078694,71.6526672 L28.078694,39.622157 C28.078694,17.7741108 45.8528048,0 67.700851,0 Z M67.700851,3.95181619 C48.0325723,3.95181619 32.0305101,19.9538783 32.0305101,39.622157 L32.0305101,71.6526672 C32.0305101,76.1832309 28.345456,79.868285 23.8148923,79.868285 C19.2843286,79.868285 15.5992744,76.1832309 15.5992744,71.6526672 L15.5992744,45.2378958 L15.5981165,45.1061209 C15.5803737,44.0971505 15.3589866,43.1188155 14.9522726,42.2160133 L14.8981735,42.0986885 C14.5508226,41.3624489 13.8680868,40.6120079 12.8436932,39.8556508 C12.5575799,39.6444323 12.2113201,39.5304396 11.8556882,39.5303884 C10.9367291,39.5302561 10.191526,40.2751123 10.191526,41.1940114 L10.191526,71.6526672 C10.191526,79.1643273 16.3032321,85.2760335 23.8148923,85.2760335 C31.3265524,85.2760335 37.4382586,79.1643273 37.4382586,71.6526672 L37.4382586,39.622157 C37.4382586,22.9349748 51.0136687,9.35956465 67.700851,9.35956465 C84.3880332,9.35956465 97.9634433,22.9349748 97.9634433,39.622157 L97.9634433,78.1003673 C97.9634433,79.7394429 98.501492,81.2984735 99.4787638,82.5764583 C99.8811013,83.1025978 100.554988,83.6423279 101.500934,84.1866792 C101.690205,84.2956494 101.904803,84.3529823 102.123228,84.3529861 C102.812447,84.3529982 103.371192,83.7942853 103.371192,83.1050732 L103.371192,39.622157 C103.371192,19.9538783 87.3691297,3.95181619 67.700851,3.95181619 Z M91.9390585,57.7077706 L91.6961354,58.0454512 L91.6833421,58.0546943 C91.6556555,58.0913255 91.6282062,58.1273214 91.6009937,58.1626824 L91.5200659,58.2668614 C85.8121547,65.5442027 77.1045378,69.8847494 67.700851,69.8847494 C58.2990256,69.8847494 49.5929474,65.5459323 43.8849065,58.2710303 C43.7505067,58.0997376 43.6099037,57.9121253 43.4627218,57.7077588 C43.2477955,57.4089218 42.9021974,57.2317417 42.5340984,57.2317417 C41.902314,57.2317417 41.3900748,57.7438274 41.3900748,58.3755838 L41.3900748,63.6995331 L41.4859362,63.8042527 C48.1712137,71.0467882 57.5529152,75.2078981 67.3992886,75.291222 L67.700851,75.2924979 C77.5811759,75.2924979 87.0173841,71.1840282 93.7609014,63.9709596 L94.011,63.698 L94.0116272,58.3757508 C94.0116083,58.0076927 93.8344977,57.662125 93.5357191,57.4471875 C93.0228554,57.0782399 92.3080062,57.1949069 91.9390585,57.7077706 Z M67.700851,13.3113808 C53.1934362,13.3113808 41.3900748,25.1147423 41.3900748,39.622157 C41.3900748,54.1295718 53.1934362,65.9329332 67.700851,65.9329332 C82.2082657,65.9329332 94.0116272,54.1295718 94.0116272,39.622157 C94.0116272,25.1147423 82.2082657,13.3113808 67.700851,13.3113808 Z M17.5751825,44.0582578 C16.9432184,44.0582578 16.4312357,44.5702404 16.4312357,45.2022046 L16.4312357,45.2378958 C16.4312357,45.86986 16.9432184,46.3818426 17.5751825,46.3818426 C18.2071467,46.3818426 18.7191293,45.86986 18.7191293,45.2378958 L18.7187133,45.1811145 L18.7182213,45.1561831 C18.6946866,44.5608356 18.2165515,44.0827005 17.621204,44.0591658 L17.5751825,44.0582578 Z M19.5510909,58.7791197 C19.5512778,58.9898518 19.6578192,59.1862524 19.8343659,59.3013148 C20.1230721,59.4894758 20.5096493,59.4079678 20.6978103,59.1192617 L20.7060609,59.1062747 L20.7559898,59.0291477 C20.9449415,58.7326242 21.0907503,58.4669256 21.1934817,58.2334161 L21.2230088,58.1643303 C21.9035935,56.5224049 22.2549648,54.7520552 22.2549648,52.9335379 L22.2549648,41.7020603 C22.2549648,34.1904001 16.1432587,28.078694 8.63159851,28.078694 L6.65569042,28.078694 C5.20996633,28.078694 3.95181619,29.4526479 3.95181619,30.9905585 C3.95181619,32.5284692 5.20996633,33.9024231 6.65569042,33.9024231 L8.21561786,33.9024231 C14.3685953,33.9024231 19.3919051,38.8295926 19.5473813,44.9457657 L19.55,45.156 L19.551,45.181 L19.5510909,58.7791197 Z"/><radialGradient id="d" cx="64.899%" cy="31.979%" r="66.883%" fx="64.899%" fy="31.979%"><stop offset="0%" stop-color="#FFF"/><stop offset="100%"/></radialGradient><radialGradient id="e" cx="65.397%" cy="33.231%" r="66.883%" fx="65.397%" fy="33.231%"><stop offset="0%" stop-color="#FFF"/><stop offset="100%"/></radialGradient><radialGradient id="h" cx="50%" cy="23.79%" r="135.727%" fx="50%" fy="23.79%" gradientTransform="matrix(0 .5615 -1 0 .738 -.043)"><stop offset="0%" stop-color="#FFF"/><stop offset="100%"/></radialGradient><filter id="f" width="124.7%" height="124.7%" x="-12.4%" y="-12.4%" filterUnits="objectBoundingBox"><feGaussianBlur in="SourceAlpha" result="shadowBlurInner1" stdDeviation="4"/><feOffset dx="6" dy="-5" in="shadowBlurInner1" result="shadowOffsetInner1"/><feComposite in="shadowOffsetInner1" in2="SourceAlpha" k2="-1" k3="1" operator="arithmetic" result="shadowInnerInner1"/><feColorMatrix in="shadowInnerInner1" values="0 0 0 0 0.925243433 0 0 0 0 0.0984551903 0 0 0 0 0.0544250472 0 0 0 1 0"/></filter><filter id="j" width="271.4%" height="271.2%" x="-70.8%" y="-100.6%" filterUnits="objectBoundingBox"><feGaussianBlur in="SourceGraphic" stdDeviation="4.16"/></filter><linearGradient id="b" x1="50%" x2="50%" y1="0%" y2="100%"><stop offset="0%" stop-color="#FFF" stop-opacity=".5"/><stop offset="100%" stop-opacity=".5"/></linearGradient></defs><g fill="none" fill-rule="evenodd"><circle cx="96" cy="96" r="94.5" fill="#FFF1DC" stroke="#F1E4D1" stroke-width="3"/><g transform="translate(37.839 52.433)"><g fill-rule="nonzero"><use xlink:href="#a" fill="#FFBA48"/><use xlink:href="#a" fill="url(#b)" style="mix-blend-mode:overlay"/></g><g fill-rule="nonzero"><use xlink:href="#c" fill="#FF4F45"/><use xlink:href="#c" fill="url(#d)" fill-opacity=".13" style="mix-blend-mode:luminosity"/><use xlink:href="#c" fill="url(#e)" fill-opacity=".32" style="mix-blend-mode:overlay"/><use xlink:href="#c" fill="#000" filter="url(#f)"/></g><g fill-rule="nonzero"><use xlink:href="#g" fill="#07B24B"/><use xlink:href="#g" fill="url(#h)" style="mix-blend-mode:overlay"/></g><path fill="#610B37" fill-rule="nonzero" stroke="#610B37" stroke-width=".832" d="M67.700851,0.415980651 C46.0825445,0.415980651 28.4946746,18.0038506 28.4946746,39.622157 L28.4946746,71.6526672 C28.4946746,74.2329951 26.3952203,76.3324495 23.8148923,76.3324495 C21.2345643,76.3324495 19.13511,74.2329951 19.13511,71.6526672 L19.1351103,68.1309939 C19.1355781,66.9224987 19.6615738,65.773945 20.5762601,64.9841286 C21.5074938,64.1837481 22.1668056,63.5146799 22.555724,62.9786946 C24.6459911,60.0980067 25.7908004,56.6175424 25.7908004,52.9335379 C25.7908004,52.1316854 25.7908004,51.5996262 25.7908004,51.3373602 C25.7908004,49.1961825 25.7908004,45.9844158 25.7908004,41.7020603 C25.7908004,32.2405804 18.0930784,24.5428584 8.63159851,24.5428584 L6.65569042,24.5428584 C3.21511445,24.5428584 0.415980651,27.5499825 0.415980651,30.9905585 C0.415980651,34.4311345 3.21511445,37.4382586 6.65569042,37.4382586 L6.65569042,71.6526672 C6.65569042,81.1141471 14.3534124,88.811869 23.8148923,88.811869 C32.4688273,88.811869 39.6472321,82.3720845 40.8095555,74.0330666 C40.8408727,73.8083836 40.8689143,73.3224812 40.8936803,72.5753595 L40.8937135,72.5753606 C40.9323202,71.4273107 41.8942953,70.5279292 43.0423452,70.5665358 C43.4792229,70.5812272 43.9003671,70.7331893 44.2459687,71.0008412 C44.7437087,71.389651 45.1851037,71.7142458 45.5686172,71.9766094 C52.0299213,76.3968221 59.7310938,78.8283334 67.700851,78.8283334 C75.6512606,78.8283334 83.3343879,76.4086134 89.7860059,72.0087662 C90.1608642,71.7531219 90.5903627,71.4386545 91.0745013,71.0653639 L91.0750875,71.0661218 C91.9836662,70.3632748 93.2899848,70.5300533 93.9928317,71.4386319 C94.2745284,71.8027846 94.4274422,72.2501102 94.4276077,72.7105016 C94.4276078,73.1667957 94.4276078,73.6230898 94.4276078,74.0793839 C94.4276078,74.9729358 94.4276078,76.3132636 94.4276078,78.1003673 C94.4276078,84.1212712 99.326196,89.0198593 105.3471,89.0198593 C106.208804,89.0198593 106.907027,88.3216358 106.907027,87.4599319 L106.907027,39.622157 C106.907027,18.0038506 89.3191574,0.415980651 67.700851,0.415980651 Z M40.9740941,63.8611416 C40.9740941,61.5477994 40.9740941,59.8127927 40.9740941,58.6561216 C40.9740941,58.5633121 40.9740941,58.4705026 40.9740941,58.3776931 C40.974152,57.516169 41.6726022,56.8178126 42.5341263,56.8178704 C43.0366797,56.8179041 43.508437,57.0600542 43.8014237,57.4683664 C43.945231,57.6658655 44.0817936,57.8480806 44.2121735,58.0142497 C49.6802586,64.983328 58.1759984,69.4687687 67.700851,69.4687687 C77.2275768,69.4687687 85.724785,64.9815635 91.1927543,58.0101378 C91.322993,57.844089 91.4594101,57.6620092 91.6020057,57.4638984 L91.600766,57.4630079 C92.1034064,56.7633104 93.0780937,56.6035641 93.7777912,57.1062044 C94.1854763,57.3990724 94.4273152,57.8702355 94.4276075,58.3722103 C94.4276078,58.4688715 94.4276078,58.5655327 94.4276078,58.6621938 C94.4276078,59.8175156 94.4276078,61.5504981 94.4276078,63.8611416 C87.5888859,71.3964231 77.8830174,75.7084785 67.700851,75.7084785 C57.5186846,75.7084785 47.812816,71.3964231 40.9740941,63.8611416 Z M40.9740941,39.622157 C40.9740941,24.8850025 52.9636965,12.8954002 67.700851,12.8954002 C82.4380055,12.8954002 94.4276078,24.8850025 94.4276078,39.622157 C94.4276078,54.3593115 82.4380055,66.3489139 67.700851,66.3489139 C52.9636965,66.3489139 40.9740941,54.3593115 40.9740941,39.622157 Z M101.291604,84.5461587 C100.302809,83.9769481 99.5883823,83.4046099 99.148325,82.8291441 C98.1444459,81.5163646 97.5474627,79.8767433 97.5474627,78.1003673 L97.5474627,39.622157 C97.5474627,23.1647145 84.1582935,9.7755453 67.700851,9.7755453 C51.2434085,9.7755453 37.8542393,23.1647145 37.8542393,39.622157 L37.8542393,71.6526672 C37.8542393,79.3940671 31.5562922,85.6920141 23.8148923,85.6920141 C16.0734924,85.6920141 9.7755453,79.3940671 9.7755453,71.6526672 C9.7755453,58.9877667 9.7755453,49.4890914 9.7755453,43.1566411 C9.7755453,42.5003946 9.7755453,41.8441481 9.7755453,41.1879016 L9.77554643,41.1879016 C9.77674375,40.0392033 10.7089183,39.1089701 11.8576165,39.1101674 C12.3014678,39.11063 12.7335316,39.2530687 13.0906377,39.5166582 C14.1651956,40.3139466 14.8938045,41.1145202 15.2743861,41.921195 C15.7494766,42.9281897 16.0152551,44.0525701 16.0152551,45.2378958 C16.0152551,46.0995997 16.7134786,46.7978233 17.5751825,46.7978233 C18.4368864,46.7978233 19.13511,46.0995997 19.13511,45.2378958 C19.13511,39.2169919 14.2365218,34.3184037 8.21561786,34.3184037 L6.65569042,34.3184037 C4.93540244,34.3184037 3.53583553,32.7108465 3.53583553,30.9905585 C3.53583553,29.2702705 4.93540244,27.6627133 6.65569042,27.6627133 L8.63159851,27.6627133 C16.3729984,27.6627133 22.6709455,33.9606604 22.6709455,41.7020603 C22.6709455,45.9949067 22.6709455,49.2145415 22.6709455,51.3609647 C22.6709455,51.6179853 22.6709455,52.1421763 22.6709455,52.9335379 C22.6709455,54.822106 22.3029407,56.6453307 21.6072854,58.3236144 C21.4834333,58.6224102 21.2962837,58.9636017 21.0458364,59.3471891 L21.045842,59.3471927 C20.7318445,59.8281115 20.0874375,59.9634278 19.6065188,59.6494303 C19.3123628,59.4573724 19.1350537,59.1297866 19.13511,58.7784833 C19.13511,58.4017749 19.13511,58.0250665 19.13511,57.6483581 C19.13511,54.8825462 19.13511,50.7338284 19.13511,45.2022046 C19.13511,44.3405007 18.4368864,43.6422771 17.5751825,43.6422771 C16.7134786,43.6422771 16.0152551,44.3405007 16.0152551,45.2022046 L16.0152551,71.6526672 C16.0152551,75.9534911 19.5140683,79.4523044 23.8148923,79.4523044 C28.1157162,79.4523044 31.6145295,75.9534911 31.6145295,71.6526672 L31.6145295,39.622157 C31.6145295,19.7241386 47.8028325,3.53583553 67.700851,3.53583553 C87.5988694,3.53583553 103.787172,19.7241386 103.787172,39.622157 C103.787172,58.2232252 103.787172,72.1740264 103.787172,81.4745605 C103.787172,82.017891 103.787172,82.5612216 103.787172,83.1045522 C103.786926,84.0235112 103.041762,84.7682748 102.122803,84.7680283 C101.831147,84.76795 101.544634,84.6912117 101.291982,84.5455048 Z"/><mask id="k" fill="#fff"><use xlink:href="#i"/></mask><use xlink:href="#i" fill="#610B37" fill-rule="nonzero"/><path stroke="#FFF" stroke-width="10.608" d="M73.0046043,16.639226 L73.2969629,16.6415945 C82.9260926,16.797715 90.683782,24.6520676 90.683782,34.3184037" filter="url(#j)" mask="url(#k)" opacity=".352"/></g></g></svg>