<svg xmlns="http://www.w3.org/2000/svg" xmlns:xlink="http://www.w3.org/1999/xlink" width="27" height="27" viewBox="0 0 27 27"><defs><filter id="b" width="116.7%" height="116.7%" x="-8.3%" y="-6.7%" filterUnits="objectBoundingBox"><feMorphology in="SourceAlpha" operator="dilate" radius=".6" result="shadowSpreadOuter1"/><feOffset dy=".4" in="shadowSpreadOuter1" result="shadowOffsetOuter1"/><feGaussianBlur in="shadowOffsetOuter1" result="shadowBlurOuter1" stdDeviation=".4"/><feComposite in="shadowBlurOuter1" in2="SourceAlpha" operator="out" result="shadowBlurOuter1"/><feColorMatrix in="shadowBlurOuter1" values="0 0 0 0 0 0 0 0 0 0 0 0 0 0 0 0 0 0 0.06 0"/></filter><path id="a" d="M7.6916556,-2.07168062e-16 L16.3083444,3.10752092e-16 C18.9829006,-1.80555915e-16 19.9527593,0.278476833 20.9305371,0.801398111 C21.9083149,1.32431939 22.6756806,2.09168511 23.1986019,3.06946289 C23.7215232,4.04724067 24,5.01709938 24,7.6916556 L24,16.3083444 C24,18.9829006 23.7215232,19.9527593 23.1986019,20.9305371 C22.6756806,21.9083149 21.9083149,22.6756806 20.9305371,23.1986019 C19.9527593,23.7215232 18.9829006,24 16.3083444,24 L7.6916556,24 C5.01709938,24 4.04724067,23.7215232 3.06946289,23.1986019 C2.09168511,22.6756806 1.32431939,21.9083149 0.801398111,20.9305371 C0.278476833,19.9527593 6.01853049e-17,18.9829006 -1.03584031e-16,16.3083444 L2.07168062e-16,7.6916556 C-1.2037061e-16,5.01709938 0.278476833,4.04724067 0.801398111,3.06946289 C1.32431939,2.09168511 2.09168511,1.32431939 3.06946289,0.801398111 C4.04724067,0.278476833 5.01709938,1.2037061e-16 7.6916556,-2.07168062e-16 Z"/></defs><g fill="none" fill-rule="evenodd" transform="translate(1.5 1)"><use xlink:href="#a" fill="#000" filter="url(#b)"/><path fill="#3C3735" stroke="#4C4744" stroke-width=".6" d="M16.3083444,-0.3 C19.0678598,-0.3 20.0643104,-0.00207310579 21.0720168,0.536854152 C22.1028484,1.08814893 22.9118511,1.89715162 23.4631458,2.92798323 C24.0020731,3.93568959 24.3,4.93214021 24.3,7.6916556 L24.3,16.3083444 C24.3,19.0678598 24.0020731,20.0643104 23.4631458,21.0720168 C22.9118511,22.1028484 22.1028484,22.9118511 21.0720168,23.4631458 C20.0643104,24.0020731 19.0678598,24.3 16.3083444,24.3 L7.6916556,24.3 C4.93214021,24.3 3.93568959,24.0020731 2.92798323,23.4631458 C1.89715162,22.9118511 1.08814893,22.1028484 0.536854152,21.0720168 C-0.00207310579,20.0643104 -0.3,19.0678598 -0.3,16.3083444 L-0.3,7.6916556 C-0.3,4.93214021 -0.00207310579,3.93568959 0.536854152,2.92798323 C1.08814893,1.89715162 1.89715162,1.08814893 2.92798323,0.536854152 C3.93568959,-0.00207310579 4.93214021,-0.3 7.6916556,-0.3 L16.3083444,-0.3 Z"/><path fill="#DFD1D7" fill-rule="nonzero" d="M13.14,0 L13.14,1.46 L18.98,1.46 L18.98,7.3 L16.06,7.3 L16.06,10.22 L5.84,10.22 L5.84,8.76 L0,8.76 L0,2.92 L2.92,2.92 L2.92,0 L13.14,0 Z M11.68,1.46 L7.3,1.46 L7.3,5.84 L10.22,5.84 L10.22,7.3 L7.3,7.3 L7.3,8.76 L11.68,8.76 L11.68,4.38 L8.76,4.38 L8.76,2.92 L11.68,2.92 L11.68,1.46 Z M17.52,2.92 L13.14,2.92 L13.14,8.76 L14.6,8.76 L14.6,4.38 L16.06,4.38 L16.06,5.84 L17.52,5.84 L17.52,2.92 Z M5.84,1.46 L4.38,1.46 L4.38,5.84 L2.92,5.84 L2.92,4.38 L1.46,4.38 L1.46,7.3 L5.84,7.3 L5.84,1.46 Z" transform="translate(2.51 6.89)"/></g></svg>