<svg xmlns="http://www.w3.org/2000/svg" xmlns:xlink="http://www.w3.org/1999/xlink" width="27" height="27" viewBox="0 0 27 27"><defs><filter id="b" width="116.7%" height="116.7%" x="-8.3%" y="-6.7%" filterUnits="objectBoundingBox"><feMorphology in="SourceAlpha" operator="dilate" radius=".6" result="shadowSpreadOuter1"/><feOffset dy=".4" in="shadowSpreadOuter1" result="shadowOffsetOuter1"/><feGaussianBlur in="shadowOffsetOuter1" result="shadowBlurOuter1" stdDeviation=".4"/><feComposite in="shadowBlurOuter1" in2="SourceAlpha" operator="out" result="shadowBlurOuter1"/><feColorMatrix in="shadowBlurOuter1" values="0 0 0 0 0 0 0 0 0 0 0 0 0 0 0 0 0 0 0.06 0"/></filter><path id="a" d="M7.6916556,-2.07168062e-16 L16.3083444,3.10752092e-16 C18.9829006,-1.80555915e-16 19.9527593,0.278476833 20.9305371,0.801398111 C21.9083149,1.32431939 22.6756806,2.09168511 23.1986019,3.06946289 C23.7215232,4.04724067 24,5.01709938 24,7.6916556 L24,16.3083444 C24,18.9829006 23.7215232,19.9527593 23.1986019,20.9305371 C22.6756806,21.9083149 21.9083149,22.6756806 20.9305371,23.1986019 C19.9527593,23.7215232 18.9829006,24 16.3083444,24 L7.6916556,24 C5.01709938,24 4.04724067,23.7215232 3.06946289,23.1986019 C2.09168511,22.6756806 1.32431939,21.9083149 0.801398111,20.9305371 C0.278476833,19.9527593 6.01853049e-17,18.9829006 -1.03584031e-16,16.3083444 L2.07168062e-16,7.6916556 C-1.2037061e-16,5.01709938 0.278476833,4.04724067 0.801398111,3.06946289 C1.32431939,2.09168511 2.09168511,1.32431939 3.06946289,0.801398111 C4.04724067,0.278476833 5.01709938,1.2037061e-16 7.6916556,-2.07168062e-16 Z"/></defs><g fill="none" fill-rule="evenodd" transform="translate(1.5 1)"><use xlink:href="#a" fill="#000" filter="url(#b)"/><path fill="#3C3735" stroke="#4C4744" stroke-width=".6" d="M16.3083444,-0.3 C19.0678598,-0.3 20.0643104,-0.00207310579 21.0720168,0.536854152 C22.1028484,1.08814893 22.9118511,1.89715162 23.4631458,2.92798323 C24.0020731,3.93568959 24.3,4.93214021 24.3,7.6916556 L24.3,16.3083444 C24.3,19.0678598 24.0020731,20.0643104 23.4631458,21.0720168 C22.9118511,22.1028484 22.1028484,22.9118511 21.0720168,23.4631458 C20.0643104,24.0020731 19.0678598,24.3 16.3083444,24.3 L7.6916556,24.3 C4.93214021,24.3 3.93568959,24.0020731 2.92798323,23.4631458 C1.89715162,22.9118511 1.08814893,22.1028484 0.536854152,21.0720168 C-0.00207310579,20.0643104 -0.3,19.0678598 -0.3,16.3083444 L-0.3,7.6916556 C-0.3,4.93214021 -0.00207310579,3.93568959 0.536854152,2.92798323 C1.08814893,1.89715162 1.89715162,1.08814893 2.92798323,0.536854152 C3.93568959,-0.00207310579 4.93214021,-0.3 7.6916556,-0.3 L16.3083444,-0.3 Z"/><g fill="#DFD1D7" fill-rule="nonzero" stroke="#DFD1D7" stroke-width=".4" transform="translate(5 5.603)"><path d="M0,0 L1.30508044,0 L1.30508044,8.66121945 L6.46617279,8.66121945 L6.46617279,9.72887388 L0,9.72887388 L0,0 Z M10.5354614,2.34934815 C9.20089334,2.33155391 7.86632531,3.17983077 7.45070269,4.46686277 C6.85739187,5.94988561 7.13040636,7.81268838 8.29313288,8.9459273 C9.42027091,9.88317536 11.1168246,9.95435233 12.3863166,9.29011875 C13.2582344,8.8274685 13.8098558,7.90801467 13.9285688,6.94127901 C14.0828703,5.93285398 14.0055925,4.82935687 13.5132004,3.91625813 C12.9318372,2.94342158 11.7927516,2.31477648 10.6661219,2.35621164 L10.5357156,2.3384174 L10.5354614,2.34934815 Z M10.6541744,3.3814141 C11.6328576,3.3814141 12.5108763,4.1287722 12.6710244,5.08966118 C12.9676798,6.17510985 12.7897374,7.50408541 11.8997712,8.26923775 C11.0692886,8.94541889 9.73446635,8.85060101 9.05269274,8.01427171 C8.22221012,7.12455968 8.22221012,5.75999564 8.64927189,4.69234121 C8.9459273,3.92108799 9.73472056,3.36946654 10.5654574,3.38726078 L10.6722228,3.38726078 L10.6541744,3.3814141 Z"/><polygon points="0 11.311 14 11.311 14 12.794 0 12.794"/></g></g></svg>