<svg width="27" height="27" viewBox="0 0 27 27" fill="none" xmlns="http://www.w3.org/2000/svg">
<path fill-rule="evenodd" clip-rule="evenodd" d="M17.8083 0.700001C20.5679 0.700001 21.5643 0.997928 22.572 1.53685C23.6028 2.08815 24.4119 2.89715 24.9631 3.92798C25.5021 4.93569 25.8 5.93214 25.8 8.69166V17.3083C25.8 20.0679 25.5021 21.0643 24.9631 22.072C24.4119 23.1028 23.6028 23.9119 22.572 24.4631C21.5643 25.0021 20.5679 25.3 17.8083 25.3H9.19166C6.43214 25.3 5.43569 25.0021 4.42798 24.4631C3.39715 23.9119 2.58815 23.1028 2.03685 22.072C1.49793 21.0643 1.2 20.0679 1.2 17.3083V8.69166C1.2 5.93214 1.49793 4.93569 2.03685 3.92798C2.58815 2.89715 3.39715 2.08815 4.42798 1.53685C5.43569 0.997928 6.43214 0.700001 9.19166 0.700001H17.8083Z" fill="#3C3735" stroke="#4C4744" stroke-width="0.6"/>
<g clip-path="url(#clip0_1_6)">
<mask id="mask0_1_6" style="mask-type:luminance" maskUnits="userSpaceOnUse" x="5" y="5" width="16" height="16">
<path d="M5.8 5.8H20.2V20.2H5.8V5.8Z" fill="white"/>
</mask>
<g mask="url(#mask0_1_6)">
<path d="M5.9368 10.822C5.9368 10.822 5.5864 10.5658 6.007 10.225L6.988 9.3382C6.988 9.3382 7.2682 9.04 7.5652 9.2998L16.6138 16.225V19.5454C16.6138 19.5454 16.6096 20.0674 15.9478 20.0098L5.9368 10.822Z" fill="#DFD1D7"/>
<path d="M8.2696 12.9622L5.9368 15.1054C5.9368 15.1054 5.6968 15.2854 5.9368 15.6076L7.0198 16.6036C7.0198 16.6036 7.2772 16.8826 7.657 16.5646L10.1296 14.6698L8.2696 12.9622ZM12.364 12.9796L16.642 9.6784L16.6138 6.3754C16.6138 6.3754 16.4308 5.6542 15.8218 6.0298L10.1296 11.266L12.364 12.9796Z" fill="#DFD1D7"/>
<path d="M15.9472 20.014C16.1956 20.2708 16.4968 20.1868 16.4968 20.1868L19.8304 18.5266C20.257 18.2326 20.197 17.8678 20.197 17.8678V7.9528C20.197 7.5172 19.756 7.3666 19.756 7.3666L16.8664 5.9584C16.2352 5.5642 15.8218 6.0298 15.8218 6.0298C15.8218 6.0298 16.3534 5.6428 16.6138 6.3754V19.4854C16.6138 19.5754 16.5946 19.6636 16.5568 19.7434C16.4806 19.8988 16.3156 20.0434 15.9196 19.9834L15.9472 20.014Z" fill="#DFD1D7"/>
</g>
</g>
<defs>
<clipPath id="clip0_1_6">
<rect width="14.4" height="14.4" fill="white" transform="translate(5.8 5.8)"/>
</clipPath>
</defs>
</svg>
