<svg xmlns="http://www.w3.org/2000/svg" xmlns:xlink="http://www.w3.org/1999/xlink" width="28" height="27" viewBox="0 0 28 27"><defs><filter id="b" width="115%" height="115%" x="-7.5%" y="-5.8%" filterUnits="objectBoundingBox"><feMorphology in="SourceAlpha" operator="dilate" radius=".4" result="shadowSpreadOuter1"/><feOffset dy=".4" in="shadowSpreadOuter1" result="shadowOffsetOuter1"/><feGaussianBlur in="shadowOffsetOuter1" result="shadowBlurOuter1" stdDeviation=".4"/><feComposite in="shadowBlurOuter1" in2="SourceAlpha" operator="out" result="shadowBlurOuter1"/><feColorMatrix in="shadowBlurOuter1" values="0 0 0 0 0 0 0 0 0 0 0 0 0 0 0 0 0 0 0.0753387238 0"/></filter><path id="a" d="M7.6916556,-2.07168062e-16 L16.3083444,3.10752092e-16 C18.9829006,-1.80555915e-16 19.9527593,0.278476833 20.9305371,0.801398111 C21.9083149,1.32431939 22.6756806,2.09168511 23.1986019,3.06946289 C23.7215232,4.04724067 24,5.01709938 24,7.6916556 L24,16.3083444 C24,18.9829006 23.7215232,19.9527593 23.1986019,20.9305371 C22.6756806,21.9083149 21.9083149,22.6756806 20.9305371,23.1986019 C19.9527593,23.7215232 18.9829006,24 16.3083444,24 L7.6916556,24 C5.01709938,24 4.04724067,23.7215232 3.06946289,23.1986019 C2.09168511,22.6756806 1.32431939,21.9083149 0.801398111,20.9305371 C0.278476833,19.9527593 6.01853049e-17,18.9829006 -1.03584031e-16,16.3083444 L2.07168062e-16,7.6916556 C-1.2037061e-16,5.01709938 0.278476833,4.04724067 0.801398111,3.06946289 C1.32431939,2.09168511 2.09168511,1.32431939 3.06946289,0.801398111 C4.04724067,0.278476833 5.01709938,1.2037061e-16 7.6916556,-2.07168062e-16 Z"/></defs><g fill="none" fill-rule="evenodd" transform="translate(2 1)"><use xlink:href="#a" fill="#000" filter="url(#b)"/><path fill="#FFF" stroke="#4E3340" stroke-opacity=".052" stroke-width=".4" d="M7.6916556,-0.2 L16.3083444,-0.2 C19.0395401,-0.2 20.0271267,0.0914435406 21.0248569,0.625035472 C22.0380039,1.16687242 22.8331276,1.96199612 23.3749645,2.97514312 C23.9085565,3.97287328 24.2,4.96045994 24.2,7.6916556 L24.2,16.3083444 C24.2,19.0395401 23.9085565,20.0271267 23.3749645,21.0248569 C22.8331276,22.0380039 22.0380039,22.8331276 21.0248569,23.3749645 C20.0271267,23.9085565 19.0395401,24.2 16.3083444,24.2 L7.6916556,24.2 C4.96045994,24.2 3.97287328,23.9085565 2.97514312,23.3749645 C1.96199612,22.8331276 1.16687242,22.0380039 0.625035472,21.0248569 C0.0914435406,20.0271267 -0.2,19.0395401 -0.2,16.3083444 L-0.2,7.6916556 C-0.2,4.96045994 0.0914435406,3.97287328 0.625035472,2.97514312 C1.16687242,1.96199612 1.96199612,1.16687242 2.97514312,0.625035472 C3.97287328,0.0914435406 4.96045994,-0.2 7.6916556,-0.2 Z"/><path stroke="#4E3340" stroke-linecap="round" stroke-linejoin="round" stroke-width="1.38" d="M3.2,2.56 L9.44,2.56 C10.78848,2.56 11.4624,2.56 11.94688,2.88384 C12.1563213,3.02383504 12.336165,3.20367869 12.47616,3.41312 C12.75904,3.83616 12.79488,4.40448 12.79936,5.44 M6.4,2.56 L5.99488,1.74912 C5.65888,1.07712 5.35168,0.40128 4.60736,0.12224 C4.28096,0 3.90976,0 3.16416,0 C2.00192,0 1.4208,0 0.98432,0.2432 C0.67332802,0.416726421 0.416726421,0.67332802 0.2432,0.98432 C0,1.4208 0,2.00192 0,3.16416 L0,5.12 C0,8.13696 0,9.64544 0.93696,10.5824 C1.76896,11.4144 3.05152,11.50848 5.44,11.51872 L5.76,11.51872 M12.07104,7.3216 L12.5152,7.76448 C12.6956439,7.94425592 12.7970726,8.18848567 12.7970726,8.4432 C12.7970726,8.69791433 12.6956439,8.94214408 12.5152,9.12192 L10.18688,11.48736 C10.0036779,11.6701351 9.76937739,11.7930871 9.51488,11.84 L8.07232,12.15232 C7.96595326,12.1758764 7.85490925,12.1436992 7.77761573,12.0669235 C7.70032221,11.9901479 7.6673992,11.8793227 7.69024,11.7728 L7.99744,10.3424 C8.0448,10.08832 8.16832,9.85472 8.35136,9.67232 L10.70912,7.32096 C11.0854619,6.94610404 11.6940581,6.94610404 12.0704,7.32096" transform="translate(5.6 5.92)"/></g></svg>