<svg xmlns="http://www.w3.org/2000/svg" xmlns:xlink="http://www.w3.org/1999/xlink" width="67" height="66" viewBox="0 0 67 66"><defs><radialGradient id="d" cx="64.899%" cy="31.979%" r="66.883%" fx="64.899%" fy="31.979%"><stop offset="0%" stop-color="#FFF"/><stop offset="100%"/></radialGradient><radialGradient id="e" cx="65.397%" cy="33.231%" r="66.883%" fx="65.397%" fy="33.231%"><stop offset="0%" stop-color="#FFF"/><stop offset="100%"/></radialGradient><filter id="b" width="116.7%" height="116.7%" x="-8.3%" y="-8.3%" filterUnits="objectBoundingBox"><feMorphology in="SourceAlpha" radius="5" result="shadowSpreadInner1"/><feGaussianBlur in="shadowSpreadInner1" result="shadowBlurInner1" stdDeviation="2"/><feOffset dy="2" in="shadowBlurInner1" result="shadowOffsetInner1"/><feComposite in="shadowOffsetInner1" in2="SourceAlpha" k2="-1" k3="1" operator="arithmetic" result="shadowInnerInner1"/><feColorMatrix in="shadowInnerInner1" values="0 0 0 0 1 0 0 0 0 1 0 0 0 0 1 0 0 0 0.640816215 0"/></filter><filter id="f" width="145.6%" height="145.6%" x="-22.8%" y="-22.8%" filterUnits="objectBoundingBox"><feGaussianBlur in="SourceAlpha" result="shadowBlurInner1" stdDeviation="4"/><feOffset dx="4" dy="-2" in="shadowBlurInner1" result="shadowOffsetInner1"/><feComposite in="shadowOffsetInner1" in2="SourceAlpha" k2="-1" k3="1" operator="arithmetic" result="shadowInnerInner1"/><feColorMatrix in="shadowInnerInner1" values="0 0 0 0 0.925243433 0 0 0 0 0.0984551903 0 0 0 0 0.0544250472 0 0 0 1 0"/></filter><path id="a" d="M20.5110816,-5.52448164e-16 L45.4889184,8.28672246e-16 C52.6210683,-4.81482439e-16 55.2073582,0.742604889 57.8147656,2.13706163 C60.422173,3.53151837 62.4684816,5.57782696 63.8629384,8.18523437 C65.2573951,10.7926418 66,13.3789317 66,20.5110816 L66,45.4889184 C66,52.6210683 65.2573951,55.2073582 63.8629384,57.8147656 C62.4684816,60.422173 60.422173,62.4684816 57.8147656,63.8629384 C55.2073582,65.2573951 52.6210683,66 45.4889184,66 L20.5110816,66 C13.3789317,66 10.7926418,65.2573951 8.18523437,63.8629384 C5.57782696,62.4684816 3.53151837,60.422173 2.13706163,57.8147656 C0.742604889,55.2073582 1.60494146e-16,52.6210683 -2.76224082e-16,45.4889184 L5.52448164e-16,20.5110816 C-3.20988293e-16,13.3789317 0.742604889,10.7926418 2.13706163,8.18523437 C3.53151837,5.57782696 5.57782696,3.53151837 8.18523437,2.13706163 C10.7926418,0.742604889 13.3789317,3.20988293e-16 20.5110816,-5.52448164e-16 Z"/><path id="c" d="M39.4692449,17.4857005 C32.2099776,17.4857005 26.3046779,23.3910002 26.3046779,30.6502675 C26.3046779,37.9095348 32.2099776,43.8148345 39.4692449,43.8148345 C46.7285123,43.8148345 52.6338119,37.9095348 52.6338119,30.6502675 C52.6338119,23.3910002 46.7285123,17.4857005 39.4692449,17.4857005 Z"/></defs><g fill="none" fill-rule="evenodd" transform="translate(.205)"><use xlink:href="#a" fill="#FFF1DC"/><use xlink:href="#a" fill="#000" filter="url(#b)"/><path stroke="#C39755" stroke-linejoin="square" stroke-opacity=".25" stroke-width="1.8" d="M45.4889184,0.9 C52.3661908,0.9 54.872705,1.58425471 57.3903267,2.93069351 C59.8385726,4.24002974 61.7599703,6.16142745 63.0693065,8.60967334 C64.4157453,11.127295 65.1,13.6338092 65.1,20.5110816 L65.1,45.4889184 C65.1,52.3661908 64.4157453,54.872705 63.0693065,57.3903267 C61.7599703,59.8385726 59.8385726,61.7599703 57.3903267,63.0693065 C54.872705,64.4157453 52.3661908,65.1 45.4889184,65.1 L20.5110816,65.1 C13.6338092,65.1 11.127295,64.4157453 8.60967334,63.0693065 C6.16142745,61.7599703 4.24002974,59.8385726 2.93069351,57.3903267 C1.58425471,54.872705 0.9,52.3661908 0.9,45.4889184 L0.9,20.5110816 C0.9,13.6338092 1.58425471,11.127295 2.93069351,8.60967334 C4.24002974,6.16142745 6.16142745,4.24002974 8.60967334,2.93069351 C11.127295,1.58425471 13.6338092,0.9 20.5110816,0.9 L45.4889184,0.9 Z"/><g fill-rule="nonzero"><use xlink:href="#c" fill="#FF938D"/><use xlink:href="#c" fill="url(#d)" fill-opacity=".13" style="mix-blend-mode:luminosity"/><use xlink:href="#c" fill="url(#e)" fill-opacity=".32" style="mix-blend-mode:overlay"/><use xlink:href="#c" fill="#000" filter="url(#f)"/></g><path fill="#460826" fill-rule="nonzero" d="M39.4726073,13.1179685 C49.1396757,13.1179685 57.0053221,20.9836149 57.0053221,30.6506833 L57.0053221,52.7054934 C57.0053221,52.8030756 56.9263662,52.8820315 56.828784,52.8820315 C54.3526385,52.8820315 52.3371744,50.8665674 52.3371744,48.3904219 L52.3371743,45.9052309 C52.3371136,45.6293843 52.261151,45.3592708 52.1179934,45.1242569 L52.012893,44.9739555 L51.9170548,44.8654146 C51.5174225,44.4531793 50.9291732,44.3054003 50.3948056,44.469614 L50.3836779,44.4729685 L50.3194483,44.4148317 L50.1874861,44.5144462 L49.7719726,44.8281052 C49.6781273,44.8989462 49.5896038,44.964092 49.5064685,45.023505 L49.3456642,45.1358792 C46.4355494,47.1204883 42.994128,48.183398 39.4726073,48.183398 C35.9422074,48.183398 32.4927264,47.1151268 29.5752975,45.1192981 C29.4075718,45.0045561 29.2125817,44.8610981 28.9917894,44.6898913 C28.7419462,44.4963307 28.4377203,44.3865392 28.1220954,44.3759898 C27.2932944,44.3482881 26.5989358,44.9977017 26.5712232,45.8264832 L26.5528993,46.2509445 C26.5493789,46.3103313 26.5456572,46.3611806 26.5420582,46.3987471 L26.5367358,46.4454326 C26.0318285,50.0673836 22.9079956,52.786141 19.2397163,52.786141 C15.1773505,52.786141 11.8713923,49.4801828 11.8713923,45.417817 L11.8713923,29.1300897 L11.6815357,29.1204484 L11.1374945,29.0928208 C9.98610058,28.9936723 9.03425902,27.958946 8.99547991,26.7474452 L8.99466593,26.6690391 C8.99466593,25.3563173 10.0697212,24.241264 11.3287518,24.241264 L12.2397113,24.241264 C16.3020771,24.241264 19.6080353,27.5472222 19.6080353,31.6095881 L19.6080353,36.7876739 C19.6080353,38.3551247 19.1260819,39.8514242 18.2199984,41.1001372 C18.0687243,41.3086146 17.7896984,41.5909563 17.3925847,41.9336565 C16.8509804,42.4009833 16.5395766,43.0809442 16.53954,43.7963313 L16.53954,45.417817 C16.53954,46.9071264 17.7504069,48.1179933 19.2397163,48.1179933 C20.7290256,48.1179933 21.9398926,46.9071264 21.9398926,45.417817 L21.9398926,30.6506833 C21.9398926,20.9836149 29.8055389,13.1179685 39.4726073,13.1179685 Z M39.4692449,17.9857005 C32.4856899,17.9857005 26.8046779,23.6667125 26.8046779,30.6502675 C26.8046779,37.6338225 32.4856899,43.3148345 39.4692449,43.3148345 C46.4527999,43.3148345 52.133812,37.6338225 52.133812,30.6502675 C52.133812,23.6667125 46.4527999,17.9857005 39.4692449,17.9857005 Z"/></g></svg>