<svg xmlns="http://www.w3.org/2000/svg" width="32" height="32" viewBox="0 0 32 32"><path fill="#FFF" fill-rule="evenodd" d="M26.952,11.4336604 C18.1424111,11.4347647 11.0011043,18.5760716 11,27.3856604 C11,34.4296604 15.6,40.3996604 21.862,42.5536604 C22.646,42.6516604 22.938,42.1616604 22.938,41.7696604 L22.938,39.0296604 C18.536,40.0096604 17.558,36.8776604 17.558,36.8776604 C16.872,35.0176604 15.796,34.5276604 15.796,34.5276604 C14.328,33.5496604 15.892,33.5496604 15.892,33.5496604 C17.458,33.6476604 18.34,35.2136604 18.34,35.2136604 C19.808,37.6596604 22.058,36.9736604 22.94,36.5836604 C23.036,35.5076604 23.526,34.8236604 23.918,34.4316604 C20.394,34.0396604 16.676,32.6696604 16.676,26.5036604 C16.676,24.7436604 17.262,23.3716604 18.34,22.1976604 C18.24,21.9036604 17.654,20.2416604 18.536,18.0876604 C18.536,18.0876604 19.906,17.6956604 22.938,19.7516604 C24.21,19.3596604 25.582,19.2616604 26.952,19.2616604 C28.322,19.2616604 29.692,19.4576604 30.964,19.7516604 C33.998,17.6976604 35.368,18.0876604 35.368,18.0876604 C36.248,20.2416604 35.66,21.9036604 35.562,22.2956604 C36.639784,23.4698256 37.2341362,25.0078549 37.226,26.6016604 C37.226,32.7676604 33.506,34.0396604 29.986,34.4316604 C30.572,34.9196604 31.062,35.8976604 31.062,37.3656604 L31.062,41.7696604 C31.062,42.1616604 31.354,42.6496604 32.138,42.5536604 C38.6444285,40.3604856 43.0189684,34.251756 43.0000614,27.3856604 C42.902,18.5776604 35.76,11.4336604 26.952,11.4336604" transform="translate(-11 -11)"/></svg>