<svg xmlns="http://www.w3.org/2000/svg" xmlns:xlink="http://www.w3.org/1999/xlink" width="27" height="27" viewBox="0 0 27 27"><defs><filter id="b" width="116.7%" height="116.7%" x="-8.3%" y="-6.7%" filterUnits="objectBoundingBox"><feMorphology in="SourceAlpha" operator="dilate" radius=".6" result="shadowSpreadOuter1"/><feOffset dy=".4" in="shadowSpreadOuter1" result="shadowOffsetOuter1"/><feGaussianBlur in="shadowOffsetOuter1" result="shadowBlurOuter1" stdDeviation=".4"/><feComposite in="shadowBlurOuter1" in2="SourceAlpha" operator="out" result="shadowBlurOuter1"/><feColorMatrix in="shadowBlurOuter1" values="0 0 0 0 0 0 0 0 0 0 0 0 0 0 0 0 0 0 0.06 0"/></filter><path id="a" d="M7.6916556,-2.07168062e-16 L16.3083444,3.10752092e-16 C18.9829006,-1.80555915e-16 19.9527593,0.278476833 20.9305371,0.801398111 C21.9083149,1.32431939 22.6756806,2.09168511 23.1986019,3.06946289 C23.7215232,4.04724067 24,5.01709938 24,7.6916556 L24,16.3083444 C24,18.9829006 23.7215232,19.9527593 23.1986019,20.9305371 C22.6756806,21.9083149 21.9083149,22.6756806 20.9305371,23.1986019 C19.9527593,23.7215232 18.9829006,24 16.3083444,24 L7.6916556,24 C5.01709938,24 4.04724067,23.7215232 3.06946289,23.1986019 C2.09168511,22.6756806 1.32431939,21.9083149 0.801398111,20.9305371 C0.278476833,19.9527593 6.01853049e-17,18.9829006 -1.03584031e-16,16.3083444 L2.07168062e-16,7.6916556 C-1.2037061e-16,5.01709938 0.278476833,4.04724067 0.801398111,3.06946289 C1.32431939,2.09168511 2.09168511,1.32431939 3.06946289,0.801398111 C4.04724067,0.278476833 5.01709938,1.2037061e-16 7.6916556,-2.07168062e-16 Z"/></defs><g fill="none" fill-rule="evenodd" transform="translate(1.5 1)"><use xlink:href="#a" fill="#000" filter="url(#b)"/><path fill="#3C3735" stroke="#4C4744" stroke-width=".6" d="M16.3083444,-0.3 C19.0678598,-0.3 20.0643104,-0.00207310579 21.0720168,0.536854152 C22.1028484,1.08814893 22.9118511,1.89715162 23.4631458,2.92798323 C24.0020731,3.93568959 24.3,4.93214021 24.3,7.6916556 L24.3,16.3083444 C24.3,19.0678598 24.0020731,20.0643104 23.4631458,21.0720168 C22.9118511,22.1028484 22.1028484,22.9118511 21.0720168,23.4631458 C20.0643104,24.0020731 19.0678598,24.3 16.3083444,24.3 L7.6916556,24.3 C4.93214021,24.3 3.93568959,24.0020731 2.92798323,23.4631458 C1.89715162,22.9118511 1.08814893,22.1028484 0.536854152,21.0720168 C-0.00207310579,20.0643104 -0.3,19.0678598 -0.3,16.3083444 L-0.3,7.6916556 C-0.3,4.93214021 -0.00207310579,3.93568959 0.536854152,2.92798323 C1.08814893,1.89715162 1.89715162,1.08814893 2.92798323,0.536854152 C3.93568959,-0.00207310579 4.93214021,-0.3 7.6916556,-0.3 L16.3083444,-0.3 Z"/><path fill="#DFD1D7" fill-rule="nonzero" d="M16.1541722,4 C17.4914503,4 17.9763797,4.13923842 18.4652686,4.40069906 C18.9541574,4.66215969 19.3378403,5.04584256 19.5993009,5.53473144 C19.8607616,6.02362033 20,6.50854969 20,7.8458278 L20,16.1541722 C20,17.4914503 19.8607616,17.9763797 19.5993009,18.4652686 C19.3378403,18.9541574 18.9541574,19.3378403 18.4652686,19.5993009 C17.9763797,19.8607616 17.4914503,20 16.1541722,20 L7.8458278,20 C6.50854969,20 6.02362033,19.8607616 5.53473144,19.5993009 C5.04584256,19.3378403 4.66215969,18.9541574 4.40069906,18.4652686 C4.13923842,17.9763797 4,17.4914503 4,16.1541722 L4,7.8458278 C4,6.50854969 4.13923842,6.02362033 4.40069906,5.53473144 C4.66215969,5.04584256 5.04584256,4.66215969 5.53473144,4.40069906 C6.02362033,4.13923842 6.50854969,4 7.8458278,4 L16.1541722,4 Z M7.42,7.54866667 L7.40866667,16.78 L12.0266667,16.78 L12.032,9.864 L14.336,9.864 L14.3293333,16.7853333 L16.6386667,16.7853333 L16.6446667,7.56133333 L7.42,7.54866667 Z"/></g></svg>