<svg xmlns="http://www.w3.org/2000/svg" xmlns:xlink="http://www.w3.org/1999/xlink" viewBox="0 0 126 43"><defs><filter id="b" width="103.3%" height="110%" x="-1.6%" y="-4%" filterUnits="objectBoundingBox"><feMorphology in="SourceAlpha" operator="dilate" radius=".6" result="shadowSpreadOuter1"/><feOffset dy=".4" in="shadowSpreadOuter1" result="shadowOffsetOuter1"/><feGaussianBlur in="shadowOffsetOuter1" result="shadowBlurOuter1" stdDeviation=".4"/><feComposite in="shadowBlurOuter1" in2="SourceAlpha" operator="out" result="shadowBlurOuter1"/><feColorMatrix in="shadowBlurOuter1" values="0 0 0 0 0 0 0 0 0 0 0 0 0 0 0 0 0 0 0.0753387238 0"/></filter><filter id="d" width="126.7%" height="132%" x="-13.3%" y="-11%" filterUnits="objectBoundingBox"><feMorphology in="SourceAlpha" operator="dilate" radius=".3" result="shadowSpreadOuter1"/><feOffset dy="1" in="shadowSpreadOuter1" result="shadowOffsetOuter1"/><feGaussianBlur in="shadowOffsetOuter1" result="shadowBlurOuter1" stdDeviation=".6"/><feComposite in="shadowBlurOuter1" in2="SourceAlpha" operator="out" result="shadowBlurOuter1"/><feColorMatrix in="shadowBlurOuter1" values="0 0 0 0 0 0 0 0 0 0 0 0 0 0 0 0 0 0 0.503851617 0"/></filter><filter id="e" width="131.7%" height="138%" x="-15.8%" y="-14%" filterUnits="objectBoundingBox"><feGaussianBlur in="SourceAlpha" result="shadowBlurInner1" stdDeviation="1.5"/><feOffset dy="1" in="shadowBlurInner1" result="shadowOffsetInner1"/><feComposite in="shadowOffsetInner1" in2="SourceAlpha" k2="-1" k3="1" operator="arithmetic" result="shadowInnerInner1"/><feColorMatrix in="shadowInnerInner1" values="0 0 0 0 1 0 0 0 0 1 0 0 0 0 1 0 0 0 0.5 0"/></filter><filter id="g" width="116.7%" height="122.2%" x="-8.3%" y="-11.1%" filterUnits="objectBoundingBox"><feMorphology in="SourceAlpha" radius="1" result="shadowSpreadInner1"/><feGaussianBlur in="shadowSpreadInner1" result="shadowBlurInner1" stdDeviation="1"/><feOffset dy="1" in="shadowBlurInner1" result="shadowOffsetInner1"/><feComposite in="shadowOffsetInner1" in2="SourceAlpha" k2="-1" k3="1" operator="arithmetic" result="shadowInnerInner1"/><feColorMatrix in="shadowInnerInner1" result="shadowMatrixInner1" values="0 0 0 0 0.901960784 0 0 0 0 0.811764706 0 0 0 0 0.803921569 0 0 0 0.452442089 0"/><feMorphology in="SourceAlpha" radius="1.2" result="shadowSpreadInner2"/><feGaussianBlur in="shadowSpreadInner2" result="shadowBlurInner2" stdDeviation=".9"/><feOffset dy=".8" in="shadowBlurInner2" result="shadowOffsetInner2"/><feComposite in="shadowOffsetInner2" in2="SourceAlpha" k2="-1" k3="1" operator="arithmetic" result="shadowInnerInner2"/><feColorMatrix in="shadowInnerInner2" result="shadowMatrixInner2" values="0 0 0 0 1 0 0 0 0 1 0 0 0 0 1 0 0 0 1 0"/><feMerge><feMergeNode in="shadowMatrixInner1"/><feMergeNode in="shadowMatrixInner2"/></feMerge></filter><filter id="i" width="126.7%" height="132%" x="-13.3%" y="-11%" filterUnits="objectBoundingBox"><feMorphology in="SourceAlpha" operator="dilate" radius=".3" result="shadowSpreadOuter1"/><feOffset dy="1" in="shadowSpreadOuter1" result="shadowOffsetOuter1"/><feGaussianBlur in="shadowOffsetOuter1" result="shadowBlurOuter1" stdDeviation=".6"/><feComposite in="shadowBlurOuter1" in2="SourceAlpha" operator="out" result="shadowBlurOuter1"/><feColorMatrix in="shadowBlurOuter1" values="0 0 0 0 0 0 0 0 0 0 0 0 0 0 0 0 0 0 0.503851617 0"/></filter><filter id="j" width="131.7%" height="138%" x="-15.8%" y="-14%" filterUnits="objectBoundingBox"><feGaussianBlur in="SourceAlpha" result="shadowBlurInner1" stdDeviation="1.5"/><feOffset dy="1" in="shadowBlurInner1" result="shadowOffsetInner1"/><feComposite in="shadowOffsetInner1" in2="SourceAlpha" k2="-1" k3="1" operator="arithmetic" result="shadowInnerInner1"/><feColorMatrix in="shadowInnerInner1" values="0 0 0 0 1 0 0 0 0 1 0 0 0 0 1 0 0 0 0.5 0"/></filter><filter id="l" width="116.7%" height="122.2%" x="-8.3%" y="-11.1%" filterUnits="objectBoundingBox"><feMorphology in="SourceAlpha" radius="1" result="shadowSpreadInner1"/><feGaussianBlur in="shadowSpreadInner1" result="shadowBlurInner1" stdDeviation="1"/><feOffset dy="1" in="shadowBlurInner1" result="shadowOffsetInner1"/><feComposite in="shadowOffsetInner1" in2="SourceAlpha" k2="-1" k3="1" operator="arithmetic" result="shadowInnerInner1"/><feColorMatrix in="shadowInnerInner1" result="shadowMatrixInner1" values="0 0 0 0 0.901960784 0 0 0 0 0.811764706 0 0 0 0 0.803921569 0 0 0 0.452442089 0"/><feMorphology in="SourceAlpha" radius="1.2" result="shadowSpreadInner2"/><feGaussianBlur in="shadowSpreadInner2" result="shadowBlurInner2" stdDeviation=".9"/><feOffset dy=".8" in="shadowBlurInner2" result="shadowOffsetInner2"/><feComposite in="shadowOffsetInner2" in2="SourceAlpha" k2="-1" k3="1" operator="arithmetic" result="shadowInnerInner2"/><feColorMatrix in="shadowInnerInner2" result="shadowMatrixInner2" values="0 0 0 0 1 0 0 0 0 1 0 0 0 0 1 0 0 0 1 0"/><feMerge><feMergeNode in="shadowMatrixInner1"/><feMergeNode in="shadowMatrixInner2"/></feMerge></filter><path id="a" d="M20,0 L102,0 C113.045695,-2.02906125e-15 122,8.954305 122,20 C122,31.045695 113.045695,40 102,40 L20,40 C8.954305,40 6.76353751e-16,31.045695 0,20 C-1.3527075e-15,8.954305 8.954305,1.3527075e-15 20,0 Z"/><path id="c" d="M6.409713,-1.72640051e-16 L17.590287,2.58960077e-16 C19.8190838,-1.50463262e-16 20.6272994,0.232064028 21.4421143,0.667831759 C22.2569291,1.10359949 22.8964005,1.74307093 23.3321682,2.55788574 C23.767936,3.37270056 24,4.18091615 24,6.409713 L24,13.590287 C24,15.8190838 23.767936,16.6272994 23.3321682,17.4421143 C22.8964005,18.2569291 22.2569291,18.8964005 21.4421143,19.3321682 C20.6272994,19.767936 19.8190838,20 17.590287,20 L6.409713,20 C4.18091615,20 3.37270056,19.767936 2.55788574,19.3321682 C1.74307093,18.8964005 1.10359949,18.2569291 0.667831759,17.4421143 C0.232064028,16.6272994 9.3833284e-16,15.8190838 8.01858394e-16,13.590287 L1.72640051e-16,6.409713 C-1.00308841e-16,4.18091615 0.232064028,3.37270056 0.667831759,2.55788574 C1.10359949,1.74307093 1.74307093,1.10359949 2.55788574,0.667831759 C3.37270056,0.232064028 4.18091615,1.00308841e-16 6.409713,-1.72640051e-16 Z"/><path id="f" d="M6.409713,-1.72640051e-16 L17.590287,2.58960077e-16 C19.8190838,-1.50463262e-16 20.6272994,0.232064028 21.4421143,0.667831759 C22.2569291,1.10359949 22.8964005,1.74307093 23.3321682,2.55788574 C23.767936,3.37270056 24,4.18091615 24,6.409713 L24,11.590287 C24,13.8190838 23.767936,14.6272994 23.3321682,15.4421143 C22.8964005,16.2569291 22.2569291,16.8964005 21.4421143,17.3321682 C20.6272994,17.767936 19.8190838,18 17.590287,18 L6.409713,18 C4.18091615,18 3.37270056,17.767936 2.55788574,17.3321682 C1.74307093,16.8964005 1.10359949,16.2569291 0.667831759,15.4421143 C0.232064028,14.6272994 9.3833284e-16,13.8190838 8.01858394e-16,11.590287 L1.72640051e-16,6.409713 C-1.00308841e-16,4.18091615 0.232064028,3.37270056 0.667831759,2.55788574 C1.10359949,1.74307093 1.74307093,1.10359949 2.55788574,0.667831759 C3.37270056,0.232064028 4.18091615,1.00308841e-16 6.409713,-1.72640051e-16 Z"/><path id="h" d="M6.409713,-1.72640051e-16 L17.590287,2.58960077e-16 C19.8190838,-1.50463262e-16 20.6272994,0.232064028 21.4421143,0.667831759 C22.2569291,1.10359949 22.8964005,1.74307093 23.3321682,2.55788574 C23.767936,3.37270056 24,4.18091615 24,6.409713 L24,13.590287 C24,15.8190838 23.767936,16.6272994 23.3321682,17.4421143 C22.8964005,18.2569291 22.2569291,18.8964005 21.4421143,19.3321682 C20.6272994,19.767936 19.8190838,20 17.590287,20 L6.409713,20 C4.18091615,20 3.37270056,19.767936 2.55788574,19.3321682 C1.74307093,18.8964005 1.10359949,18.2569291 0.667831759,17.4421143 C0.232064028,16.6272994 9.3833284e-16,15.8190838 8.01858394e-16,13.590287 L1.72640051e-16,6.409713 C-1.00308841e-16,4.18091615 0.232064028,3.37270056 0.667831759,2.55788574 C1.10359949,1.74307093 1.74307093,1.10359949 2.55788574,0.667831759 C3.37270056,0.232064028 4.18091615,1.00308841e-16 6.409713,-1.72640051e-16 Z"/><path id="k" d="M6.409713,-1.72640051e-16 L17.590287,2.58960077e-16 C19.8190838,-1.50463262e-16 20.6272994,0.232064028 21.4421143,0.667831759 C22.2569291,1.10359949 22.8964005,1.74307093 23.3321682,2.55788574 C23.767936,3.37270056 24,4.18091615 24,6.409713 L24,11.590287 C24,13.8190838 23.767936,14.6272994 23.3321682,15.4421143 C22.8964005,16.2569291 22.2569291,16.8964005 21.4421143,17.3321682 C20.6272994,17.767936 19.8190838,18 17.590287,18 L6.409713,18 C4.18091615,18 3.37270056,17.767936 2.55788574,17.3321682 C1.74307093,16.8964005 1.10359949,16.2569291 0.667831759,15.4421143 C0.232064028,14.6272994 9.3833284e-16,13.8190838 8.01858394e-16,11.590287 L1.72640051e-16,6.409713 C-1.00308841e-16,4.18091615 0.232064028,3.37270056 0.667831759,2.55788574 C1.10359949,1.74307093 1.74307093,1.10359949 2.55788574,0.667831759 C3.37270056,0.232064028 4.18091615,1.00308841e-16 6.409713,-1.72640051e-16 Z"/></defs><g fill="none" fill-rule="evenodd" transform="translate(2 1)"><use xlink:href="#a" fill="#000" filter="url(#b)"/><path fill="#3C3735" stroke="#514946" stroke-width=".6" d="M102,-0.3 C107.60569,-0.3 112.68069,1.97215489 116.354268,5.64573234 C120.027845,9.31930979 122.3,14.3943098 122.3,20 C122.3,25.6056902 120.027845,30.6806902 116.354268,34.3542677 C112.68069,38.0278451 107.60569,40.3 102,40.3 L20,40.3 C14.3943098,40.3 9.31930979,38.0278451 5.64573234,34.3542677 C1.97215489,30.6806902 -0.3,25.6056902 -0.3,20 C-0.3,14.3943098 1.97215489,9.31930979 5.64573234,5.64573234 C9.31930979,1.97215489 14.3943098,-0.3 20,-0.3 Z"/><g transform="translate(15.8 10)"><g transform="translate(61.2)"><use xlink:href="#c" fill="#000" filter="url(#d)"/><use xlink:href="#c" fill="#D4CCCB"/><use xlink:href="#c" fill="#000" filter="url(#e)"/><path stroke="#F4F1F0" stroke-linejoin="square" stroke-opacity=".35" stroke-width=".4" d="M6.409713,0.2 L17.590287,0.2 C19.7624444,0.2 20.5529321,0.419097321 21.3477945,0.844194399 C22.1272401,1.26104646 22.7389535,1.87275992 23.1558056,2.65220551 C23.5809027,3.44706794 23.8,4.2375556 23.8,6.409713 L23.8,13.590287 C23.8,15.7624444 23.5809027,16.5529321 23.1558056,17.3477945 C22.7389535,18.1272401 22.1272401,18.7389535 21.3477945,19.1558056 C20.5529321,19.5809027 19.7624444,19.8 17.590287,19.8 L6.409713,19.8 C4.2375556,19.8 3.44706794,19.5809027 2.65220551,19.1558056 C1.87275992,18.7389535 1.26104646,18.1272401 0.844194399,17.3477945 C0.419097321,16.5529321 0.2,15.7624444 0.2,13.590287 L0.2,6.409713 C0.2,4.2375556 0.419097321,3.44706794 0.844194399,2.65220551 C1.26104646,1.87275992 1.87275992,1.26104646 2.65220551,0.844194399 C3.44706794,0.419097321 4.2375556,0.2 6.409713,0.2 Z"/><use xlink:href="#f" fill="#F4F2F1"/><use xlink:href="#f" fill="#000" filter="url(#g)"/><path stroke="#D5CDCC" stroke-linejoin="square" stroke-width=".4" d="M6.409713,0.2 L17.590287,0.2 C19.7624444,0.2 20.5529321,0.419097321 21.3477945,0.844194399 C22.1272401,1.26104646 22.7389535,1.87275992 23.1558056,2.65220551 C23.5809027,3.44706794 23.8,4.2375556 23.8,6.409713 L23.8,11.590287 C23.8,13.7624444 23.5809027,14.5529321 23.1558056,15.3477945 C22.7389535,16.1272401 22.1272401,16.7389535 21.3477945,17.1558056 C20.5529321,17.5809027 19.7624444,17.8 17.590287,17.8 L6.409713,17.8 C4.2375556,17.8 3.44706794,17.5809027 2.65220551,17.1558056 C1.87275992,16.7389535 1.26104646,16.1272401 0.844194399,15.3477945 C0.419097321,14.5529321 0.2,13.7624444 0.2,11.590287 L0.2,6.409713 C0.2,4.2375556 0.419097321,3.44706794 0.844194399,2.65220551 C1.26104646,1.87275992 1.87275992,1.26104646 2.65220551,0.844194399 C3.44706794,0.419097321 4.2375556,0.2 6.409713,0.2 Z"/><path fill="#7C6F6E" fill-rule="nonzero" d="M0.984,6.2758125 L0.787125,4.2144375 L4.728,0 L6.8518125,0 L0.984,6.2758125 Z M0,8.4 L0,0 L1.62,0 L1.62,8.4 L0,8.4 Z M4.9584375,8.4 L1.6104375,4.128 L2.79825,3.144 L6.9838125,8.4 L4.9584375,8.4 Z" transform="translate(8.508 4.8)"/></g><g transform="translate(33.2)"><use xlink:href="#h" fill="#000" filter="url(#i)"/><use xlink:href="#h" fill="#D4CCCB"/><use xlink:href="#h" fill="#000" filter="url(#j)"/><path stroke="#F4F1F0" stroke-linejoin="square" stroke-opacity=".35" stroke-width=".4" d="M6.409713,0.2 L17.590287,0.2 C19.7624444,0.2 20.5529321,0.419097321 21.3477945,0.844194399 C22.1272401,1.26104646 22.7389535,1.87275992 23.1558056,2.65220551 C23.5809027,3.44706794 23.8,4.2375556 23.8,6.409713 L23.8,13.590287 C23.8,15.7624444 23.5809027,16.5529321 23.1558056,17.3477945 C22.7389535,18.1272401 22.1272401,18.7389535 21.3477945,19.1558056 C20.5529321,19.5809027 19.7624444,19.8 17.590287,19.8 L6.409713,19.8 C4.2375556,19.8 3.44706794,19.5809027 2.65220551,19.1558056 C1.87275992,18.7389535 1.26104646,18.1272401 0.844194399,17.3477945 C0.419097321,16.5529321 0.2,15.7624444 0.2,13.590287 L0.2,6.409713 C0.2,4.2375556 0.419097321,3.44706794 0.844194399,2.65220551 C1.26104646,1.87275992 1.87275992,1.26104646 2.65220551,0.844194399 C3.44706794,0.419097321 4.2375556,0.2 6.409713,0.2 Z"/><use xlink:href="#k" fill="#F4F2F1"/><use xlink:href="#k" fill="#000" filter="url(#l)"/><path stroke="#D5CDCC" stroke-linejoin="square" stroke-width=".4" d="M6.409713,0.2 L17.590287,0.2 C19.7624444,0.2 20.5529321,0.419097321 21.3477945,0.844194399 C22.1272401,1.26104646 22.7389535,1.87275992 23.1558056,2.65220551 C23.5809027,3.44706794 23.8,4.2375556 23.8,6.409713 L23.8,11.590287 C23.8,13.7624444 23.5809027,14.5529321 23.1558056,15.3477945 C22.7389535,16.1272401 22.1272401,16.7389535 21.3477945,17.1558056 C20.5529321,17.5809027 19.7624444,17.8 17.590287,17.8 L6.409713,17.8 C4.2375556,17.8 3.44706794,17.5809027 2.65220551,17.1558056 C1.87275992,16.7389535 1.26104646,16.1272401 0.844194399,15.3477945 C0.419097321,14.5529321 0.2,13.7624444 0.2,11.590287 L0.2,6.409713 C0.2,4.2375556 0.419097321,3.44706794 0.844194399,2.65220551 C1.26104646,1.87275992 1.87275992,1.26104646 2.65220551,0.844194399 C3.44706794,0.419097321 4.2375556,0.2 6.409713,0.2 Z"/><path fill="#7C6F6E" fill-rule="nonzero" d="M3.03515625,4.04296875 L2.02148438,4.04296875 C1.46289063,4.04296875 0.986328125,3.84570312 0.591796875,3.45117188 C0.197265625,3.05664063 0,2.58007812 0,2.02148438 C0,1.46289063 0.197265625,0.986328125 0.591796875,0.591796875 C0.986328125,0.197265625 1.46289063,0 2.02148438,0 C2.58007812,0 3.05761719,0.197265625 3.45410156,0.591796875 C3.85058594,0.986328125 4.04882813,1.46289063 4.04882813,2.02148438 L4.04882813,3.03515625 L5.0625,3.03515625 L5.0625,2.02148438 C5.0625,1.46289063 5.25976563,0.986328125 5.65429688,0.591796875 C6.04882812,0.197265625 6.52539063,0 7.08398438,0 C7.64257812,0 8.11914063,0.197265625 8.51367188,0.591796875 C8.90820312,0.986328125 9.10546875,1.46289063 9.10546875,2.02148438 C9.10546875,2.58007812 8.90820312,3.05664063 8.51367188,3.45117188 C8.11914063,3.84570312 7.64257812,4.04296875 7.08398438,4.04296875 L6.0703125,4.04296875 L6.0703125,5.05664062 L7.08398438,5.05664062 C7.64257812,5.05664062 8.11914063,5.25488281 8.51367188,5.65136719 C8.90820312,6.04785156 9.10546875,6.52539063 9.10546875,7.08398438 C9.10546875,7.64257812 8.90820312,8.11914063 8.51367188,8.51367188 C8.11914063,8.90820312 7.64257812,9.10546875 7.08398438,9.10546875 C6.52539063,9.10546875 6.04882812,8.90820312 5.65429688,8.51367188 C5.25976563,8.11914063 5.0625,7.64257812 5.0625,7.08398438 L5.0625,6.0703125 L4.04882813,6.0703125 L4.04882813,7.08398438 C4.04882813,7.64257812 3.85058594,8.11914063 3.45410156,8.51367188 C3.05761719,8.90820312 2.58007812,9.10546875 2.02148438,9.10546875 C1.46289063,9.10546875 0.986328125,8.90820312 0.591796875,8.51367188 C0.197265625,8.11914063 0,7.64257812 0,7.08398438 C0,6.52539063 0.197265625,6.04785156 0.591796875,5.65136719 C0.986328125,5.25488281 1.46289063,5.05664062 2.02148438,5.05664062 L3.03515625,5.05664062 L3.03515625,4.04296875 Z M4.04882812,5.05664062 L5.0625,5.05664062 L5.0625,4.04296875 L4.04882812,4.04296875 L4.04882812,5.05664062 Z M3.03515625,3.03515625 L3.03515625,2.02148438 C3.03515625,1.74414062 2.93652344,1.50585938 2.73925781,1.30664063 C2.54199219,1.10742188 2.30273438,1.0078125 2.02148438,1.0078125 C1.74414062,1.0078125 1.50683594,1.10742188 1.30957031,1.30664063 C1.11230469,1.50585938 1.01367188,1.74414062 1.01367188,2.02148438 C1.01367188,2.30273438 1.11230469,2.54199219 1.30957031,2.73925781 C1.50683594,2.93652344 1.74414062,3.03515625 2.02148438,3.03515625 L3.03515625,3.03515625 Z M6.0703125,3.03515625 L7.08398438,3.03515625 C7.36523438,3.03515625 7.60449219,2.93554688 7.80175781,2.73632812 C7.99902344,2.53710938 8.09765625,2.29882812 8.09765625,2.02148438 C8.09765625,1.74414062 7.99804688,1.50585938 7.79882812,1.30664063 C7.59960938,1.10742188 7.36132812,1.0078125 7.08398438,1.0078125 C6.80273438,1.0078125 6.56347656,1.10742188 6.36621094,1.30664063 C6.16894531,1.50585938 6.0703125,1.74414062 6.0703125,2.02148438 L6.0703125,3.03515625 Z M6.0703125,6.0703125 L6.0703125,7.08398438 C6.0703125,7.36132812 6.16992188,7.59863281 6.36914062,7.79589844 C6.56835938,7.99316406 6.80664062,8.09179688 7.08398438,8.09179688 C7.36523438,8.09179688 7.60449219,7.99316406 7.80175781,7.79589844 C7.99902344,7.59863281 8.09765625,7.359375 8.09765625,7.078125 C8.09765625,6.80078125 7.99804688,6.56347656 7.79882812,6.36621094 C7.59960938,6.16894531 7.36132812,6.0703125 7.08398438,6.0703125 L6.0703125,6.0703125 Z M3.03515625,6.0703125 L2.02148438,6.0703125 C1.74414062,6.0703125 1.50683594,6.16894531 1.30957031,6.36621094 C1.11230469,6.56347656 1.01367188,6.80273438 1.01367188,7.08398438 C1.01367188,7.36132812 1.11230469,7.59863281 1.30957031,7.79589844 C1.50683594,7.99316406 1.74414062,8.09179688 2.02148438,8.09179688 C2.30273438,8.09179688 2.54199219,7.99316406 2.73925781,7.79589844 C2.93652344,7.59863281 3.03515625,7.36132812 3.03515625,7.08398438 L3.03515625,6.0703125 Z" transform="translate(7.447 4.447)"/></g><path fill="#DFD1D7" fill-rule="nonzero" d="M13.0553514,1.95256289 C16.1043007,4.62651589 16.6118411,9.16605083 14.2697684,12.4410599 L14.186,12.553 L14.2140006,12.5160006 L18.0450639,16.3488753 L18.0236128,16.3302668 L18.0483636,16.3513426 C18.5172129,16.8201918 18.5172129,17.5803467 18.0483636,18.049196 C17.5795143,18.5180452 16.8193595,18.5180452 16.3504953,18.0491811 L12.5160006,14.2140006 L12.4410599,14.2697684 C9.23882881,16.5597951 4.82764854,16.1254509 2.1335559,13.2548463 L1.95256289,13.0553514 C-0.780811295,9.93864762 -0.626895622,5.23572782 2.3044161,2.3044161 C5.23572782,-0.626895622 9.93864762,-0.780811295 13.0553514,1.95256289 Z M7.87451648,2.41447373 C4.85901814,2.41447373 2.41447373,4.85901814 2.41447373,7.87451648 L2.41902728,8.09382444 C2.53707376,11.0063493 4.93390954,13.3315367 7.87451648,13.3345592 C10.8900148,13.3345592 13.3345592,10.8900148 13.3345592,7.87451648 C13.3345592,4.85901814 10.8900148,2.41447373 7.87451648,2.41447373 Z" transform="translate(0 .8)"/></g></g></svg>