<svg xmlns="http://www.w3.org/2000/svg" viewBox="0 0 20 20"><path fill="#DFD1D7" d="M13.0553514,1.95256289 C16.1043007,4.62651589 16.6118411,9.16605083 14.2697684,12.4410599 L14.186,12.553 L14.2140006,12.5160006 L18.0450639,16.3488753 L18.0236128,16.3302668 L18.0483636,16.3513426 C18.5172129,16.8201918 18.5172129,17.5803467 18.0483636,18.049196 C17.5795143,18.5180452 16.8193595,18.5180452 16.3504953,18.0491811 L12.5160006,14.2140006 L12.4410599,14.2697684 C9.23882881,16.5597951 4.82764854,16.1254509 2.1335559,13.2548463 L1.95256289,13.0553514 C-0.780811295,9.93864762 -0.626895622,5.23572782 2.3044161,2.3044161 C5.23572782,-0.626895622 9.93864762,-0.780811295 13.0553514,1.95256289 Z M7.87451648,2.41447373 C4.85901814,2.41447373 2.41447373,4.85901814 2.41447373,7.87451648 L2.41902728,8.09382444 C2.53707376,11.0063493 4.93390954,13.3315367 7.87451648,13.3345592 C10.8900148,13.3345592 13.3345592,10.8900148 13.3345592,7.87451648 C13.3345592,4.85901814 10.8900148,2.41447373 7.87451648,2.41447373 Z" transform="translate(.8 .8)"/></svg>