<svg width="27" height="27" viewBox="0 0 27 27" fill="none" xmlns="http://www.w3.org/2000/svg">
<path fill-rule="evenodd" clip-rule="evenodd" d="M17.8083 0.700001C20.5679 0.700001 21.5643 0.997928 22.572 1.53685C23.6028 2.08815 24.4119 2.89715 24.9631 3.92798C25.5021 4.93569 25.8 5.93214 25.8 8.69166V17.3083C25.8 20.0679 25.5021 21.0643 24.9631 22.072C24.4119 23.1028 23.6028 23.9119 22.572 24.4631C21.5643 25.0021 20.5679 25.3 17.8083 25.3H9.19166C6.43214 25.3 5.43569 25.0021 4.42798 24.4631C3.39715 23.9119 2.58815 23.1028 2.03685 22.072C1.49793 21.0643 1.2 20.0679 1.2 17.3083V8.69166C1.2 5.93214 1.49793 4.93569 2.03685 3.92798C2.58815 2.89715 3.39715 2.08815 4.42798 1.53685C5.43569 0.997928 6.43214 0.700001 9.19166 0.700001H17.8083Z" fill="#3C3735" stroke="#4C4744" stroke-width="0.6"/>
<path fill-rule="evenodd" clip-rule="evenodd" d="M9.25 7.5C9.13278 7.49987 9.01683 7.52428 8.90961 7.57165C8.8024 7.61902 8.70628 7.68831 8.62744 7.77506C8.54861 7.8618 8.4888 7.96409 8.45187 8.07534C8.41494 8.18658 8.40169 8.30433 8.413 8.421L8.613 10.517C8.66312 11.0467 8.53581 11.578 8.25108 12.0275C7.96634 12.4769 7.54033 12.819 7.04 13C7.53996 13.1813 7.96553 13.5236 8.24988 13.973C8.53423 14.4224 8.66125 14.9536 8.611 15.483L8.411 17.579C8.39969 17.6958 8.41295 17.8136 8.44995 17.9249C8.48694 18.0362 8.54683 18.1386 8.62578 18.2253C8.70472 18.3121 8.80096 18.3813 8.9083 18.4287C9.01564 18.476 9.1317 18.5003 9.249 18.5C9.44791 18.5 9.63868 18.579 9.77933 18.7197C9.91998 18.8603 9.999 19.0511 9.999 19.25C9.999 19.4489 9.91998 19.6397 9.77933 19.7803C9.63868 19.921 9.44791 20 9.249 20C8.92285 20.0001 8.60028 19.932 8.30199 19.8001C8.0037 19.6682 7.73628 19.4754 7.51689 19.2341C7.2975 18.9927 7.13097 18.7082 7.02801 18.3987C6.92505 18.0892 6.88792 17.7617 6.919 17.437L7.118 15.341C7.13808 15.1269 7.08085 14.9127 6.95667 14.7372C6.83249 14.5616 6.64956 14.4363 6.441 14.384L6.302 14.349C6.00081 14.2742 5.73332 14.1007 5.54214 13.8562C5.35097 13.6118 5.24711 13.3103 5.24711 13C5.24711 12.6897 5.35097 12.3882 5.54214 12.1438C5.73332 11.8993 6.00081 11.7258 6.302 11.651L6.442 11.616C6.65037 11.5635 6.83307 11.4381 6.95706 11.2626C7.08104 11.087 7.13813 10.873 7.118 10.659L6.918 8.563C6.8869 8.23817 6.92409 7.91042 7.02717 7.60081C7.13025 7.2912 7.29695 7.00657 7.51656 6.76521C7.73617 6.52384 8.00383 6.33108 8.30236 6.1993C8.60089 6.06752 8.92368 5.99963 9.25 6C9.44891 6 9.63968 6.07902 9.78033 6.21967C9.92098 6.36032 10 6.55109 10 6.75C10 6.94891 9.92098 7.13968 9.78033 7.28033C9.63968 7.42098 9.44891 7.5 9.25 7.5ZM14.055 10.139C14.067 10.0259 14.1035 9.91687 14.1621 9.81943C14.2207 9.72198 14.2999 9.63852 14.3941 9.57488C14.4883 9.51125 14.5953 9.46898 14.7075 9.45103C14.8198 9.43309 14.9346 9.4399 15.044 9.471C15.1393 9.50031 15.2396 9.5103 15.3388 9.5004C15.4381 9.49049 15.5344 9.46089 15.622 9.41332C15.7097 9.36574 15.787 9.30116 15.8494 9.22335C15.9118 9.14554 15.9581 9.05605 15.9855 8.96014C16.0129 8.86423 16.0209 8.76382 16.009 8.66478C15.9971 8.56575 15.9656 8.47007 15.9163 8.38336C15.867 8.29665 15.8009 8.22065 15.7219 8.1598C15.6428 8.09896 15.5524 8.05449 15.456 8.029C15.1362 7.93791 14.8004 7.91786 14.4721 7.97025C14.1438 8.02263 13.8309 8.14619 13.5554 8.33227C13.2798 8.51834 13.0483 8.76242 12.8771 9.0474C12.7058 9.33238 12.599 9.65137 12.564 9.982L12.456 11H11.5C11.3011 11 11.1103 11.079 10.9697 11.2197C10.829 11.3603 10.75 11.5511 10.75 11.75C10.75 11.9489 10.829 12.1397 10.9697 12.2803C11.1103 12.421 11.3011 12.5 11.5 12.5H12.298L11.945 15.861C11.933 15.9741 11.8964 16.0831 11.8379 16.1806C11.7793 16.278 11.7001 16.3615 11.6059 16.4251C11.5117 16.4888 11.4047 16.531 11.2925 16.549C11.1802 16.5669 11.0654 16.5601 10.956 16.529C10.8607 16.4997 10.7604 16.4897 10.6612 16.4996C10.5619 16.5095 10.4656 16.5391 10.378 16.5867C10.2903 16.6343 10.213 16.6988 10.1506 16.7767C10.0882 16.8545 10.0419 16.9439 10.0145 17.0399C9.98709 17.1358 9.9791 17.2362 9.99098 17.3352C10.0029 17.4343 10.0344 17.5299 10.0837 17.6166C10.133 17.7034 10.1991 17.7794 10.2781 17.8402C10.3572 17.901 10.4476 17.9455 10.544 17.971C10.8638 18.0621 11.1996 18.0821 11.5279 18.0298C11.8562 17.9774 12.1691 17.8538 12.4446 17.6677C12.7202 17.4817 12.9517 17.2376 13.1229 16.9526C13.2942 16.6676 13.401 16.3486 13.436 16.018L13.806 12.5H14.75C14.9489 12.5 15.1397 12.421 15.2803 12.2803C15.421 12.1397 15.5 11.9489 15.5 11.75C15.5 11.5511 15.421 11.3603 15.2803 11.2197C15.1397 11.079 14.9489 11 14.75 11H13.965L14.055 10.139ZM17.588 17.579C17.5993 17.6958 17.586 17.8136 17.5491 17.9249C17.5121 18.0362 17.4522 18.1386 17.3732 18.2253C17.2943 18.3121 17.198 18.3813 17.0907 18.4287C16.9834 18.476 16.8673 18.5003 16.75 18.5C16.5511 18.5 16.3603 18.579 16.2197 18.7197C16.079 18.8603 16 19.0511 16 19.25C16 19.4489 16.079 19.6397 16.2197 19.7803C16.3603 19.921 16.5511 20 16.75 20C17.0761 20.0001 17.3987 19.932 17.697 19.8001C17.9953 19.6682 18.2627 19.4754 18.4821 19.2341C18.7015 18.9927 18.868 18.7082 18.971 18.3987C19.0739 18.0892 19.1111 17.7617 19.08 17.437L18.881 15.341C18.8609 15.1269 18.9181 14.9127 19.0423 14.7372C19.1665 14.5616 19.3494 14.4363 19.558 14.384L19.697 14.349C19.9982 14.2742 20.2657 14.1007 20.4569 13.8562C20.648 13.6118 20.7519 13.3103 20.7519 13C20.7519 12.6897 20.648 12.3882 20.4569 12.1438C20.2657 11.8993 19.9982 11.7258 19.697 11.651L19.557 11.616C19.3486 11.5635 19.1659 11.4381 19.0419 11.2626C18.918 11.087 18.8609 10.873 18.881 10.659L19.081 8.563C19.1121 8.23825 19.0749 7.91059 18.9719 7.60105C18.8689 7.2915 18.7023 7.00692 18.4828 6.76558C18.2633 6.52423 17.9957 6.33145 17.6973 6.1996C17.3989 6.06776 17.0762 5.99977 16.75 6C16.5511 6 16.3603 6.07902 16.2197 6.21967C16.079 6.36032 16 6.55109 16 6.75C16 6.94891 16.079 7.13968 16.2197 7.28033C16.3603 7.42098 16.5511 7.5 16.75 7.5C17.246 7.5 17.634 7.927 17.588 8.421L17.388 10.517C17.3377 11.0464 17.4648 11.5776 17.7491 12.027C18.0335 12.4764 18.459 12.8187 18.959 13C18.459 13.1813 18.0335 13.5236 17.7491 13.973C17.4648 14.4224 17.3377 14.9536 17.388 15.483L17.588 17.579Z" fill="#DFD1D7"/>
</svg>
