<svg xmlns="http://www.w3.org/2000/svg" xmlns:xlink="http://www.w3.org/1999/xlink" width="27" height="27" viewBox="0 0 27 27"><defs><filter id="b" width="116.7%" height="116.7%" x="-8.3%" y="-6.7%" filterUnits="objectBoundingBox"><feMorphology in="SourceAlpha" operator="dilate" radius=".6" result="shadowSpreadOuter1"/><feOffset dy=".4" in="shadowSpreadOuter1" result="shadowOffsetOuter1"/><feGaussianBlur in="shadowOffsetOuter1" result="shadowBlurOuter1" stdDeviation=".4"/><feComposite in="shadowBlurOuter1" in2="SourceAlpha" operator="out" result="shadowBlurOuter1"/><feColorMatrix in="shadowBlurOuter1" values="0 0 0 0 0 0 0 0 0 0 0 0 0 0 0 0 0 0 0.06 0"/></filter><path id="a" d="M7.6916556,-2.07168062e-16 L16.3083444,3.10752092e-16 C18.9829006,-1.80555915e-16 19.9527593,0.278476833 20.9305371,0.801398111 C21.9083149,1.32431939 22.6756806,2.09168511 23.1986019,3.06946289 C23.7215232,4.04724067 24,5.01709938 24,7.6916556 L24,16.3083444 C24,18.9829006 23.7215232,19.9527593 23.1986019,20.9305371 C22.6756806,21.9083149 21.9083149,22.6756806 20.9305371,23.1986019 C19.9527593,23.7215232 18.9829006,24 16.3083444,24 L7.6916556,24 C5.01709938,24 4.04724067,23.7215232 3.06946289,23.1986019 C2.09168511,22.6756806 1.32431939,21.9083149 0.801398111,20.9305371 C0.278476833,19.9527593 6.01853049e-17,18.9829006 -1.03584031e-16,16.3083444 L2.07168062e-16,7.6916556 C-1.2037061e-16,5.01709938 0.278476833,4.04724067 0.801398111,3.06946289 C1.32431939,2.09168511 2.09168511,1.32431939 3.06946289,0.801398111 C4.04724067,0.278476833 5.01709938,1.2037061e-16 7.6916556,-2.07168062e-16 Z"/></defs><g fill="none" fill-rule="evenodd" transform="translate(1.5 1)"><use xlink:href="#a" fill="#000" filter="url(#b)"/><path fill="#3C3735" stroke="#4C4744" stroke-width=".6" d="M16.3083444,-0.3 C19.0678598,-0.3 20.0643104,-0.00207310579 21.0720168,0.536854152 C22.1028484,1.08814893 22.9118511,1.89715162 23.4631458,2.92798323 C24.0020731,3.93568959 24.3,4.93214021 24.3,7.6916556 L24.3,16.3083444 C24.3,19.0678598 24.0020731,20.0643104 23.4631458,21.0720168 C22.9118511,22.1028484 22.1028484,22.9118511 21.0720168,23.4631458 C20.0643104,24.0020731 19.0678598,24.3 16.3083444,24.3 L7.6916556,24.3 C4.93214021,24.3 3.93568959,24.0020731 2.92798323,23.4631458 C1.89715162,22.9118511 1.08814893,22.1028484 0.536854152,21.0720168 C-0.00207310579,20.0643104 -0.3,19.0678598 -0.3,16.3083444 L-0.3,7.6916556 C-0.3,4.93214021 -0.00207310579,3.93568959 0.536854152,2.92798323 C1.08814893,1.89715162 1.89715162,1.08814893 2.92798323,0.536854152 C3.93568959,-0.00207310579 4.93214021,-0.3 7.6916556,-0.3 L16.3083444,-0.3 Z"/><path fill="#DFD1D7" d="M12.0000055,4.21076323 C16.301839,4.21076323 19.7892423,7.69816648 19.7892423,12 C19.7892423,16.3018335 16.301839,19.7892368 12.0000055,19.7892368 C10.7813682,19.7892368 9.60087222,19.5083328 8.52674649,18.9737945 C8.43319903,18.9239817 8.32470015,18.9099818 8.22682983,18.9330919 L6.65332974,19.3536816 C5.43475428,19.6799144 4.32009117,18.5652512 4.64632526,17.3466709 L5.06629526,15.7784332 C5.0907306,15.6753054 5.07673074,15.5668065 5.02454841,15.4686592 C4.48791603,14.3911323 4.20931198,13.203536 4.21075771,11.9997709 L4.21461337,11.7527399 C4.34519547,7.56532629 7.78089858,4.21076323 12.0000055,4.21076323 Z M12.0000055,5.65112185 L11.7722916,5.65512946 C8.37137377,5.77502211 5.65112738,8.56983726 5.65112738,12 C5.65112738,12.9947482 5.87992408,13.9559383 6.31336898,14.8263406 C6.51866666,15.2385916 6.57656507,15.7048586 6.45901256,16.14568 L6.03767019,17.7186443 C6.01926146,17.7872202 6.03882494,17.8604082 6.08899489,17.9106527 C6.13916483,17.9608972 6.21232371,17.9805693 6.28079451,17.9622978 L7.85708424,17.5404556 C8.29979161,17.4271509 8.76864088,17.4794628 9.17364447,17.6866264 C10.0515159,18.1236676 11.0190602,18.350401 12.0000055,18.3488935 C15.5063925,18.3488935 18.3488837,15.5063901 18.3488837,12 C18.3488837,8.49361142 15.5063941,5.65112185 12.0000055,5.65112185 Z M14.5404158,10.0012718 L14.6296495,10.0770946 L14.5407521,10.1657632 L14.6298167,10.0772618 C14.9106418,10.3584366 14.9106418,10.8139404 14.6297331,11.0951988 L11.8021812,13.9227507 C11.5250286,14.2001967 11.0768344,14.204892 10.7939277,13.9333111 L9.38003195,12.5759711 C9.19446155,12.397604 9.11814514,12.1337853 9.17983039,11.8838931 C9.24151564,11.6340009 9.43183109,11.4359996 9.67908674,11.3644745 C9.92634239,11.2929493 10.1929742,11.3587667 10.3784506,11.5370435 L11.2827577,12.4047632 L13.6117961,10.0770946 C13.8648534,9.82435196 14.2591172,9.79907769 14.5404158,10.0012718 Z"/></g></svg>