<svg xmlns="http://www.w3.org/2000/svg" xmlns:xlink="http://www.w3.org/1999/xlink" width="28" height="27" viewBox="0 0 28 27"><defs><filter id="b" width="115%" height="115%" x="-7.5%" y="-5.8%" filterUnits="objectBoundingBox"><feMorphology in="SourceAlpha" operator="dilate" radius=".4" result="shadowSpreadOuter1"/><feOffset dy=".4" in="shadowSpreadOuter1" result="shadowOffsetOuter1"/><feGaussianBlur in="shadowOffsetOuter1" result="shadowBlurOuter1" stdDeviation=".4"/><feComposite in="shadowBlurOuter1" in2="SourceAlpha" operator="out" result="shadowBlurOuter1"/><feColorMatrix in="shadowBlurOuter1" values="0 0 0 0 0 0 0 0 0 0 0 0 0 0 0 0 0 0 0.0753387238 0"/></filter><path id="a" d="M7.6916556,-2.07168062e-16 L16.3083444,3.10752092e-16 C18.9829006,-1.80555915e-16 19.9527593,0.278476833 20.9305371,0.801398111 C21.9083149,1.32431939 22.6756806,2.09168511 23.1986019,3.06946289 C23.7215232,4.04724067 24,5.01709938 24,7.6916556 L24,16.3083444 C24,18.9829006 23.7215232,19.9527593 23.1986019,20.9305371 C22.6756806,21.9083149 21.9083149,22.6756806 20.9305371,23.1986019 C19.9527593,23.7215232 18.9829006,24 16.3083444,24 L7.6916556,24 C5.01709938,24 4.04724067,23.7215232 3.06946289,23.1986019 C2.09168511,22.6756806 1.32431939,21.9083149 0.801398111,20.9305371 C0.278476833,19.9527593 6.01853049e-17,18.9829006 -1.03584031e-16,16.3083444 L2.07168062e-16,7.6916556 C-1.2037061e-16,5.01709938 0.278476833,4.04724067 0.801398111,3.06946289 C1.32431939,2.09168511 2.09168511,1.32431939 3.06946289,0.801398111 C4.04724067,0.278476833 5.01709938,1.2037061e-16 7.6916556,-2.07168062e-16 Z"/></defs><g fill="none" fill-rule="evenodd" transform="translate(2 1)"><use xlink:href="#a" fill="#000" filter="url(#b)"/><path fill="#FFF" stroke="#4E3340" stroke-opacity=".052" stroke-width=".4" d="M7.6916556,-0.2 L16.3083444,-0.2 C19.0395401,-0.2 20.0271267,0.0914435406 21.0248569,0.625035472 C22.0380039,1.16687242 22.8331276,1.96199612 23.3749645,2.97514312 C23.9085565,3.97287328 24.2,4.96045994 24.2,7.6916556 L24.2,16.3083444 C24.2,19.0395401 23.9085565,20.0271267 23.3749645,21.0248569 C22.8331276,22.0380039 22.0380039,22.8331276 21.0248569,23.3749645 C20.0271267,23.9085565 19.0395401,24.2 16.3083444,24.2 L7.6916556,24.2 C4.96045994,24.2 3.97287328,23.9085565 2.97514312,23.3749645 C1.96199612,22.8331276 1.16687242,22.0380039 0.625035472,21.0248569 C0.0914435406,20.0271267 -0.2,19.0395401 -0.2,16.3083444 L-0.2,7.6916556 C-0.2,4.96045994 0.0914435406,3.97287328 0.625035472,2.97514312 C1.16687242,1.96199612 1.96199612,1.16687242 2.97514312,0.625035472 C3.97287328,0.0914435406 4.96045994,-0.2 7.6916556,-0.2 Z"/><path fill="#4E3340" stroke="#4E3340" stroke-width=".38" d="M12.0000055,5.46112185 C8.38868284,5.46112185 5.46112738,8.38867732 5.46112738,12 C5.46112738,13.0469274 5.70713058,14.0351816 6.14329142,14.9110379 C6.31860405,15.2630769 6.38576009,15.6829789 6.2754828,16.0965188 L5.85416697,17.6693841 C5.81816422,17.8035009 5.85642536,17.9466378 5.95454489,18.0449032 C6.05266443,18.1431685 6.19574442,18.1816421 6.32991454,18.1458386 L7.90419363,17.7245227 C8.30202938,17.6227022 8.72335735,17.669712 9.08896766,17.8567141 C9.99323776,18.3068977 10.9898733,18.5404463 12.0000055,18.538886 C15.6113282,18.538886 18.5388837,15.6113227 18.5388837,12 C18.5388837,8.38867732 15.6113282,5.46112185 12.0000055,5.46112185 M4.40076321,12 C4.40076321,7.80310059 7.80310611,4.40076323 12.0000055,4.40076323 C16.1969049,4.40076323 19.5992423,7.80310059 19.5992423,12 C19.5992423,16.1968994 16.1969049,19.5992368 12.0000055,19.5992368 C10.7855415,19.5992368 9.63611271,19.3136468 8.61604772,18.8060885 C8.48169781,18.734549 8.32587514,18.7144428 8.17776616,18.7495361 L6.60419397,19.170145 C5.52686961,19.4585625 4.541443,18.4731359 4.82986055,17.3958116 L5.25117637,15.8222394 C5.28626962,15.6741304 5.26616347,15.5183077 5.19462391,15.3839578 C4.67112889,14.33281 4.39934738,13.1742899 4.40076321,12 M14.4953828,10.2115285 C14.7021198,10.4185229 14.7021198,10.7538541 14.4953828,10.9608486 L11.6677598,13.7884715 C11.4637265,13.9927208 11.1337764,13.9961774 10.9255088,13.7962475 L9.5116973,12.4389885 C9.37506607,12.3076609 9.31887605,12.1134172 9.36429349,11.9294273 C9.40971092,11.7454374 9.54983582,11.5996536 9.73188448,11.5469913 C9.91393314,11.494329 10.110248,11.5427888 10.2468793,11.6741165 L11.2860307,12.6715605 L13.7460627,10.2115285 C13.9530571,10.0047915 14.2883884,10.0047915 14.4953828,10.2115285"/></g></svg>