<svg xmlns="http://www.w3.org/2000/svg" xmlns:xlink="http://www.w3.org/1999/xlink" width="28" height="27" viewBox="0 0 28 27"><defs><filter id="b" width="115%" height="115%" x="-7.5%" y="-5.8%" filterUnits="objectBoundingBox"><feMorphology in="SourceAlpha" operator="dilate" radius=".4" result="shadowSpreadOuter1"/><feOffset dy=".4" in="shadowSpreadOuter1" result="shadowOffsetOuter1"/><feGaussianBlur in="shadowOffsetOuter1" result="shadowBlurOuter1" stdDeviation=".4"/><feComposite in="shadowBlurOuter1" in2="SourceAlpha" operator="out" result="shadowBlurOuter1"/><feColorMatrix in="shadowBlurOuter1" values="0 0 0 0 0 0 0 0 0 0 0 0 0 0 0 0 0 0 0.0753387238 0"/></filter><path id="a" d="M7.6916556,-2.07168062e-16 L16.3083444,3.10752092e-16 C18.9829006,-1.80555915e-16 19.9527593,0.278476833 20.9305371,0.801398111 C21.9083149,1.32431939 22.6756806,2.09168511 23.1986019,3.06946289 C23.7215232,4.04724067 24,5.01709938 24,7.6916556 L24,16.3083444 C24,18.9829006 23.7215232,19.9527593 23.1986019,20.9305371 C22.6756806,21.9083149 21.9083149,22.6756806 20.9305371,23.1986019 C19.9527593,23.7215232 18.9829006,24 16.3083444,24 L7.6916556,24 C5.01709938,24 4.04724067,23.7215232 3.06946289,23.1986019 C2.09168511,22.6756806 1.32431939,21.9083149 0.801398111,20.9305371 C0.278476833,19.9527593 6.01853049e-17,18.9829006 -1.03584031e-16,16.3083444 L2.07168062e-16,7.6916556 C-1.2037061e-16,5.01709938 0.278476833,4.04724067 0.801398111,3.06946289 C1.32431939,2.09168511 2.09168511,1.32431939 3.06946289,0.801398111 C4.04724067,0.278476833 5.01709938,1.2037061e-16 7.6916556,-2.07168062e-16 Z"/></defs><g fill="none" fill-rule="evenodd" transform="translate(2 1)"><use xlink:href="#a" fill="#000" filter="url(#b)"/><path fill="#FFF" stroke="#4E3340" stroke-opacity=".052" stroke-width=".4" d="M7.6916556,-0.2 L16.3083444,-0.2 C19.0395401,-0.2 20.0271267,0.0914435406 21.0248569,0.625035472 C22.0380039,1.16687242 22.8331276,1.96199612 23.3749645,2.97514312 C23.9085565,3.97287328 24.2,4.96045994 24.2,7.6916556 L24.2,16.3083444 C24.2,19.0395401 23.9085565,20.0271267 23.3749645,21.0248569 C22.8331276,22.0380039 22.0380039,22.8331276 21.0248569,23.3749645 C20.0271267,23.9085565 19.0395401,24.2 16.3083444,24.2 L7.6916556,24.2 C4.96045994,24.2 3.97287328,23.9085565 2.97514312,23.3749645 C1.96199612,22.8331276 1.16687242,22.0380039 0.625035472,21.0248569 C0.0914435406,20.0271267 -0.2,19.0395401 -0.2,16.3083444 L-0.2,7.6916556 C-0.2,4.96045994 0.0914435406,3.97287328 0.625035472,2.97514312 C1.16687242,1.96199612 1.96199612,1.16687242 2.97514312,0.625035472 C3.97287328,0.0914435406 4.96045994,-0.2 7.6916556,-0.2 Z"/><path fill="#4E3340" d="M11.9737728,3.5 C7.16329666,3.50060301 3.26378594,7.40011373 3.26318293,12.2105899 C3.26318293,16.0569662 5.77501302,19.3168848 9.19437823,20.4930766 C9.62248145,20.5465895 9.78192805,20.279025 9.78192805,20.0649734 L9.78192805,18.5687963 C7.37821587,19.1039253 6.84417895,17.3936967 6.84417895,17.3936967 C6.46958864,16.3780436 5.88203882,16.1104791 5.88203882,16.1104791 C5.08043739,15.5764422 5.93445962,15.5764422 5.93445962,15.5764422 C6.78957395,15.6299551 7.27119007,16.4850694 7.27119007,16.4850694 C8.07279149,17.8207078 9.30140403,17.4461175 9.78302015,17.233158 C9.83544095,16.6456081 10.1030055,16.2721099 10.3170571,16.0580583 C8.3927768,15.8440067 6.36256284,15.0959182 6.36256284,11.7289738 C6.36256284,10.7679257 6.68254815,10.0187451 7.27119007,9.3776824 C7.21658506,9.21714369 6.89659975,8.30960856 7.37821587,7.13341682 C7.37821587,7.13341682 8.1263044,6.91936521 9.78192805,8.04204405 C10.4765037,7.82799244 11.2256843,7.77447954 11.9737728,7.77447954 C12.7218613,7.77447954 13.4699499,7.88150535 14.1645255,8.04204405 C15.8212413,6.92045731 16.5693298,7.13341682 16.5693298,7.13341682 C17.0498538,8.30960856 16.7287764,9.21714369 16.6752635,9.4311953 C17.2637875,10.0723482 17.5883335,10.9121891 17.5838907,11.7824867 C17.5838907,15.1494311 15.5525846,15.8440067 13.6304886,16.0580583 C13.9504739,16.3245307 14.2180384,16.8585676 14.2180384,17.6601691 L14.2180384,20.0649734 C14.2180384,20.279025 14.377485,20.5454974 14.8055882,20.4930766 C18.3584236,19.2954934 20.7471412,15.9598215 20.7368171,12.2105899 C20.6832706,7.40098133 16.7833814,3.5 11.9737728,3.5"/></g></svg>