<svg xmlns="http://www.w3.org/2000/svg" xmlns:xlink="http://www.w3.org/1999/xlink" width="28" height="27" viewBox="0 0 28 27"><defs><filter id="b" width="115%" height="115%" x="-7.5%" y="-5.8%" filterUnits="objectBoundingBox"><feMorphology in="SourceAlpha" operator="dilate" radius=".4" result="shadowSpreadOuter1"/><feOffset dy=".4" in="shadowSpreadOuter1" result="shadowOffsetOuter1"/><feGaussianBlur in="shadowOffsetOuter1" result="shadowBlurOuter1" stdDeviation=".4"/><feComposite in="shadowBlurOuter1" in2="SourceAlpha" operator="out" result="shadowBlurOuter1"/><feColorMatrix in="shadowBlurOuter1" values="0 0 0 0 0 0 0 0 0 0 0 0 0 0 0 0 0 0 0.0753387238 0"/></filter><path id="a" d="M7.6916556,-2.07168062e-16 L16.3083444,3.10752092e-16 C18.9829006,-1.80555915e-16 19.9527593,0.278476833 20.9305371,0.801398111 C21.9083149,1.32431939 22.6756806,2.09168511 23.1986019,3.06946289 C23.7215232,4.04724067 24,5.01709938 24,7.6916556 L24,16.3083444 C24,18.9829006 23.7215232,19.9527593 23.1986019,20.9305371 C22.6756806,21.9083149 21.9083149,22.6756806 20.9305371,23.1986019 C19.9527593,23.7215232 18.9829006,24 16.3083444,24 L7.6916556,24 C5.01709938,24 4.04724067,23.7215232 3.06946289,23.1986019 C2.09168511,22.6756806 1.32431939,21.9083149 0.801398111,20.9305371 C0.278476833,19.9527593 6.01853049e-17,18.9829006 -1.03584031e-16,16.3083444 L2.07168062e-16,7.6916556 C-1.2037061e-16,5.01709938 0.278476833,4.04724067 0.801398111,3.06946289 C1.32431939,2.09168511 2.09168511,1.32431939 3.06946289,0.801398111 C4.04724067,0.278476833 5.01709938,1.2037061e-16 7.6916556,-2.07168062e-16 Z"/></defs><g fill="none" fill-rule="evenodd" transform="translate(2 1)"><use xlink:href="#a" fill="#000" filter="url(#b)"/><path fill="#FFF" stroke="#4E3340" stroke-opacity=".052" stroke-width=".4" d="M7.6916556,-0.2 L16.3083444,-0.2 C19.0395401,-0.2 20.0271267,0.0914435406 21.0248569,0.625035472 C22.0380039,1.16687242 22.8331276,1.96199612 23.3749645,2.97514312 C23.9085565,3.97287328 24.2,4.96045994 24.2,7.6916556 L24.2,16.3083444 C24.2,19.0395401 23.9085565,20.0271267 23.3749645,21.0248569 C22.8331276,22.0380039 22.0380039,22.8331276 21.0248569,23.3749645 C20.0271267,23.9085565 19.0395401,24.2 16.3083444,24.2 L7.6916556,24.2 C4.96045994,24.2 3.97287328,23.9085565 2.97514312,23.3749645 C1.96199612,22.8331276 1.16687242,22.0380039 0.625035472,21.0248569 C0.0914435406,20.0271267 -0.2,19.0395401 -0.2,16.3083444 L-0.2,7.6916556 C-0.2,4.96045994 0.0914435406,3.97287328 0.625035472,2.97514312 C1.16687242,1.96199612 1.96199612,1.16687242 2.97514312,0.625035472 C3.97287328,0.0914435406 4.96045994,-0.2 7.6916556,-0.2 Z"/><path fill="#4E3340" fill-rule="nonzero" d="M18.2817746,4.9557302 C18.6563168,5.21799549 18.9820871,5.54376582 19.2442838,5.91821009 C19.8535882,6.78800325 19.9475493,7.51550451 19.9531364,10.4245227 L19.9531363,11.0421994 C19.9475486,13.9517516 19.8535784,14.6794248 19.2443524,15.5483576 C18.9820871,15.9228998 18.6563168,16.2486701 18.2818725,16.5108668 C17.4120794,17.1201712 16.6845781,17.2141323 13.7755599,17.2197194 L13.642176,17.2202881 C13.5046575,17.7743932 13.6620423,18.3716345 14.0776998,18.7871379 L14.204083,18.9133327 L15.6667499,18.913333 C15.9780376,18.913333 16.2357443,19.1427408 16.2800275,19.4417139 L16.2867499,19.533333 C16.2867499,19.8757495 16.0091664,20.153333 15.6667499,20.153333 L8.33341636,20.153333 C7.99099981,20.153333 7.71341636,19.8757495 7.71341636,19.533333 C7.71341636,19.1909165 7.99099981,18.913333 8.33341636,18.913333 L9.54308301,18.9133327 L9.66975837,18.7875786 C10.0857804,18.3717112 10.2432286,17.7744065 10.1057212,17.2202904 L10.2245498,17.2197193 C7.31499762,17.2141316 6.58732437,17.1201614 5.71839161,16.5109354 C5.34384943,16.2486701 5.0180791,15.9228998 4.75588238,15.5484555 C4.14657805,14.6786623 4.05261691,13.9511611 4.04702984,11.0421429 L4.04674961,10.7333328 C4.04674961,7.5649304 4.12557998,6.81720396 4.75581381,5.918308 C5.0180791,5.54376582 5.34384943,5.21799549 5.7182937,4.95579877 C6.58808686,4.34649444 7.31558812,4.2525333 10.2246063,4.24694623 L13.4667498,4.246666 C16.6351522,4.246666 17.3828787,4.32549638 18.2817746,4.9557302 Z M12.3810223,17.2200558 L11.3668278,17.2197622 C11.445785,17.788381 11.3534863,18.3689787 11.1022806,18.8850613 L11.087083,18.9133327 L12.660083,18.9133327 L12.6454424,18.884885 C12.3943957,18.3690081 12.3021255,17.7885643 12.3810223,17.2200558 Z M13.7533729,5.48692835 L10.2468103,5.48692824 C7.64270446,5.49192821 7.00085087,5.57132666 6.42964101,5.97146849 C6.17357646,6.15077232 5.95085592,6.37349285 5.77133955,6.62986075 C5.37143488,7.20024076 5.29201377,7.84243883 5.28701196,10.4467097 L5.28701185,11.0199389 C5.29201182,13.6240447 5.37141027,14.2658983 5.7715521,14.8371082 C5.95085592,15.0931727 6.17357646,15.3158933 6.42994436,15.4954097 C7.00032437,15.8953143 7.64252244,15.9747354 10.2467933,15.9797373 L13.7533559,15.9797374 C16.3574618,15.9747374 16.9993153,15.8953389 17.5705252,15.4951971 C17.8265898,15.3158933 18.0493103,15.0931727 18.2288267,14.8368048 C18.6287313,14.2664248 18.7081525,13.6242268 18.7131543,11.0199559 L18.7131544,10.4467267 C18.7081544,7.84262085 18.6287559,7.20076726 18.2286141,6.6295574 C18.0493103,6.37349285 17.8265898,6.15077232 17.5702219,5.97125594 C16.9998419,5.57135127 16.3576438,5.49193016 13.7533729,5.48692835 Z M12.9294777,7.94514911 C13.2543225,8.05343072 13.4298817,8.40454911 13.3216001,8.72939396 L11.8549334,13.1293941 C11.7466518,13.4542389 11.3955334,13.6297981 11.0706885,13.5215165 C10.7458437,13.4132349 10.5702845,13.0621165 10.6785661,12.7372716 L12.1452328,8.33727154 C12.2535144,8.01242668 12.6046328,7.83686749 12.9294777,7.94514911 Z M15.3380724,8.79692833 L16.2385794,9.57267161 C16.7445554,10.0098741 16.8523046,10.1184686 16.9583193,10.3983582 C16.9990266,10.5058295 17.0200832,10.6180939 17.0200832,10.7333328 C17.0200832,10.8485717 16.9990266,10.9608361 16.9583193,11.0683074 C16.8523046,11.348197 16.7445554,11.4567915 16.2378725,11.8946039 L15.3380724,12.6697373 C15.0786434,12.8932226 14.687164,12.8640844 14.4636787,12.6046554 C14.2401934,12.3452264 14.2693316,11.953747 14.5287606,11.7302617 L15.4278536,10.9557383 C15.5235484,10.8730506 15.5970511,10.8081431 15.6523913,10.7586997 L15.680083,10.7333327 L15.6526007,10.7081466 C15.6157771,10.6752446 15.5709045,10.6354897 15.5167968,10.5882024 L15.4285606,10.5115372 L14.5287606,9.73640387 C14.2693316,9.51291857 14.2401934,9.12143918 14.4636787,8.86201017 C14.687164,8.60258116 15.0786434,8.57344303 15.3380724,8.79692833 Z M9.53648748,8.86201017 C9.75997278,9.12143918 9.73083465,9.51291857 9.47140564,9.73640387 L8.57231258,10.5109273 C8.47661787,10.593615 8.40311512,10.6585225 8.34777496,10.7079659 L8.31908301,10.7333327 L8.34756549,10.758519 C8.3843891,10.791421 8.42926171,10.8311759 8.48336943,10.8784632 L8.57160562,10.9551284 L9.47140564,11.7302617 C9.73083465,11.953747 9.75997278,12.3452264 9.53648748,12.6046554 C9.31300218,12.8640844 8.92152279,12.8932226 8.66209378,12.6697373 L7.7615868,11.893994 C7.25561085,11.4567915 7.14786163,11.348197 7.04184692,11.0683074 C7.00113966,10.9608361 6.98008301,10.8485717 6.98008301,10.7333328 C6.98008301,10.6180939 7.00113966,10.5058295 7.04184692,10.3983582 C7.14786163,10.1184686 7.25561085,10.0098741 7.76229376,9.57206168 L8.66209378,8.79692833 C8.92152279,8.57344303 9.31300218,8.60258116 9.53648748,8.86201017 Z"/></g></svg>