<svg xmlns="http://www.w3.org/2000/svg" xmlns:xlink="http://www.w3.org/1999/xlink" width="28" height="27" viewBox="0 0 28 27"><defs><filter id="b" width="115%" height="115%" x="-7.5%" y="-5.8%" filterUnits="objectBoundingBox"><feMorphology in="SourceAlpha" operator="dilate" radius=".4" result="shadowSpreadOuter1"/><feOffset dy=".4" in="shadowSpreadOuter1" result="shadowOffsetOuter1"/><feGaussianBlur in="shadowOffsetOuter1" result="shadowBlurOuter1" stdDeviation=".4"/><feComposite in="shadowBlurOuter1" in2="SourceAlpha" operator="out" result="shadowBlurOuter1"/><feColorMatrix in="shadowBlurOuter1" values="0 0 0 0 0 0 0 0 0 0 0 0 0 0 0 0 0 0 0.0753387238 0"/></filter><path id="a" d="M7.6916556,-2.07168062e-16 L16.3083444,3.10752092e-16 C18.9829006,-1.80555915e-16 19.9527593,0.278476833 20.9305371,0.801398111 C21.9083149,1.32431939 22.6756806,2.09168511 23.1986019,3.06946289 C23.7215232,4.04724067 24,5.01709938 24,7.6916556 L24,16.3083444 C24,18.9829006 23.7215232,19.9527593 23.1986019,20.9305371 C22.6756806,21.9083149 21.9083149,22.6756806 20.9305371,23.1986019 C19.9527593,23.7215232 18.9829006,24 16.3083444,24 L7.6916556,24 C5.01709938,24 4.04724067,23.7215232 3.06946289,23.1986019 C2.09168511,22.6756806 1.32431939,21.9083149 0.801398111,20.9305371 C0.278476833,19.9527593 6.01853049e-17,18.9829006 -1.03584031e-16,16.3083444 L2.07168062e-16,7.6916556 C-1.2037061e-16,5.01709938 0.278476833,4.04724067 0.801398111,3.06946289 C1.32431939,2.09168511 2.09168511,1.32431939 3.06946289,0.801398111 C4.04724067,0.278476833 5.01709938,1.2037061e-16 7.6916556,-2.07168062e-16 Z"/></defs><g fill="none" fill-rule="evenodd" transform="translate(2 1)"><use xlink:href="#a" fill="#000" filter="url(#b)"/><path fill="#FFF" stroke="#4E3340" stroke-opacity=".052" stroke-width=".4" d="M7.6916556,-0.2 L16.3083444,-0.2 C19.0395401,-0.2 20.0271267,0.0914435406 21.0248569,0.625035472 C22.0380039,1.16687242 22.8331276,1.96199612 23.3749645,2.97514312 C23.9085565,3.97287328 24.2,4.96045994 24.2,7.6916556 L24.2,16.3083444 C24.2,19.0395401 23.9085565,20.0271267 23.3749645,21.0248569 C22.8331276,22.0380039 22.0380039,22.8331276 21.0248569,23.3749645 C20.0271267,23.9085565 19.0395401,24.2 16.3083444,24.2 L7.6916556,24.2 C4.96045994,24.2 3.97287328,23.9085565 2.97514312,23.3749645 C1.96199612,22.8331276 1.16687242,22.0380039 0.625035472,21.0248569 C0.0914435406,20.0271267 -0.2,19.0395401 -0.2,16.3083444 L-0.2,7.6916556 C-0.2,4.96045994 0.0914435406,3.97287328 0.625035472,2.97514312 C1.16687242,1.96199612 1.96199612,1.16687242 2.97514312,0.625035472 C3.97287328,0.0914435406 4.96045994,-0.2 7.6916556,-0.2 Z"/><g fill-rule="nonzero" transform="translate(2.51 6.89)"><polyline fill="#4E3340" points="0 2.92 2.92 2.92 2.92 0 13.14 0 13.14 1.46 18.98 1.46 18.98 7.3 16.06 7.3 16.06 10.22 5.84 10.22 5.84 8.76 0 8.76"/><g fill="#FFF" transform="translate(1.46 1.46)"><polyline points="0 2.92 1.46 2.92 1.46 4.38 2.92 4.38 2.92 0 4.38 0 4.38 5.84 0 5.84"/><polyline points="5.84 0 10.22 0 10.22 1.46 7.3 1.46 7.3 2.92 10.22 2.92 10.22 7.3 5.84 7.3 5.84 5.84 8.76 5.84 8.76 4.38 5.84 4.38"/><polyline points="11.68 1.46 16.06 1.46 16.06 4.38 14.6 4.38 14.6 2.92 13.14 2.92 13.14 7.3 11.68 7.3"/></g></g></g></svg>