<svg xmlns="http://www.w3.org/2000/svg" xmlns:xlink="http://www.w3.org/1999/xlink" width="28" height="27" viewBox="0 0 28 27"><defs><filter id="b" width="115%" height="115%" x="-7.5%" y="-5.8%" filterUnits="objectBoundingBox"><feMorphology in="SourceAlpha" operator="dilate" radius=".4" result="shadowSpreadOuter1"/><feOffset dy=".4" in="shadowSpreadOuter1" result="shadowOffsetOuter1"/><feGaussianBlur in="shadowOffsetOuter1" result="shadowBlurOuter1" stdDeviation=".4"/><feComposite in="shadowBlurOuter1" in2="SourceAlpha" operator="out" result="shadowBlurOuter1"/><feColorMatrix in="shadowBlurOuter1" values="0 0 0 0 0 0 0 0 0 0 0 0 0 0 0 0 0 0 0.0753387238 0"/></filter><path id="a" d="M7.6916556,-2.07168062e-16 L16.3083444,3.10752092e-16 C18.9829006,-1.80555915e-16 19.9527593,0.278476833 20.9305371,0.801398111 C21.9083149,1.32431939 22.6756806,2.09168511 23.1986019,3.06946289 C23.7215232,4.04724067 24,5.01709938 24,7.6916556 L24,16.3083444 C24,18.9829006 23.7215232,19.9527593 23.1986019,20.9305371 C22.6756806,21.9083149 21.9083149,22.6756806 20.9305371,23.1986019 C19.9527593,23.7215232 18.9829006,24 16.3083444,24 L7.6916556,24 C5.01709938,24 4.04724067,23.7215232 3.06946289,23.1986019 C2.09168511,22.6756806 1.32431939,21.9083149 0.801398111,20.9305371 C0.278476833,19.9527593 6.01853049e-17,18.9829006 -1.03584031e-16,16.3083444 L2.07168062e-16,7.6916556 C-1.2037061e-16,5.01709938 0.278476833,4.04724067 0.801398111,3.06946289 C1.32431939,2.09168511 2.09168511,1.32431939 3.06946289,0.801398111 C4.04724067,0.278476833 5.01709938,1.2037061e-16 7.6916556,-2.07168062e-16 Z"/></defs><g fill="none" fill-rule="evenodd" transform="translate(2 1)"><use xlink:href="#a" fill="#000" filter="url(#b)"/><path fill="#FFF" stroke="#4E3340" stroke-opacity=".052" stroke-width=".4" d="M7.6916556,-0.2 L16.3083444,-0.2 C19.0395401,-0.2 20.0271267,0.0914435406 21.0248569,0.625035472 C22.0380039,1.16687242 22.8331276,1.96199612 23.3749645,2.97514312 C23.9085565,3.97287328 24.2,4.96045994 24.2,7.6916556 L24.2,16.3083444 C24.2,19.0395401 23.9085565,20.0271267 23.3749645,21.0248569 C22.8331276,22.0380039 22.0380039,22.8331276 21.0248569,23.3749645 C20.0271267,23.9085565 19.0395401,24.2 16.3083444,24.2 L7.6916556,24.2 C4.96045994,24.2 3.97287328,23.9085565 2.97514312,23.3749645 C1.96199612,22.8331276 1.16687242,22.0380039 0.625035472,21.0248569 C0.0914435406,20.0271267 -0.2,19.0395401 -0.2,16.3083444 L-0.2,7.6916556 C-0.2,4.96045994 0.0914435406,3.97287328 0.625035472,2.97514312 C1.16687242,1.96199612 1.96199612,1.16687242 2.97514312,0.625035472 C3.97287328,0.0914435406 4.96045994,-0.2 7.6916556,-0.2 Z"/><path fill="#4E3340" fill-rule="nonzero" d="M10.8521778,4.78924681 C11.1650383,4.15532211 11.9325594,3.89504819 12.5664841,4.20790873 C12.8189163,4.33249144 13.0232395,4.53681467 13.1478222,4.78924681 L14.802,8.142 L18.5031372,8.68011094 C19.1589911,8.77541208 19.6259986,9.35224162 19.5980518,10.0004071 L19.5857724,10.1308698 C19.545293,10.4094452 19.4141094,10.6669075 19.2125304,10.8633985 L16.534,13.473 L17.166982,17.1589489 C17.2790153,17.8121527 16.874731,18.4345533 16.249653,18.6082685 L16.1217811,18.6369053 C15.8443313,18.6844916 15.5589321,18.6392888 15.3097667,18.5082948 L11.999,16.768 L8.69023328,18.5082948 C8.10361977,18.8166958 7.38675086,18.624531 7.02837816,18.0837275 L6.96162839,17.9709632 C6.83063438,17.7217978 6.78543159,17.4363987 6.83301795,17.1589489 L7.465,13.473 L4.78746963,10.8633985 C4.31499857,10.402853 4.2744774,9.66621465 4.67236071,9.15846827 L4.76433404,9.05335296 C4.96082506,8.8517739 5.21828735,8.72059032 5.49686276,8.68011094 L9.197,8.142 L10.8521778,4.78924681 Z M11.6412949,6.26292687 L10.3982419,8.78201146 L10.3982419,8.78201146 C10.2117945,9.15979511 9.85139053,9.42164392 9.43448152,9.48222434 L6.654339,9.88559011 C6.43571421,9.91730998 6.28419782,10.1202544 6.31591769,10.3388792 C6.32855355,10.4259701 6.36955745,10.5064633 6.4325769,10.5678883 L8.44454055,12.5289494 L8.44454055,12.5289494 C8.71269894,12.7903392 8.85126435,13.1541422 8.82872839,13.5233857 L8.81266424,13.6619176 L8.33721467,16.4301024 C8.29981917,16.6478282 8.44600577,16.8546448 8.66373159,16.8920403 C8.75044531,16.9069339 8.83965041,16.8928218 8.91753263,16.8518896 L11.4043633,15.5448972 L11.4043633,15.5448972 C11.7358254,15.3706373 12.1246417,15.3512751 12.4688491,15.4868106 L12.5956367,15.5448972 L15.0816458,16.8518657 C15.2771838,16.9546658 15.5190345,16.8794869 15.6218346,16.6839489 C15.6627677,16.6060894 15.6768943,16.5169081 15.6620277,16.4302097 L15.1873358,13.6619176 L15.1873358,13.6619176 C15.1240321,13.2928292 15.2257684,12.9170597 15.4610363,12.6315818 L15.5554595,12.5289494 L17.5667023,10.5678345 C17.7248706,10.4136083 17.7280664,10.1603624 17.5738402,10.0021941 C17.5124252,9.93920928 17.4319595,9.89822712 17.3449006,9.88559238 L14.5655185,9.48222434 L14.5655185,9.48222434 C14.1949327,9.42837508 13.8689929,9.21549894 13.670189,8.90352841 L13.6017581,8.78201146 L12.3587051,6.26292687 C12.2609482,6.06481949 12.0211028,5.98346937 11.8229954,6.0812263 C11.7440932,6.12016096 11.6802295,6.1840246 11.6412949,6.26292687 Z"/></g></svg>