<?xml version="1.0" encoding="UTF-8"?>
<svg width="546px" height="547px" viewBox="0 0 546 547" version="1.1" xmlns="http://www.w3.org/2000/svg" xmlns:xlink="http://www.w3.org/1999/xlink">
    <title>no</title>
    <defs>
        <path d="M176.908079,-4.76486542e-15 L329.091921,7.14729812e-15 C390.606714,-4.15278604e-15 412.913465,6.40496717 435.402354,18.4321566 C457.891242,30.459346 475.540654,48.1087576 487.567843,70.5976465 C499.595033,93.0865353 506,115.393286 506,176.908079 L506,329.091921 C506,390.606714 499.595033,412.913465 487.567843,435.402354 C475.540654,457.891242 457.891242,475.540654 435.402354,487.567843 C412.913465,499.595033 390.606714,506 329.091921,506 L176.908079,506 C115.393286,506 93.0865353,499.595033 70.5976465,487.567843 C48.1087576,475.540654 30.459346,457.891242 18.4321566,435.402354 C6.40496717,412.913465 1.38426201e-15,390.606714 -2.38243271e-15,329.091921 L4.76486542e-15,176.908079 C-2.76852402e-15,115.393286 6.40496717,93.0865353 18.4321566,70.5976465 C30.459346,48.1087576 48.1087576,30.459346 70.5976465,18.4321566 C93.0865353,6.40496717 115.393286,2.76852402e-15 176.908079,-4.76486542e-15 Z" id="path-1"></path>
        <filter x="-6.3%" y="-5.5%" width="112.6%" height="112.6%" filterUnits="objectBoundingBox" id="filter-2">
            <feOffset dx="0" dy="4" in="SourceAlpha" result="shadowOffsetOuter1"></feOffset>
            <feGaussianBlur stdDeviation="10" in="shadowOffsetOuter1" result="shadowBlurOuter1"></feGaussianBlur>
            <feColorMatrix values="0 0 0 0 0   0 0 0 0 0   0 0 0 0 0  0 0 0 0.453644012 0" type="matrix" in="shadowBlurOuter1"></feColorMatrix>
        </filter>
    </defs>
    <g id="Page-1" stroke="none" stroke-width="1" fill="none" fill-rule="evenodd">
        <g id="no" transform="translate(20, 16.8481)">
            <g id="Rectangle">
                <use fill="black" fill-opacity="1" filter="url(#filter-2)" xlink:href="#path-1"></use>
                <use fill="#D3241C" fill-rule="evenodd" xlink:href="#path-1"></use>
            </g>
            <path d="M176.908079,4 L329.091921,4 C389.473925,4 411.426117,10.145633 433.515958,21.9594094 C455.297463,33.6082854 472.391715,50.7025375 484.040591,72.4840419 C495.854367,94.573883 502,116.526075 502,176.908079 L502,311.091921 C502,371.473925 495.854367,393.426117 484.040591,415.515958 C472.391715,437.297463 455.297463,454.391715 433.515958,466.040591 C411.426117,477.854367 389.473925,484 329.091921,484 L176.908079,484 C116.526075,484 94.573883,477.854367 72.4840419,466.040591 C50.7025375,454.391715 33.6082854,437.297463 21.9594094,415.515958 C10.145633,393.426117 4,371.473925 4,311.091921 L4,176.908079 C4,116.526075 10.145633,94.573883 21.9594094,72.4840419 C33.6082854,50.7025375 50.7025375,33.6082854 72.4840419,21.9594094 C94.573883,10.145633 116.526075,4 176.908079,4 Z" id="Rectangle" stroke-opacity="0.12" stroke="#FFFFFF" stroke-width="8" fill="#FF473E"></path>
            <path d="M253,70.1258 C154.7627,70.1258 75.1258,149.7627 75.1258,248 C75.1258,346.2373 154.7627,425.8742 253,425.8742 C351.2373,425.8742 430.8742,346.2373 430.8742,248 C430.8742,149.7627 351.2366,70.1258 253,70.1258 Z M161.8719,339.1281 C137.5308,314.787 124.1258,282.4232 124.1258,248 C124.1258,221.5673 132.0379,196.354 146.7281,175.0502 L325.9491,354.2719 C304.6453,368.9621 279.432,376.8742 252.9993,376.8742 C218.5761,376.8742 186.213,363.4685 161.8719,339.1281 Z M360.3499,319.3755 L181.6238,140.6501 C202.5902,126.6473 227.2169,119.1258 253,119.1258 C287.4232,119.1258 319.787,132.5308 344.1281,156.8719 C368.4692,181.213 381.8742,213.5761 381.8742,248 C381.8742,273.7831 374.3527,298.4091 360.3499,319.3755 Z" id="Shape" fill="#FFFFFF" fill-rule="nonzero"></path>
        </g>
    </g>
</svg>