<?xml version="1.0" encoding="UTF-8"?>
<svg width="546px" height="547px" viewBox="0 0 546 547" version="1.1" xmlns="http://www.w3.org/2000/svg" xmlns:xlink="http://www.w3.org/1999/xlink">
    <title>soon</title>
    <defs>
        <path d="M176.908079,-4.76486542e-15 L329.091921,7.14729812e-15 C390.606714,-4.15278604e-15 412.913465,6.40496717 435.402354,18.4321566 C457.891242,30.459346 475.540654,48.1087576 487.567843,70.5976465 C499.595033,93.0865353 506,115.393286 506,176.908079 L506,329.091921 C506,390.606714 499.595033,412.913465 487.567843,435.402354 C475.540654,457.891242 457.891242,475.540654 435.402354,487.567843 C412.913465,499.595033 390.606714,506 329.091921,506 L176.908079,506 C115.393286,506 93.0865353,499.595033 70.5976465,487.567843 C48.1087576,475.540654 30.459346,457.891242 18.4321566,435.402354 C6.40496717,412.913465 1.38426201e-15,390.606714 -2.38243271e-15,329.091921 L4.76486542e-15,176.908079 C-2.76852402e-15,115.393286 6.40496717,93.0865353 18.4321566,70.5976465 C30.459346,48.1087576 48.1087576,30.459346 70.5976465,18.4321566 C93.0865353,6.40496717 115.393286,2.76852402e-15 176.908079,-4.76486542e-15 Z" id="path-1"></path>
        <filter x="-6.3%" y="-5.5%" width="112.6%" height="112.6%" filterUnits="objectBoundingBox" id="filter-2">
            <feOffset dx="0" dy="4" in="SourceAlpha" result="shadowOffsetOuter1"></feOffset>
            <feGaussianBlur stdDeviation="10" in="shadowOffsetOuter1" result="shadowBlurOuter1"></feGaussianBlur>
            <feColorMatrix values="0 0 0 0 0   0 0 0 0 0   0 0 0 0 0  0 0 0 0.453644012 0" type="matrix" in="shadowBlurOuter1"></feColorMatrix>
        </filter>
    </defs>
    <g id="Page-1" stroke="none" stroke-width="1" fill="none" fill-rule="evenodd">
        <g id="soon" transform="translate(20, 16.8481)">
            <g id="Rectangle">
                <use fill="black" fill-opacity="1" filter="url(#filter-2)" xlink:href="#path-1"></use>
                <use fill="#429EC1" fill-rule="evenodd" xlink:href="#path-1"></use>
            </g>
            <path d="M176.908079,4 L329.091921,4 C389.473925,4 411.426117,10.145633 433.515958,21.9594094 C455.297463,33.6082854 472.391715,50.7025375 484.040591,72.4840419 C495.854367,94.573883 502,116.526075 502,176.908079 L502,311.091921 C502,371.473925 495.854367,393.426117 484.040591,415.515958 C472.391715,437.297463 455.297463,454.391715 433.515958,466.040591 C411.426117,477.854367 389.473925,484 329.091921,484 L176.908079,484 C116.526075,484 94.573883,477.854367 72.4840419,466.040591 C50.7025375,454.391715 33.6082854,437.297463 21.9594094,415.515958 C10.145633,393.426117 4,371.473925 4,311.091921 L4,176.908079 C4,116.526075 10.145633,94.573883 21.9594094,72.4840419 C33.6082854,50.7025375 50.7025375,33.6082854 72.4840419,21.9594094 C94.573883,10.145633 116.526075,4 176.908079,4 Z" id="Rectangle" stroke-opacity="0.09" stroke="#FFFFFF" stroke-width="8" fill="#59C2EB"></path>
            <g id="u23F3-hourglassflowingsand" transform="translate(135.97, 71.5497)" fill-rule="nonzero">
                <g id="Layer_2" transform="translate(11.7544, 10.3402)" fill="#D5EDF7">
                    <path d="M173.961488,110.26905 C157.418268,124.820955 137.674763,143.72835 135.251106,168.33426 C137.674763,192.94017 157.419069,211.847565 173.961488,226.39947 C196.365085,243.38151 210.550369,268.521105 210.550369,296.57658 C210.550369,296.62593 210.546362,296.674575 210.545561,296.723925 L210.550369,296.723925 L210.550369,336.22155 L0,336.22155 L0,296.723925 L0.00480884272,296.723925 C0.00480884272,296.674575 0,296.62593 0,296.57658 C0,268.521105 14.1852845,243.38151 36.5888813,226.39947 C53.1321017,211.847565 72.8756069,192.94017 75.2992637,168.33426 C72.8756069,143.72835 53.1313002,124.820955 36.5888813,110.26905 C14.1852845,93.28701 0,68.147415 0,40.09194 L0,7.51398943e-15 L210.550369,7.51398943e-15 L210.550369,40.09194 C210.550369,68.147415 196.365085,93.28701 173.961488,110.26905 Z" id="Path"></path>
                </g>
                <g id="Layer_3" transform="translate(38.6871, 75.9192)" fill="#FFAD00">
                    <path d="M78.3424596,223.853186 C86.1784688,223.853186 126.010915,261.988046 126.010915,261.988046 L30.6740047,261.988046 C30.6740047,261.988046 70.5064504,223.853186 78.3424596,223.853186 Z M74.1347222,173.217971 C71.5203148,173.217971 69.4012181,175.081991 69.4012181,177.381701 C69.4012181,179.681411 71.5203148,181.545431 74.1347222,181.545431 C76.7491297,181.545431 78.8682264,179.681411 78.8682264,177.381701 C78.8682264,175.082696 76.7491297,173.217971 74.1347222,173.217971 Z M78.8682264,188.022266 C76.2538189,188.022266 74.1347222,189.886286 74.1347222,192.185996 C74.1347222,194.485706 76.2538189,196.349726 78.8682264,196.349726 C81.4826339,196.349726 83.6017306,194.485706 83.6017306,192.185996 C83.6017306,189.886286 81.4826339,188.022266 78.8682264,188.022266 Z M67.3991365,212.874221 C64.7847291,212.874221 62.6656324,214.738241 62.6656324,217.037951 C62.6656324,219.337661 64.7847291,221.201681 67.3991365,221.201681 C70.013544,221.201681 72.1326407,219.337661 72.1326407,217.037951 C72.1326407,214.738241 70.013544,212.874221 67.3991365,212.874221 Z M81.4730162,154.240076 C78.8586087,154.240076 76.739512,156.104096 76.739512,158.403806 C76.739512,160.703516 78.8586087,162.567536 81.4730162,162.567536 C84.0874237,162.567536 86.2065204,160.703516 86.2065204,158.403806 C86.2065204,156.104096 84.0874237,154.240076 81.4730162,154.240076 Z M0,6.30640125 C0,23.5901813 22.2248681,39.0783262 36.0270481,49.5405262 C46.2185888,58.5053062 63.6434304,75.4697212 63.6434304,96.7663613 C63.6434304,97.4798213 63.6819011,98.1629662 63.7452176,98.8256663 C64.1777744,113.519478 66.0516769,129.643079 70.409002,138.470534 C70.601596,138.860708 70.840088,139.286758 71.1244782,139.748683 L71.1281655,139.746415 C72.0482406,141.242339 72.3768511,143.027811 72.0496646,144.753289 C72.0203288,144.903771 72.0060079,145.045857 72.0060079,145.179416 C72.0060079,147.479126 74.1251046,149.343146 76.739512,149.343146 C78.861552,149.343146 80.6572759,148.11511 81.2583843,146.42282 C81.2658971,146.40167 81.2730815,146.377816 81.2799377,146.35126 L81.2795035,146.351148 C81.6089473,145.074473 82.2898027,143.915768 83.2447399,143.006633 C83.2673665,142.982308 83.2906531,142.95971 83.3132051,142.937375 C90.2746173,136.042935 92.7692267,114.445313 93.0198491,95.2372163 C94.4625019,77.2576012 110.918362,58.1076863 120.657871,49.5405262 C134.460051,39.0783262 156.684919,23.5908862 156.684919,6.30640125 C156.684919,-2.10213375 0,-2.10213375 0,6.30640125 Z M83.7812607,204.941561 C81.1668532,204.941561 79.0477566,206.805581 79.0477566,209.105291 C79.0477566,211.405001 81.1668532,213.269021 83.7812607,213.269021 C86.3956682,213.269021 88.5147649,211.405001 88.5147649,209.105291 C88.5147649,206.805581 86.3948667,204.941561 83.7812607,204.941561 Z" id="Shape"></path>
                </g>
                <g id="Layer_4" fill="#673E38">
                    <path d="M222.305585,20.67906 L11.7544145,20.67906 C5.26247688,20.67906 0,16.05003 0,10.33953 C0,4.62903 5.26247688,0 11.7544145,0 L222.305585,0 C228.797523,0 234.06,4.62903 234.06,10.33953 C234.06,16.05003 228.796722,20.67906 222.305585,20.67906 Z M234.06,346.561785 C234.06,340.851285 228.797523,336.22296 222.305585,336.22296 L11.7544145,336.22296 C5.26247688,336.22296 0,340.851285 0,346.561785 C0,352.272285 5.26247688,356.90061 11.7544145,356.90061 L222.305585,356.90061 C228.796722,356.90061 234.06,352.272285 234.06,346.561785 Z" id="Shape"></path>
                </g>
                <g id="Layer_5" transform="translate(38.6871, 68.1756)" fill="#FFCE65">
                    <path d="M156.684919,11.58597 C156.684919,17.98455 121.610022,23.17194 78.3424596,23.17194 C35.0748973,23.17194 0,17.98455 0,11.58597 C0,5.18739 35.0748973,0 78.3424596,0 C121.610022,0 156.684919,5.18739 156.684919,11.58597 Z" id="Path"></path>
                </g>
            </g>
        </g>
    </g>
</svg>