<?xml version="1.0" encoding="UTF-8"?>
<svg width="546px" height="547px" viewBox="0 0 546 547" version="1.1" xmlns="http://www.w3.org/2000/svg" xmlns:xlink="http://www.w3.org/1999/xlink">
    <title>yes</title>
    <defs>
        <path d="M176.908079,-4.76486542e-15 L329.091921,7.14729812e-15 C390.606714,-4.15278604e-15 412.913465,6.40496717 435.402354,18.4321566 C457.891242,30.459346 475.540654,48.1087576 487.567843,70.5976465 C499.595033,93.0865353 506,115.393286 506,176.908079 L506,329.091921 C506,390.606714 499.595033,412.913465 487.567843,435.402354 C475.540654,457.891242 457.891242,475.540654 435.402354,487.567843 C412.913465,499.595033 390.606714,506 329.091921,506 L176.908079,506 C115.393286,506 93.0865353,499.595033 70.5976465,487.567843 C48.1087576,475.540654 30.459346,457.891242 18.4321566,435.402354 C6.40496717,412.913465 1.38426201e-15,390.606714 -2.38243271e-15,329.091921 L4.76486542e-15,176.908079 C-2.76852402e-15,115.393286 6.40496717,93.0865353 18.4321566,70.5976465 C30.459346,48.1087576 48.1087576,30.459346 70.5976465,18.4321566 C93.0865353,6.40496717 115.393286,2.76852402e-15 176.908079,-4.76486542e-15 Z" id="path-1"></path>
        <filter x="-6.3%" y="-5.5%" width="112.6%" height="112.6%" filterUnits="objectBoundingBox" id="filter-2">
            <feOffset dx="0" dy="4" in="SourceAlpha" result="shadowOffsetOuter1"></feOffset>
            <feGaussianBlur stdDeviation="10" in="shadowOffsetOuter1" result="shadowBlurOuter1"></feGaussianBlur>
            <feColorMatrix values="0 0 0 0 0   0 0 0 0 0   0 0 0 0 0  0 0 0 0.453644012 0" type="matrix" in="shadowBlurOuter1"></feColorMatrix>
        </filter>
    </defs>
    <g id="Page-1" stroke="none" stroke-width="1" fill="none" fill-rule="evenodd">
        <g id="yes" transform="translate(20, 16.8481)">
            <g id="Rectangle">
                <use fill="black" fill-opacity="1" filter="url(#filter-2)" xlink:href="#path-1"></use>
                <use fill="#00998C" fill-rule="evenodd" xlink:href="#path-1"></use>
            </g>
            <path d="M176.908079,4 L329.091921,4 C389.473925,4 411.426117,10.145633 433.515958,21.9594094 C455.297463,33.6082854 472.391715,50.7025375 484.040591,72.4840419 C495.854367,94.573883 502,116.526075 502,176.908079 L502,311.091921 C502,371.473925 495.854367,393.426117 484.040591,415.515958 C472.391715,437.297463 455.297463,454.391715 433.515958,466.040591 C411.426117,477.854367 389.473925,484 329.091921,484 L176.908079,484 C116.526075,484 94.573883,477.854367 72.4840419,466.040591 C50.7025375,454.391715 33.6082854,437.297463 21.9594094,415.515958 C10.145633,393.426117 4,371.473925 4,311.091921 L4,176.908079 C4,116.526075 10.145633,94.573883 21.9594094,72.4840419 C33.6082854,50.7025375 50.7025375,33.6082854 72.4840419,21.9594094 C94.573883,10.145633 116.526075,4 176.908079,4 Z" id="Rectangle" stroke-opacity="0.13" stroke="#FFFFFF" stroke-width="8" fill="#00C4A4"></path>
            <path d="M415.635684,114.760649 L363.500684,84.3266493 C357.079684,80.5776493 348.834684,82.7446493 345.086684,89.1666493 L220.289544,302.94693 C218.618951,305.808695 214.944754,306.774339 212.08298,305.103761 L133.109684,259.002649 L133.109684,259.002649 C127.903684,255.963649 121.219684,257.720649 118.180684,262.926649 L85.1766835,319.463649 C82.1376835,324.669649 83.8946835,331.353649 89.1006835,334.392649 L239.212684,422.021649 C244.418684,425.060649 251.102684,423.303649 254.141684,418.097649 L255.358684,416.012649 C255.382684,415.971649 255.411684,415.935649 255.435684,415.894649 L420.475684,133.174649 C424.223684,126.753649 422.056684,118.509649 415.635684,114.760649 Z" id="Path" fill="#FFFFFF" fill-rule="nonzero"></path>
        </g>
    </g>
</svg>