<svg xmlns="http://www.w3.org/2000/svg" width="200" height="174" viewBox="0 0 200 174"><g fill="none" transform="translate(0 .767)"><path fill="#F8C0C2" d="M27.7773213,61.2325785 C29.0973213,61.2325785 30.4173213,61.2325785 31.7773213,61.2325785 C31.7979463,61.9132035 31.8185713,62.5938285 31.8398213,63.2950785 C32.8397758,66.4282695 33.564782,67.1873799 35.9023213,69.3575785 C44.0157763,77.0711919 49.8920635,87.6455784 51.0507588,98.8849223 C51.1051496,102.240834 50.8411328,105.041144 49.7773213,108.232579 C50.4287812,107.856736 51.0802412,107.480894 51.7514424,107.093663 C53.7341843,105.949773 55.7169323,104.805894 57.6996845,103.662022 C60.0340377,102.315254 62.3683536,100.968422 64.7026142,99.6214946 C70.6171062,96.2088056 76.5322057,92.7971845 82.4491963,89.3888285 C96.919991,81.0510189 111.360644,72.6636024 125.777321,64.2325785 C126.250407,64.5960942 126.723493,64.9596098 127.210915,65.334141 C135.710921,71.7961336 144.541606,77.3664133 153.839821,82.6075785 C155.281315,83.4254887 155.281315,83.4254887 156.751931,84.2599223 C159.092045,85.5871514 161.43384,86.9113054 163.777321,88.2325785 C163.777321,89.2225785 163.777321,90.2125785 163.777321,91.2325785 C165.25652,91.3369926 165.25652,91.3369926 166.765603,91.443516 C171.479413,92.1231762 174.980195,94.3646233 178.964821,96.8575785 C180.456861,97.7640722 181.949049,98.6703205 183.441384,99.5763285 C184.171315,100.024922 184.901247,100.473516 185.653298,100.935704 C188.689356,102.789444 191.762122,104.573829 194.839821,106.357579 C196.280349,107.196758 196.280349,107.196758 197.749978,108.052891 C198.419001,108.442188 199.088024,108.831485 199.777321,109.232579 C199.589089,111.526524 199.589089,111.526524 198.777321,114.232579 C196.615944,115.977696 196.615944,115.977696 193.78904,117.529454 C192.264401,118.378301 192.264401,118.378301 190.708962,119.244297 C189.638395,119.81793 188.567829,120.391563 187.464821,120.982579 C186.405856,121.57168 185.346892,122.160782 184.255837,122.767735 C175.203821,127.742627 175.203821,127.742627 171.777321,128.232579 C170.787321,127.902579 169.797321,127.572579 168.777321,127.232579 C168.709726,127.994495 168.642131,128.756412 168.572487,129.541416 C167.777321,132.232579 167.777321,132.232579 165.749733,133.863194 C164.860361,134.334427 163.970988,134.80566 163.054665,135.291172 C162.053547,135.834593 161.052429,136.378013 160.020974,136.937901 C158.929943,137.509519 157.838913,138.081138 156.714821,138.670079 C154.412901,139.915371 152.112147,141.162823 149.812478,142.412266 C149.224302,142.729199 148.636127,143.046132 148.030129,143.372669 C142.155676,146.543148 136.402023,149.90534 130.652321,153.295079 C128.686631,154.444296 126.720485,155.592733 124.753884,156.740391 C121.686031,158.531579 118.619763,160.32524 115.557595,162.126133 C112.387719,163.986237 109.208707,165.829747 106.027321,167.670079 C105.056496,168.244436 104.085671,168.818794 103.085427,169.410557 C102.184533,169.928035 101.28364,170.445513 100.355446,170.978672 C99.5655732,171.439432 98.7757002,171.900191 97.9618916,172.374913 C95.3665245,173.393858 94.3430611,173.222922 91.7773213,172.232579 C89.8382716,171.254929 87.9224128,170.230427 86.0273213,169.170079 C85.0424775,168.622227 84.0576338,168.074375 83.0429463,167.509922 C82.29529,167.088399 81.5476338,166.666875 80.7773213,166.232579 C81.1073213,164.252579 81.4373213,162.272579 81.7773213,160.232579 C81.0348213,160.583204 80.2923213,160.933829 79.5273213,161.295079 C76.4536233,162.34293 75.7580836,162.247766 72.7773213,161.232579 C70.9962528,160.355537 69.2465388,159.412902 67.5273213,158.420079 C66.63529,157.918633 65.7432588,157.417188 64.8241963,156.900547 C64.1487275,156.350118 63.4732588,155.799688 62.7773213,155.232579 C62.7773213,153.912579 62.7773213,152.592579 62.7773213,151.232579 C61.6493916,151.335704 60.5214619,151.438829 59.3593525,151.545079 C53.8405764,151.535369 50.0503229,149.075998 45.4648213,146.232579 C44.6317646,145.731455 43.798708,145.230332 42.9404072,144.714024 C23.0686498,132.617835 7.82902827,117.074402 1.40232127,93.9825785 C-0.0297394004,85.8575185 -1.40445522,74.7872975 2.90232127,67.4200785 C10.0098164,58.5605958 17.6543286,59.8828462 27.7773213,61.2325785 Z"/><path fill="#F8E4E4" d="M130.402321,1.35757855 C138.631132,5.92914014 145.518936,11.5944861 149.777321,20.2325785 C149.564865,23.3038787 149.149849,25.4875221 147.777321,28.2325785 C149.427321,28.2325785 151.077321,28.2325785 152.777321,28.2325785 C154.943806,33.3779802 155.768716,38.7210932 154.777321,44.2325785 C151.97297,49.665569 148.505577,52.0569469 143.339821,54.9200785 C142.356589,55.4856547 142.356589,55.4856547 141.353493,56.0626567 C140.080643,56.7941945 138.804228,57.5195731 137.523903,58.2379496 C135.970849,59.1223702 134.447682,60.0588155 132.929665,61.0021098 C130.777321,62.2325785 130.777321,62.2325785 128.777321,62.2325785 C128.447321,63.2225785 128.117321,64.2125785 127.777321,65.2325785 C126.136979,65.9616194 124.46166,66.6119142 122.777321,67.2325785 C120.130736,68.572124 117.551492,70.031316 114.964821,71.4825785 C114.184938,71.91804 113.405056,72.3535014 112.60154,72.8021586 C104.071838,77.5892871 95.6368524,82.5384474 87.19529,87.4786723 C80.9095781,91.1571369 74.6197317,94.828265 68.3183369,98.4798014 C66.6248595,99.4622515 64.9334886,100.44833 63.242165,101.434483 C62.2083369,102.033011 61.1745088,102.631539 60.1093525,103.248204 C59.1990327,103.777041 58.2887129,104.305879 57.3508076,104.850743 C54.8754946,106.179864 52.4054796,107.245872 49.7773213,108.232579 C49.864333,107.176836 49.864333,107.176836 49.9531025,106.099766 C50.5754962,92.4782358 45.5535261,81.4601013 36.7773213,71.2325785 C35.6068317,70.0693742 34.4216598,68.9205256 33.2148213,67.7950785 C32.4104463,66.9494535 31.6060713,66.1038285 30.7773213,65.2325785 C31.1249775,63.0724223 31.1249775,63.0724223 31.7773213,61.2325785 C30.4985713,61.4388285 29.2198213,61.6450785 27.9023213,61.8575785 C22.5874752,62.4744049 17.9240101,61.5326816 12.7773213,60.2325785 C16.082707,57.4751086 19.3667458,55.2036238 23.1366963,53.131016 C24.6728156,52.2803556 24.6728156,52.2803556 26.2399677,51.4125102 C27.3247944,50.8168827 28.4096211,50.2212553 29.5273213,49.6075785 C36.8004642,45.5754958 44.0648284,41.5424471 51.2148213,37.2950785 C60.3891006,31.8512123 69.6333735,26.5309273 78.8788838,21.209141 C83.0013167,18.8357621 87.1195181,16.4555034 91.2314686,14.0640147 C93.6107262,12.6803699 95.9913703,11.29912 98.3720783,9.91797284 C100.053981,8.94089926 101.733911,7.96043236 103.413796,6.979893 C104.437392,6.38652142 105.460988,5.79314984 106.515603,5.1817973 C107.413193,4.65932416 108.310783,4.13685101 109.235573,3.59854535 C116.34047,-0.219713702 122.631353,-1.05410124 130.402321,1.35757855 Z"/><path fill="#F9C1C3" d="M37.7773213,74.2325785 C39.4238277,76.3062866 40.6777243,78.144451 41.9648213,80.4200785 C42.639001,81.5480082 43.3131806,82.6759379 44.00779,83.8380473 C46.8332515,89.258193 48.0681485,93.6761223 48.0898213,99.7950785 C48.114958,101.4367 48.114958,101.4367 48.1406025,103.111485 C47.7040163,106.86237 46.4676772,109.542223 43.7773213,112.232579 C39.2448918,112.616683 36.7454957,112.716666 32.6523213,110.670079 C25.5537582,104.651732 20.3224719,97.8658018 19.4023213,88.3575785 C19.7773213,85.2325785 19.7773213,85.2325785 21.7773213,82.2325785 C25.8242619,81.698077 28.0184604,81.7669139 31.5273213,83.9200785 C34.7802797,87.2633969 36.5326364,89.7032984 37.2773213,94.3575785 C36.7773213,97.2325785 36.7773213,97.2325785 34.3398213,98.9825785 C33.4941963,99.3950785 32.6485713,99.8075785 31.7773213,100.232579 C31.4473213,100.892579 31.1173213,101.552579 30.7773213,102.232579 C33.1204426,101.976965 35.4557553,101.639871 37.7773213,101.232579 C39.2238847,98.3394516 39.0767971,96.4669179 38.7773213,93.2325785 C36.7756824,87.3877932 33.8766404,83.6668139 28.7773213,80.2325785 C26.0561862,79.3671516 26.0561862,79.3671516 23.7773213,79.2325785 C32.1558347,72.250484 32.1558347,72.250484 37.7773213,74.2325785 Z"/><path fill="#F8A5A4" d="M27.7773213,61.2325785 C29.0973213,61.2325785 30.4173213,61.2325785 31.7773213,61.2325785 C31.4473213,62.2225785 31.1173213,63.2125785 30.7773213,64.2325785 C25.1523213,65.3575785 25.1523213,65.3575785 21.7773213,64.2325785 C20.1345291,64.1146486 18.4867943,64.0574618 16.8398213,64.0450785 C15.5578486,64.023809 15.5578486,64.023809 14.2499775,64.0021098 C11.557442,64.2530728 10.0282467,64.7480281 7.77732127,66.2325785 C3.98199458,70.9064531 3.14680821,76.1886771 3.39841502,82.0567973 C5.28303367,97.8526217 11.1194929,112.274449 21.7773213,124.232579 C22.649372,125.243848 22.649372,125.243848 23.53904,126.275547 C28.2138184,131.342341 33.4747388,134.80828 39.41404,138.267735 C41.6008839,139.545299 43.7532702,140.884448 45.8593525,142.291172 C53.005318,146.945884 58.285455,148.181138 66.7773213,147.232579 C66.2823213,148.717579 66.2823213,148.717579 65.7773213,150.232579 C62.2494628,151.725134 58.5325639,151.54987 54.7773213,151.232579 C51.5049441,149.871479 48.5439724,148.083678 45.5273213,146.232579 C44.6897529,145.731455 43.8521845,145.230332 42.9892353,144.714024 C23.0772555,132.658995 7.83105658,117.08169 1.40232127,93.9825785 C-0.0297394004,85.8575185 -1.40445522,74.7872975 2.90232127,67.4200785 C10.0098164,58.5605958 17.6543286,59.8828462 27.7773213,61.2325785 Z"/><path fill="#F9A3A2" d="M30.7773213,66.2325785 C40.1337345,70.2662322 44.9866419,80.3419392 48.7773213,89.2325785 C51.2090898,95.7541396 52.0136689,102.053399 49.4648213,108.607579 C47.9723211,110.929245 46.9124407,112.529336 44.7773213,114.232579 C40.2851594,115.168748 35.7726523,115.083274 31.523415,113.271641 C25.4209722,109.139654 20.4188983,102.205309 18.1093525,95.209141 C17.4334212,91.1853618 17.1854972,87.2811929 17.7773213,83.2325785 C20.2633634,80.1615853 21.8310859,79.4382819 25.6523213,78.6075785 C30.8987968,79.6568737 34.1511389,82.8290715 37.1093525,87.2013285 C39.3135348,91.2514162 40.4309212,94.5484455 39.7773213,99.2325785 C39.1173213,100.222579 38.4573213,101.212579 37.7773213,102.232579 C34.1523213,102.420079 34.1523213,102.420079 30.7773213,102.232579 C31.1073213,101.242579 31.4373213,100.252579 31.7773213,99.2325785 C34.3398213,98.0450785 34.3398213,98.0450785 36.7773213,97.2325785 C35.5522725,92.1282086 34.0153641,88.4825098 30.7773213,84.2325785 C27.8206761,82.7542559 25.0350239,83.1722507 21.7773213,83.2325785 C20.233786,86.319649 20.1796599,88.9052138 20.7773213,92.2325785 C23.8496707,100.429168 27.7176405,107.202738 35.7773213,111.232579 C39.8490905,111.748597 39.8490905,111.748597 43.7773213,111.232579 C48.1149834,105.87429 47.464079,99.772385 46.7773213,93.2325785 C45.8920515,89.912817 44.520212,87.1832619 42.7773213,84.2325785 C42.2333369,83.2902739 41.6893525,82.3479692 41.1288838,81.3771098 C37.7359002,75.6937153 37.7359002,75.6937153 33.054665,71.0958598 C32.3031416,70.480977 31.5516181,69.8660942 30.7773213,69.2325785 C30.7773213,68.2425785 30.7773213,67.2525785 30.7773213,66.2325785 Z"/><path fill="#F8E4E4" d="M37.7773213,74.2325785 C43.2588122,80.7637167 46.7773213,87.6347844 46.7773213,96.2325785 C44.1373213,97.8825785 41.4973213,99.5325785 38.7773213,101.232579 C38.8598213,100.077579 38.9423213,98.9225785 39.0273213,97.7325785 C39.0075919,92.1590295 37.0824151,87.7839701 33.35154,83.6544535 C30.3558825,80.960684 27.7901842,79.5866547 23.7773213,79.2325785 C32.1322273,72.2701568 32.1322273,72.2701568 37.7773213,74.2325785 Z"/><path fill="#F78679" d="M167.777321,129.232579 C167.777321,130.222579 167.777321,131.212579 167.777321,132.232579 C166.82986,132.758758 166.82986,132.758758 165.863259,133.295567 C153.068989,140.409383 140.341026,147.610051 127.714821,155.018711 C117.139408,161.214585 106.465571,167.23401 95.7773213,173.232579 C95.2823213,171.747579 95.2823213,171.747579 94.7773213,170.232579 C95.6731794,169.728273 95.6731794,169.728273 96.5871357,169.21378 C110.034752,161.63945 123.4417,154.002331 136.777321,146.232579 C137.791652,145.642027 138.805983,145.051475 139.851052,144.443028 C145.137645,141.364648 150.423255,138.28458 155.707009,135.201329 C156.565363,134.700528 157.423718,134.199727 158.308083,133.68375 C160.043723,132.663714 161.762924,131.615437 163.469216,130.547032 C165.777321,129.232579 165.777321,129.232579 167.777321,129.232579 Z"/><path fill="#F97E70" d="M96.3398213 96.1700785C97.5463838 96.201016 97.5463838 96.201016 98.7773213 96.2325785 98.7773213 97.5525785 98.7773213 98.8725785 98.7773213 100.232579 105.456735 103.901171 105.456735 103.901171 112.777321 105.232579 112.777321 105.892579 112.777321 106.552579 112.777321 107.232579 108.844753 110.291243 105.860634 110.568437 100.964821 110.420079 99.2226533 110.379473 99.2226533 110.379473 97.44529 110.338047 96.5648603 110.303243 95.6844306 110.268438 94.7773213 110.232579 94.6535713 109.118829 94.5298213 108.005079 94.4023213 106.857579 94.13074 103.201542 94.13074 103.201542 91.7773213 101.232579 92.5302886 96.262994 92.5302886 96.262994 96.3398213 96.1700785ZM72.7773213 115.232579C72.4400979 118.267588 71.9728112 119.979166 70.0898213 122.420079 64.9751419 126.428881 59.9958299 126.44701 53.7773213 126.232579 54.1145446 123.197569 54.5818313 121.485991 56.4648213 119.045079 61.5795007 115.036276 66.5588126 115.018147 72.7773213 115.232579ZM128.777321 82.2325785C128.447321 83.2225785 128.117321 84.2125785 127.777321 85.2325785 126.457321 85.2325785 125.137321 85.2325785 123.777321 85.2325785 123.529821 85.8307035 123.282321 86.4288285 123.027321 87.0450785 121.001561 90.5901586 118.59738 91.9592257 114.777321 93.2325785 113.216137 93.2999872 111.652296 93.3177231 110.089821 93.2950785 108.877458 93.2815434 108.877458 93.2815434 107.640603 93.2677348 106.718278 93.2503325 106.718278 93.2503325 105.777321 93.2325785 105.777321 92.2425785 105.777321 91.2525785 105.777321 90.2325785 108.28593 88.6876609 110.805953 87.1725395 113.339821 85.6700785 114.044294 85.2324418 114.748767 84.7948051 115.474587 84.3439067 120.429848 81.4438232 123.185432 80.7703105 128.777321 82.2325785ZM77.7773213 105.232579C80.0873213 105.232579 82.3973213 105.232579 84.7773213 105.232579 85.1073213 106.222579 85.4373213 107.212579 85.7773213 108.232579 82.8073213 107.737579 82.8073213 107.737579 79.7773213 107.232579 79.7773213 107.892579 79.7773213 108.552579 79.7773213 109.232579 80.9529463 109.696641 80.9529463 109.696641 82.1523213 110.170079 84.7773213 111.232579 84.7773213 111.232579 86.7773213 112.232579 86.7773213 111.572579 86.7773213 110.912579 86.7773213 110.232579 87.4373213 110.232579 88.0973213 110.232579 88.7773213 110.232579 88.7773213 111.552579 88.7773213 112.872579 88.7773213 114.232579 90.4273213 113.902579 92.0773213 113.572579 93.7773213 113.232579 93.7773213 114.882579 93.7773213 116.532579 93.7773213 118.232579 91.1373213 118.232579 88.4973213 118.232579 85.7773213 118.232579 85.7773213 117.572579 85.7773213 116.912579 85.7773213 116.232579 84.1273213 115.902579 82.4773213 115.572579 80.7773213 115.232579 80.7773213 114.242579 80.7773213 113.252579 80.7773213 112.232579 78.837226 110.527255 78.837226 110.527255 76.7773213 109.232579 77.1073213 107.912579 77.4373213 106.592579 77.7773213 105.232579ZM102.777321 125.232579C102.467946 125.810079 102.158571 126.387579 101.839821 126.982579 100.584471 129.451637 100.584471 129.451637 99.7773213 133.232579 103.077321 135.542579 106.377321 137.852579 109.777321 140.232579 109.117321 140.892579 108.457321 141.552579 107.777321 142.232579 102.497321 139.262579 97.2173213 136.292579 91.7773213 133.232579 91.7773213 132.242579 91.7773213 131.252579 91.7773213 130.232579 93.2326969 129.394091 94.691725 128.561939 96.1523213 127.732579 96.9644306 127.268516 97.77654 126.804454 98.6132588 126.326329 100.777321 125.232579 100.777321 125.232579 102.777321 125.232579Z"/><path fill="#F78679" d="M198.777321,110.232579 C199.107321,111.222579 199.437321,112.212579 199.777321,113.232579 C195.823095,115.572926 191.863286,117.903657 187.902321,120.232579 C186.774392,120.900313 185.646462,121.568047 184.484353,122.256016 C183.407985,122.887657 182.331618,123.519297 181.222634,124.170079 C180.227639,124.756602 179.232644,125.343125 178.207497,125.947422 C175.777321,127.232579 175.777321,127.232579 173.777321,127.232579 C175.085025,123.309468 176.575548,122.902701 180.124978,120.87711 C181.744362,119.944151 181.744362,119.944151 183.396462,118.992344 C184.53277,118.349747 185.669079,117.707149 186.839821,117.045079 C187.979997,116.390879 189.120173,115.73668 190.294899,115.062657 C193.117847,113.444481 195.945356,111.834904 198.777321,110.232579 Z"/><path fill="#F97E70" d="M134.777321,89.2325785 C135.437321,89.2325785 136.097321,89.2325785 136.777321,89.2325785 C136.447321,90.8825785 136.117321,92.5325785 135.777321,94.2325785 C134.972946,94.3563285 134.168571,94.4800785 133.339821,94.6075785 C132.071384,94.9169535 132.071384,94.9169535 130.777321,95.2325785 C130.447321,95.8925785 130.117321,96.5525785 129.777321,97.2325785 C128.127321,97.2325785 126.477321,97.2325785 124.777321,97.2325785 C124.777321,98.2225785 124.777321,99.2125785 124.777321,100.232579 C122.467321,100.562579 120.157321,100.892579 117.777321,101.232579 C117.777321,100.242579 117.777321,99.2525785 117.777321,98.2325785 C118.416696,98.1088285 119.056071,97.9850785 119.714821,97.8575785 C120.395446,97.6513285 121.076071,97.4450785 121.777321,97.2325785 C122.107321,96.5725785 122.437321,95.9125785 122.777321,95.2325785 C124.427321,95.2325785 126.077321,95.2325785 127.777321,95.2325785 C128.107321,93.9125785 128.437321,92.5925785 128.777321,91.2325785 C130.757321,91.2325785 132.737321,91.2325785 134.777321,91.2325785 C134.777321,90.5725785 134.777321,89.9125785 134.777321,89.2325785 Z"/><path fill="#F7A8A5" d="M44.7773213,142.232579 C45.6513056,142.773985 45.6513056,142.773985 46.5429463,143.326329 C53.450674,147.236363 58.9212301,147.840008 66.7773213,147.232579 C66.4473213,148.222579 66.1173213,149.212579 65.7773213,150.232579 C64.1523213,150.920079 64.1523213,150.920079 61.7773213,151.232579 C60.2923213,151.480079 60.2923213,151.480079 58.7773213,151.732579 C52.8282225,151.732579 47.5893906,147.330003 42.7773213,144.232579 C43.4373213,143.572579 44.0973213,142.912579 44.7773213,142.232579 Z"/><path fill="#F97E70" d="M79.7773213 121.232579C80.4373213 121.232579 81.0973213 121.232579 81.7773213 121.232579 81.7773213 122.552579 81.7773213 123.872579 81.7773213 125.232579 79.7973213 125.232579 77.8173213 125.232579 75.7773213 125.232579 75.7773213 126.222579 75.7773213 127.212579 75.7773213 128.232579 73.7973213 128.562579 71.8173213 128.892579 69.7773213 129.232579 69.7773213 130.222579 69.7773213 131.212579 69.7773213 132.232579 67.7973213 132.232579 65.8173213 132.232579 63.7773213 132.232579 63.7773213 131.572579 63.7773213 130.912579 63.7773213 130.232579 65.0973213 130.232579 66.4173213 130.232579 67.7773213 130.232579 68.1073213 128.912579 68.4373213 127.592579 68.7773213 126.232579 69.5816963 126.108829 70.3860713 125.985079 71.2148213 125.857579 72.0604463 125.651329 72.9060713 125.445079 73.7773213 125.232579 74.1073213 124.572579 74.4373213 123.912579 74.7773213 123.232579 76.4273213 123.232579 78.0773213 123.232579 79.7773213 123.232579 79.7773213 122.572579 79.7773213 121.912579 79.7773213 121.232579ZM133.777321 123.232579C134.437321 123.232579 135.097321 123.232579 135.777321 123.232579 135.447321 124.882579 135.117321 126.532579 134.777321 128.232579 133.99486 128.414336 133.212399 128.596094 132.406228 128.78336 131.394313 129.034727 130.382399 129.286094 129.339821 129.545079 128.330485 129.788711 127.321149 130.032344 126.281228 130.28336 125.454938 130.596602 124.628649 130.909844 123.777321 131.232579 123.447321 132.222579 123.117321 133.212579 122.777321 134.232579 122.117321 134.232579 121.457321 134.232579 120.777321 134.232579 121.527321 129.482579 121.527321 129.482579 123.777321 127.232579 125.941384 126.818516 125.941384 126.818516 128.402321 126.607579 129.219587 126.532813 130.036853 126.458047 130.878884 126.381016 131.505368 126.332032 132.131853 126.283047 132.777321 126.232579 133.107321 125.242579 133.437321 124.252579 133.777321 123.232579Z"/><path fill="#F7897C" d="M90.7773213,155.232579 C85.9614684,158.392982 80.6212565,161.232579 74.7773213,161.232579 C75.1073213,160.242579 75.4373213,159.252579 75.7773213,158.232579 C77.7382588,157.318516 77.7382588,157.318516 80.1523213,156.607579 C80.9438056,156.367813 81.73529,156.128047 82.5507588,155.881016 C83.2855244,155.667032 84.02029,155.453047 84.7773213,155.232579 C87.7773213,154.232579 87.7773213,154.232579 90.7773213,155.232579 Z"/><path fill="#F99590" d="M26.0898213,61.1700785 C27.6927705,61.1836137 27.6927705,61.1836137 29.3281025,61.1974223 C30.1363447,61.2090239 30.9445869,61.2206254 31.7773213,61.2325785 C31.4473213,62.2225785 31.1173213,63.2125785 30.7773213,64.2325785 C25.0888238,65.7295516 20.3592306,64.5673829 14.7773213,63.2325785 C14.7773213,62.9025785 14.7773213,62.5725785 14.7773213,62.2325785 C18.614563,61.3284418 22.152344,61.1268096 26.0898213,61.1700785 Z"/><path fill="#F7A8A5" d="M81.7773213 164.232579C86.7776044 165.574118 90.9679963 167.716279 94.7773213 171.232579 94.7773213 171.892579 94.7773213 172.552579 94.7773213 173.232579 90.1087015 171.62774 85.6847396 169.257677 81.7773213 166.232579 81.7773213 165.572579 81.7773213 164.912579 81.7773213 164.232579ZM62.7773213 153.232579C67.3816106 154.54809 70.9605251 156.324543 74.7773213 159.232579 74.7773213 159.892579 74.7773213 160.552579 74.7773213 161.232579 75.4373213 161.562579 76.0973213 161.892579 76.7773213 162.232579 73.2528362 161.565562 70.5943199 160.129 67.5273213 158.295079 66.63529 157.77043 65.7432588 157.245782 64.8241963 156.705235 64.1487275 156.219258 63.4732588 155.733282 62.7773213 155.232579 62.7773213 154.572579 62.7773213 153.912579 62.7773213 153.232579Z"/><path fill="#F99590" d="M36.7773213,96.2325785 C37.4373213,96.5625785 38.0973213,96.8925785 38.7773213,97.2325785 C38.4473213,98.8825785 38.1173213,100.532579 37.7773213,102.232579 C35.4673213,102.232579 33.1573213,102.232579 30.7773213,102.232579 C31.7773213,99.2325785 31.7773213,99.2325785 34.2148213,97.4825785 C35.0604463,97.0700785 35.9060713,96.6575785 36.7773213,96.2325785 Z"/><path fill="#F7A8A5" d="M163.777321,122.232579 C167.197759,123.02191 170.5153,123.92777 173.777321,125.232579 C174.107321,126.222579 174.437321,127.212579 174.777321,128.232579 C170.422093,127.726157 167.334925,126.848464 163.777321,124.232579 C163.777321,123.572579 163.777321,122.912579 163.777321,122.232579 Z"/><path fill="#F7897C" d="M66.7773213,148.232579 C66.4473213,148.892579 66.1173213,149.552579 65.7773213,150.232579 C63.128717,150.826135 60.485348,150.974671 57.7773213,151.232579 C57.7773213,150.572579 57.7773213,149.912579 57.7773213,149.232579 C61.2036496,147.61459 63.1578723,146.892042 66.7773213,148.232579 Z"/><path fill="#F97E70" d="M134.777321,89.2325785 C135.437321,89.2325785 136.097321,89.2325785 136.777321,89.2325785 C136.447321,90.8825785 136.117321,92.5325785 135.777321,94.2325785 C133.402321,94.4200785 133.402321,94.4200785 130.777321,94.2325785 C130.117321,93.2425785 129.457321,92.2525785 128.777321,91.2325785 C130.757321,91.2325785 132.737321,91.2325785 134.777321,91.2325785 C134.777321,90.5725785 134.777321,89.9125785 134.777321,89.2325785 Z"/><path fill="#F7A8A5" d="M82.7773213,158.232579 C84.8398213,158.670079 84.8398213,158.670079 86.7773213,159.232579 C84.8515601,161.671876 82.9764153,164.033484 80.7773213,166.232579 C81.6523213,159.357579 81.6523213,159.357579 82.7773213,158.232579 Z"/></g></svg>